<?xml version="1.0" standalone="no"?>
<!DOCTYPE svg PUBLIC "-//W3C//DTD SVG 1.1//EN" "http://www.w3.org/Graphics/SVG/1.1/DTD/svg11.dtd" >
<svg xmlns="http://www.w3.org/2000/svg" xmlns:xlink="http://www.w3.org/1999/xlink" version="1.1">
<metadata>
Created by FontForge 20170910 at Sun May 14 11:26:28 2017
 By Jimmy Wärting
Copyright (c) 2017 by Cataleya Butcher. All rights reserved.
</metadata>
<defs>
<font id="DancingintheRainbow" horiz-adv-x="166" >
  <font-face 
    font-family="Dancing in the Rainbow"
    font-weight="400"
    font-stretch="normal"
    units-per-em="500"
    panose-1="0 0 0 0 0 0 0 0 0 0"
    ascent="375"
    descent="-125"
    x-height="178"
    cap-height="352"
    bbox="-146.4 -117 826.4 585.8"
    underline-thickness="50"
    underline-position="-100"
    unicode-range="U+0020-FB02"
  />
<missing-glyph horiz-adv-x="148" 
 />
    <glyph glyph-name=".notdef" horiz-adv-x="148" 
 />
    <glyph glyph-name="B" unicode="B" horiz-adv-x="446" 
d="M53 138q-28 7 -38 26.5t1 42.5t37.5 42.5t49.5 30.5q65 32 117 44t97 12l5 4q18 12 30 14t18.5 -2t7.5 -10.5t-4 -10.5q46 -6 61.5 -26.5t12.5 -41.5q-5 -34 -31 -51.5t-54 -28.5q1 0 2 -1q29 -5 43.5 -18.5t16 -31.5t-9.5 -38.5t-33 -39.5q-15 -13 -44 -26.5
t-64.5 -23.5t-72.5 -14t-67.5 1.5t-50.5 23.5t-20 52q0 13 8 25.5t21.5 22.5t30 16.5t33.5 8.5q-38 -16 -57 -37.5t-20 -40.5t16.5 -32t52.5 -12q-4 2 -6 4q-5 7 -7.5 20t2.5 27q14 43 32.5 74.5t42.5 68.5q7 11 17.5 25.5t22.5 29.5t24.5 29.5t24.5 26.5q-34 -4 -65.5 -14
t-59 -23t-49.5 -26.5t-37 -24.5q-12 -9 -23 -19.5t-19 -21.5q-13 -16 -7 -34t26 -24q-4 0 -7 0.5t-7 1.5zM355 319q-23 -17 -46 -41.5t-38 -43.5q-26 -32 -56.5 -76t-48.5 -89q-8 -20 -7.5 -34.5t16.5 -16.5q25 1 52.5 5t54.5 11t50.5 17t39.5 22q26 20 35.5 37t4.5 29
t-25 18t-52 5q-13 -1 -27.5 -6t-30.5 -10q-9 -3 -14 1.5t-6 11t3 12.5t15 7q13 1 24.5 2t23.5 6q11 4 34.5 17t43.5 29.5t27.5 35.5t-13.5 35q-14 9 -31 13q-14 3 -29 3z" />
    <glyph glyph-name="C" unicode="C" horiz-adv-x="252" 
d="M267 148q-9 -35 -28.5 -67t-46 -55t-57.5 -33.5t-62 -3.5q-38 9 -55 33.5t-18 57t11.5 70t34.5 72.5q18 28 42 54t50 45.5t53 30t50 8.5q33 -3 47 -15t15.5 -26.5t-5.5 -30.5t-15.5 -27t-14.5 -15.5t-2 3.5q13 25 16.5 43.5t1.5 30.5t-9.5 18.5t-17.5 7.5
q-12 1 -32.5 -7.5t-44 -25.5t-48 -41.5t-45.5 -54.5q-21 -31 -35 -64t-17 -62t6 -51t34 -32q31 -12 61 -2t55.5 32.5t45 51.5t30.5 55z" />
    <glyph glyph-name="D" unicode="D" horiz-adv-x="443" 
d="M53 134q-21 5 -31.5 16.5t-9.5 27.5q1 29 21 51.5t50 40t66 29t69 19t59 10.5t36 3q12 13 26.5 17.5t21.5 4.5q8 0 13 -3.5t5 -8.5t-4 -7t-11 -6q56 -15 72.5 -50.5t6.5 -76.5t-39 -81.5t-64 -66.5q-39 -29 -87.5 -47t-102.5 -18q-39 0 -62 15t-25 44q-1 13 6 28
t19.5 27.5t29.5 22t37 11.5q-36 -19 -57 -40t-20 -40q1 -18 19.5 -29t58.5 -11q-14 5 -17 23t0 31q7 26 24 60t39.5 69t48 67t49.5 54q-18 0 -45 -7t-57.5 -19t-60.5 -27.5t-53.5 -33.5t-37.5 -37t-11 -37q1 -8 6 -12t10.5 -6t10 -4t5.5 -5zM352 316q-24 -17 -47 -41.5
t-39 -44.5q-12 -16 -30 -41t-34.5 -52.5t-28.5 -54t-11 -45.5q2 -18 18 -19q30 5 63 16.5t62 30.5q24 16 48.5 38.5t43.5 48t29.5 51t7.5 48t-22 40t-60 25.5z" />
    <glyph glyph-name="E" unicode="E" horiz-adv-x="345" 
d="M478 230q4 7 12.5 21.5t8.5 28.5q0 19 -24.5 28t-57.5 11.5t-66 1t-50 -1.5q-18 -15 -34 -34.5t-30.5 -40t-26 -39t-18.5 -30.5q7 0 13 0.5t13 0.5q34 0 56.5 -2.5t36 -5.5t19.5 -5.5t7 -2.5q0 -2 -4.5 -2h-10.5q-9 0 -18.5 0.5t-18.5 0.5q-58 0 -110 -11
q-17 -28 -32 -58.5t-23 -56.5q-5 -17 5 -19t24 -2q19 0 43 5.5t49 14.5t48.5 20t42.5 23q9 5 15 8.5t8 3.5h1q0 -2 -34 -26q-10 -7 -29 -19t-44 -24t-55 -21t-61 -9q-5 0 -12 0.5t-13.5 4t-11.5 11t-5 21.5q0 15 6 31.5t11 29.5q-1 0 -2 -1q-12 0 -23.5 6t-11.5 20
q0 13 7.5 23t19 17t25.5 11.5t27 7.5q7 9 18 26.5t24 37.5t26.5 41t25.5 38q-3 0 -20 -4.5t-40 -13t-49 -20.5t-47 -27.5t-34 -34t-11 -38.5q1 -6 5.5 -11t9.5 -8t9 -5t4 -3q-27 5 -41.5 16.5t-14.5 31.5q0 33 26.5 56t64 39t78.5 25.5t70 14.5q11 8 20 15t26 6
q12 -1 12 -6.5t1 -9.5h59t62 -3.5t50 -14t24 -31.5q2 -14 -6 -29.5t-24 -27.5zM111 92q5 11 10 21.5t10 21.5q-17 -7 -27 -15t-10 -18q0 -6 5.5 -8t11.5 -2z" />
    <glyph glyph-name="F" unicode="F" horiz-adv-x="195" 
d="M52 151q-41 11 -41 45q0 33 26.5 57t65 40.5t81.5 26t76 13.5q11 8 17 15.5t19 7.5q14 0 16.5 -7.5t3.5 -11.5q14 1 45.5 2t63 -3.5t55.5 -16.5t24 -37q0 -16 -10.5 -30t-27.5 -27l-2 4h1q26 29 26 50q0 45 -108 45q-20 0 -37.5 -1t-42.5 -5q-19 -14 -35.5 -32t-30 -36
t-25 -35t-19.5 -29q13 6 46.5 10.5t68.5 6.5t61.5 1.5t24.5 -4.5q-1 -1 -3.5 -0.5t-7.5 -0.5q-25 -2 -55 -6t-58.5 -9.5t-54 -12.5t-41.5 -16q-9 -15 -19.5 -34.5t-20 -39.5t-16 -37.5t-6.5 -29.5q0 -20 23 -20q2 0 2 -1t-5 -3t-13 -2q-10 0 -21 8t-11 28q0 7 2.5 16.5
t6.5 19.5t7.5 19.5t6.5 16.5q-11 0 -23 6t-12 19t6.5 22.5t17 16t24 11t28.5 8.5q6 9 17.5 27t24.5 38.5t25.5 38t20.5 24.5q-4 0 -20 -4t-37.5 -12t-46 -19t-45.5 -24t-36 -28t-17 -31q-2 -15 9 -25.5t20 -15.5q-4 1 -7 1t-7 2zM130 141q-14 -7 -22.5 -14t-9.5 -15
q0 -5 4.5 -7t9.5 -3z" />
    <glyph glyph-name="G" unicode="G" horiz-adv-x="328" 
d="M33 18q-25 18 -29.5 45.5t5 58t29.5 62t44 58.5q15 16 39 35.5t53 36.5t61 28.5t64 12.5q30 1 51.5 -15t16.5 -52q-3 -17 -11 -30.5t-26 -30.5q0 1 0.5 1.5t0.5 1.5v1q8 11 14 20t8 18q4 27 -7 40.5t-31.5 15t-48 -6.5t-58 -24.5t-60.5 -39t-55 -49.5q-18 -19 -34 -44
t-25.5 -49.5t-10.5 -46t10.5 -33t37.5 -11.5t71 19q19 7 43 24.5t45.5 37.5t38 38t21.5 26q3 5 1.5 6.5t-5 0.5t-8.5 -4t-8 -7q1 9 13.5 17.5t19.5 6.5q11 -2 13.5 -10.5t0 -19.5t-7.5 -22.5t-9 -18.5q-16 -30 -33 -60t-35 -57q5 -1 11 -4t11.5 -8.5t8.5 -13.5t1 -19
q-1 -7 -6 -15t-11 -15.5t-12.5 -13.5t-10.5 -9q2 3 7 8l10.5 10.5t10 12t5.5 12.5q2 15 -6 29.5t-27 14.5q-21 -26 -47 -46.5t-53 -20.5q-6 0 -14.5 1t-16 4.5t-12.5 9.5t-4 16q2 24 29 39t60 15q8 0 15.5 -0.5t15.5 -1.5q40 52 72 112q0 2 -0.5 1t0.5 1q-17 -16 -46 -40.5
t-62 -44t-67 -26.5t-61 12zM123 -70q20 8 35 24.5t29 34.5q-18 -2 -35.5 -5.5t-31.5 -11.5q-15 -7 -21.5 -16.5t-5.5 -16.5t8.5 -10.5t21.5 1.5z" />
    <glyph glyph-name="H" unicode="H" horiz-adv-x="419" 
d="M35 185q-35 16 -35 46q0 23 16.5 41t42 31.5t55.5 23.5t57.5 16t47.5 9t25 3q22 0 31.5 -9.5t13.5 -26.5q2 -10 -0.5 -21t-10.5 -27t-22 -39.5t-33 -57.5q39 5 81 8t79 3q28 51 58 81.5t51 30.5q14 0 14 -10q0 -6 -6 -10q-21 -14 -41.5 -40.5t-36.5 -52.5q47 -2 64 -4.5
t17 -3.5q0 -2 -14 -2q-11 0 -24.5 -1.5t-29.5 -1.5q-8 0 -15 -1.5t-10 -6.5q-11 -18 -24.5 -44.5t-25.5 -55.5t-20.5 -57.5t-8.5 -50.5q0 -14 7 -17.5t19 -3.5q1 0 1 -1q0 -2 -6 -4.5t-15 -2.5q-11 0 -22 9t-11 29q0 49 22.5 101t46.5 103q-43 -4 -89 -12.5t-82 -17.5
q-23 -43 -37 -72.5t-14 -49.5q0 -8 3.5 -14.5t3.5 -11.5q0 -1 -4 2t-9 9.5t-9 17t-4 24.5q0 9 1.5 20t6.5 23q-11 0 -22.5 7t-11.5 19q0 23 20 35.5t56 19.5q8 17 18 36t19.5 37t17.5 34l14 28q8 17 12 26t1.5 12.5t-11.5 2.5t-27 -5q-30 -6 -66 -19.5t-66.5 -31
t-49.5 -37.5t-15 -41q2 -9 5 -14t6 -7t5.5 -3.5t2.5 -4.5q-5 1 -13 5zM159 126q-29 -13 -30 -24q0 -5 4.5 -6.5t9.5 -2.5q2 4 3.5 7.5t3.5 7.5z" />
    <glyph glyph-name="I" unicode="I" horiz-adv-x="218" 
d="M293 329q9 1 27.5 3.5t40.5 4t45.5 0.5t43 -5.5t32.5 -15t15 -27.5q1 -9 -3.5 -20.5t-11.5 -21.5t-14.5 -17t-12.5 -7q0 1 4 5.5t4 5.5q24 30 21 50q-2 22 -29 31.5t-93 5.5q-18 -1 -38 -4t-41 -8q-9 -14 -22.5 -38.5t-28.5 -54.5t-30 -61.5t-26.5 -58.5t-17.5 -46
t-4 -24q25 0 49 -3t44 -6.5t34.5 -7t22.5 -5.5q20 -7 28.5 -10.5t8.5 -5.5q0 -1 -4 -1q-7 0 -17 3q-26 6 -56 9t-60 3q-14 0 -27 -0.5t-26 -1.5q2 -4 3.5 -6.5t9.5 -3.5q1 0 -3.5 -1t-10.5 -1.5t-12.5 1.5t-7.5 8q-37 -5 -62 -14.5t-24 -23.5q0 -6 3.5 -7.5t8 -2t8.5 -1.5
t4 -5q-7 0 -15.5 1t-15.5 3.5t-12 7.5t-5 14q-1 15 7.5 25.5t23 17t33.5 9.5t39 5q0 2 0.5 4.5t0.5 4.5q7 34 22.5 72.5t33 75t33.5 67.5t24 49q-4 -2 -18.5 -6t-34 -11t-41 -17.5t-38 -23.5t-26 -30t-5.5 -37q1 -8 6 -12.5t9.5 -8t8.5 -5.5t4 -3q-55 10 -58 48q-2 30 18 52
t51.5 37.5t68 25t68.5 15.5q11 9 14 18t15 11q6 1 9.5 -1.5t4.5 -6.5t1 -8t-1 -7z" />
    <glyph glyph-name="J" unicode="J" horiz-adv-x="340" 
d="M607 336q22 -15 18 -39t-27 -43l-12 -8q-8 -6 -9 -6t0.5 2t4.5 5l3 3q26 28 26.5 52t-31.5 33q-42 11 -87 10.5t-108 -12.5q13 -6 12 -17t-5 -24q-8 -26 -24 -62.5t-36.5 -75t-44.5 -73.5t-48 -58q-45 -42 -87.5 -66t-74.5 -32q-22 -5 -40 -1.5t-26 17t-2.5 38t30.5 62.5
q15 22 34.5 41t40 33t39 23t30.5 11q33 5 40 -18q3 -8 -1 -18t-11.5 -20t-16 -18t-14.5 -12q7 7 14.5 16.5t13.5 18.5t8.5 16t-0.5 10q-6 4 -22 0t-35 -16.5t-37 -27.5t-33.5 -30.5l-25.5 -25.5q-33 -34 -41 -53t-3 -27t18 -8.5t23 1.5q19 4 39.5 15t39 24.5t34 28
t26.5 25.5q42 42 72 88t49.5 86t28.5 68.5t9 35.5t-3.5 12.5t-7.5 7.5q-17 -5 -34 -9.5t-34 -11.5q-14 -6 -32.5 -15.5t-36.5 -20t-34 -23t-25 -24.5q-5 -7 -8 -15t-1.5 -15.5t7.5 -13t18 -8.5v-4l-14 3q-28 8 -37.5 28t3.5 43q12 22 39 40t50 29q56 25 116 38.5t114.5 16
t99 -5t69.5 -24.5z" />
    <glyph glyph-name="K" unicode="K" horiz-adv-x="361" 
d="M173 56q-9 -24 -9 -40q0 -8 3 -14t3 -11q0 -1 -1 -1q-4 0 -14.5 13.5t-10.5 40.5q0 14 8.5 37.5t21.5 51.5t28.5 58.5t29.5 58t23.5 50t11.5 35.5q0 4 -3 7q-5 0 -25 -5t-47 -13.5t-56 -20.5t-53.5 -26.5t-40 -31t-13.5 -33.5q1 -8 4.5 -13t8 -8t7.5 -5.5t3 -5.5
q-23 5 -35.5 20t-12.5 31q0 22 16.5 40t42 32t55.5 24t57.5 16t47.5 9t25 3q22 0 34 -7.5t12 -27.5q0 -16 -3.5 -29.5t-13 -33.5t-26.5 -51.5t-45 -82.5q2 -3 5.5 -3t5.5 -3q16 2 37 16t43 34t43.5 44t38.5 46.5t27.5 41t10.5 28.5q0 7 -4 9.5t-8.5 2t-9.5 -3t-6 -5.5
q-1 8 8.5 13t21 4.5t21 -8t9.5 -25.5q0 -19 -15 -41.5t-38 -46t-50.5 -46t-53.5 -39.5t-46 -27.5t-27 -9.5q9 -17 27.5 -40.5t41.5 -45t47.5 -37t46.5 -15.5q6 0 12.5 2t6.5 8q0 8 -3 15t-3 10q0 2 1 2q2 0 8 -11t6 -20q0 -14 -11 -26.5t-30 -12.5q-21 0 -44 14.5
t-44.5 38.5t-41 54t-34.5 62q-3 1 -5 1t-4 1q-15 -27 -23 -48z" />
    <glyph glyph-name="L" unicode="L" horiz-adv-x="233" 
d="M346 -13q14 -6 20 -9.5t6.5 -4t-2 0t-6.5 2.5q-18 8 -53 14t-75 9.5t-79 4.5t-66 -1q-14 -8 -25 -11t-16 -1q-4 -2 -5.5 2.5t1.5 11.5t12.5 14t29.5 11h1q11 13 26 36.5t31 51t31 57t26 54.5q3 6 12 25t17.5 40t11.5 37.5t-6 16.5q-8 1 -32.5 -11.5t-60.5 -50.5
q-20 -20 -39.5 -44.5t-25.5 -44.5q-6 -16 -0.5 -24.5t14.5 -13t18 -6t10 -4.5q-13 0 -26.5 1.5t-24 7.5t-16 17t-1.5 30q6 28 28.5 55.5t50.5 48.5t55.5 34t42.5 12q32 5 33.5 -32t-36.5 -115q-10 -21 -23.5 -47t-27 -51t-26.5 -46.5t-23 -32.5q21 -2 50 -5t59.5 -8.5
t59 -13t49.5 -17.5z" />
    <glyph glyph-name="M" unicode="M" horiz-adv-x="504" 
d="M413 -2q13 1 29 17t31 36t26.5 40.5t16.5 30.5q-3 -17 -14 -40t-27 -44t-33 -36t-32 -15q-14 0 -21.5 10.5t-7.5 27.5t5.5 36t14 38.5t18 38.5l18.5 37l8.5 17t11.5 23.5t10.5 24t4.5 17.5q0 10 -7 10q-9 0 -25 -12.5t-35.5 -32.5t-39 -45t-36 -50t-26.5 -47.5t-10 -37.5
q0 -10 5 -12q-22 0 -28.5 9t-6.5 23t6 30.5t12 30.5q3 6 12 23.5t21 40t25 47.5t24.5 47t18.5 38t7 20q0 2 -2 3.5t-4 1.5q-10 0 -37 -24.5t-58.5 -59t-61 -70.5t-44.5 -60q-18 -29 -33 -55.5t-15 -57.5q0 -14 6 -18.5t20 -4.5q0 -2 -6 -5t-14 -2q-24 3 -30 19t-2 38.5
t16 49t25 50t24.5 41.5t14.5 24q2 4 11 17.5t19 29t18 29.5t8 18q0 6 -9 6q-35 0 -76.5 -15t-77.5 -38t-58.5 -50t-18.5 -51q2 -8 5 -17t14 -13q-49 18 -49 52q0 14 10 34q19 36 58 57t78.5 32t70.5 14.5t35 3.5q20 0 32.5 -6t12.5 -20q0 -17 -12.5 -37.5t-34.5 -52.5
q40 53 68.5 83.5t47.5 45.5t30 18.5t17 3.5q16 0 23.5 -6.5t9.5 -15.5q1 -9 -8 -30.5t-23 -47.5t-29.5 -52.5t-27.5 -45.5q17 26 36 48t37 38t33 25t26 9q16 0 27.5 -10t11.5 -23q0 -10 -15 -38t-33 -63t-33 -70.5t-15 -60.5q0 -10 6 -12z" />
    <glyph glyph-name="N" unicode="N" horiz-adv-x="419" 
d="M35 134q-27 11 -34 33.5t7 47.5q13 23 37.5 40t52 29t55.5 19.5t48 12.5q40 8 69 4.5t29 -26.5q-1 -17 -14 -37t-33 -52q46 61 82.5 96.5t49.5 43.5q16 10 30 11t24 -5t13.5 -17t-0.5 -25q-19 -58 -48 -118t-61 -134q-1 -2 -4 -11t-5.5 -19.5t-2.5 -19t6 -8.5
q13 0 27.5 13.5t27.5 32.5t22.5 37.5t14.5 29.5q-1 -15 -11 -36.5t-24 -41t-30 -33t-30 -13.5q-18 0 -25 9t-7.5 22.5t4.5 30.5t12 32q5 11 19 43.5t30.5 70.5t31.5 73.5t21 53.5q1 2 2 7.5t-0.5 10.5t-6.5 6t-16 -6q-17 -12 -42.5 -38.5t-53 -57t-52.5 -61t-40 -50.5
q-14 -25 -24.5 -45t-17.5 -43q-8 -25 -4.5 -39t23.5 -11q4 0 1.5 -2.5t-9 -4.5t-15.5 -1t-16 8q-6 7 -9.5 18.5t0.5 27.5q6 31 17.5 60.5t27.5 58.5t34 58t37 60q6 10 12 19t4.5 13.5t-14.5 2t-44 -14.5q-22 -9 -48 -20t-51 -24t-45.5 -27.5t-30.5 -30.5q-12 -18 -12 -29.5
t5.5 -18t11.5 -11t6 -9.5l-14 5v0z" />
    <glyph glyph-name="O" unicode="O" horiz-adv-x="422" 
d="M57 150q-46 8 -46 48q0 15 8 29.5t20.5 28t28 25.5t29.5 21q35 22 66 35.5t58 21t50 10t42 2.5q56 1 90.5 -28.5t34.5 -92.5q0 -29 -11 -60.5t-31 -62.5t-48 -58.5t-61 -47.5t-71.5 -31t-78.5 -8q-41 3 -60 29.5t-20 58.5q-1 29 12.5 58t35 52.5t48.5 39.5t54 20
q-23 -6 -46.5 -24.5t-42 -42.5t-30.5 -51t-12 -51t11.5 -43.5t47.5 -25.5q25 -4 55 5t61 28t59.5 46t51 58.5t36 66.5t13.5 69q0 44 -27.5 62.5t-72.5 18.5q-53 0 -103.5 -23t-89 -53.5t-60.5 -60t-18 -42.5q7 -19 31 -29l-14 2v0z" />
    <glyph glyph-name="P" unicode="P" horiz-adv-x="382" 
d="M324 334q17 -3 33.5 -8t28.5 -15.5t19 -27t6 -40.5q-1 -22 -14.5 -51t-37.5 -55.5t-58 -44.5t-76 -18q-26 0 -46 10t-20 37q0 4 5 17t17.5 27t33.5 25t53 13q-21 -5 -38.5 -14.5t-30 -21.5t-20 -24.5t-7.5 -22.5q0 -14 13 -20t26 -6q29 0 60.5 17t58 43.5t44 57.5
t17.5 58q0 29 -26 41t-60 12q-14 -11 -29 -25.5t-29 -30t-26 -30.5t-19 -26q-12 -17 -29 -42.5t-33 -53t-27 -54.5t-11 -48q0 -8 4 -11.5t8.5 -5.5t8.5 -2.5l4 -0.5q0 -1 -5 -3t-13 -2q-11 0 -21.5 7.5t-10.5 27.5q0 10 2 15q10 44 27 77t39 71q8 14 20.5 31.5t26.5 36
t29 35.5t29 30q-9 0 -28.5 -6t-43.5 -16.5t-49 -25t-46 -31t-34.5 -34.5t-13.5 -36q0 -5 4 -8.5t9 -6.5t9 -5t4 -5q-27 5 -41 15.5t-14 30.5q0 14 8.5 27.5t21.5 26t29 22.5t30 18q57 29 99.5 40.5t78.5 12.5q12 8 22 11t18 4q14 1 19.5 -7t-8.5 -12z" />
    <glyph glyph-name="Q" unicode="Q" horiz-adv-x="415" 
d="M17 210q9 22 33.5 42t46.5 33q69 40 119 52t91 12q67 0 96 -29.5t29 -74.5q0 -36 -15.5 -71t-43.5 -66.5t-66.5 -56.5t-83.5 -40q37 -5 66.5 -11.5t41.5 -10.5q20 -7 28 -11t8 -5t-3 -1q-6 0 -18 3q-32 8 -72.5 12t-78.5 4q-17 0 -37 -1t-38 -3.5t-30 -6t-12 -8.5
q0 -1 1 -2q0 -1 1 -2h-1q-2 0 -9 7.5t-7 16.5q0 5 5.5 11.5t19.5 6.5q-15 11 -23 28.5t-8 37.5q0 27 13 53t34 47t47 35t52 18q-22 -6 -44.5 -22.5t-41 -37.5t-30 -45t-11.5 -46t14 -41.5t49 -19.5q31 0 77 20t89 54t73.5 77.5t30.5 91.5q0 42 -27.5 60t-75.5 14
q-52 -4 -100 -25t-85 -47.5t-58.5 -52t-20.5 -38.5q1 -11 8 -16.5t21 -10.5q-28 -2 -43.5 9.5t-15.5 35.5q0 8 5 21z" />
    <glyph glyph-name="R" unicode="R" horiz-adv-x="390" 
d="M264 333q8 0 12 2t7.5 5t8.5 6.5t15 6.5q14 4 21.5 -4t7.5 -12q0 -2 -1 -3q34 -6 54 -28t20 -58q0 -28 -13 -53.5t-37 -45.5t-59 -32t-79 -12q-14 0 -29 4t-25 10q8 -8 14.5 -20t13.5 -21q13 -17 31 -38.5t38.5 -40t41.5 -32t39 -14.5q12 -1 16.5 4.5t4.5 13t-2 15
t-3 10.5q-1 2 6.5 -8t6.5 -24t-11.5 -26t-29.5 -12t-39 12t-39.5 31.5t-38 45.5t-33.5 54q-8 13 -14.5 25t-17.5 25q-15 -26 -29.5 -56t-14.5 -50q0 -8 4 -12t9 -6q5 -3 13 -3q0 -1 -5 -3t-13 -2q-11 0 -22 8t-11 28v6.5t2 8.5q10 43 27 74.5t39 69.5q9 15 22.5 34.5t29 39
t32 37t30.5 29.5q-10 -3 -31.5 -10.5t-47 -18.5t-52 -25t-48 -30.5t-34 -34.5t-10.5 -37q2 -11 9.5 -16t16.5 -9q-26 0 -40.5 14t-14.5 31q0 24 16 44t40 36t54 28t58 20.5t50.5 13t33.5 5.5zM319 324q-15 -9 -31.5 -24.5t-32 -33t-28.5 -34t-21 -27.5q3 1 9 3.5l12 5
t12 4.5t9 1q-8 -4 -22.5 -11.5t-19.5 -12.5q-13 -10 -22 -22t-18 -29q0 -19 35 -23q25 -3 55.5 7.5t57.5 29.5t47 44t23 50q2 13 0.5 24.5t-8.5 20.5t-20.5 16t-36.5 11z" />
    <glyph glyph-name="S" unicode="S" horiz-adv-x="304" 
d="M249 360q31 -4 48 -18t23 -32t1 -37t-18 -33t-34 -20t-47 2q-4 1 -8 4t-6.5 6t-2.5 5t3 0q23 -15 44 -5t33.5 29.5t13 42t-16.5 33.5q-14 8 -27 7.5t-31 -4.5t-39.5 -19.5t-33 -35.5t-6.5 -41t40 -37q43 -20 63 -43t22.5 -46t-9.5 -45t-31 -40q-39 -36 -82 -45.5
t-86 -0.5q-33 7 -47 28t-11 45.5t21 46.5t48 32q23 7 41.5 3.5t30 -15t13 -30t-9.5 -42.5q5 29 -3 43.5t-22.5 19t-32.5 0.5t-33 -13q-20 -12 -29.5 -26t-10 -27t6 -24.5t18.5 -18.5q18 -11 40 -12t44.5 5.5t44.5 20.5t41 35q27 30 29.5 53t-7.5 40.5t-27.5 28.5t-31.5 17
q-20 8 -35 20t-23 26t-7 30.5t13 33.5q21 29 56.5 43.5t69.5 9.5z" />
    <glyph glyph-name="T" unicode="T" horiz-adv-x="185" 
d="M54 152q-20 6 -30.5 18t-10.5 27q0 32 25.5 56t62.5 41t79 26.5t76 13.5q3 7 11 13t16.5 8t14.5 -1t4 -15q8 0 21.5 0.5t21.5 0.5q20 0 47.5 -1t52 -6t41.5 -16.5t17 -32.5q0 -29 -38 -57q-1 1 -1 3v1q26 28 26 50q0 24 -30 34t-83 10q-21 0 -44.5 -1.5t-48.5 -6.5
q-23 -19 -44.5 -45.5t-35.5 -46.5q-15 -20 -30.5 -48t-29 -57.5t-22 -57.5t-8.5 -48t19 -20h7q0 -2 -5.5 -4.5t-13.5 -2.5q-11 0 -22 8.5t-11 28.5q0 30 14 69t35.5 79t46.5 76t48 62q-31 -8 -65 -20.5t-62 -29.5t-46 -38t-16 -46q1 -8 6 -14t19 -8v-4l-14 2v0z" />
    <glyph glyph-name="U" unicode="U" horiz-adv-x="471" 
d="M378 29q-2 -6 -2.5 -17.5t7.5 -12.5q16 -2 31 11t27.5 32t21.5 39t14 32q1 -11 -7 -33t-21.5 -43.5t-31.5 -36.5t-36 -12q-21 3 -29.5 14t-9 26t6 33t15 35t17 31.5t12.5 23.5q-21 -24 -46.5 -52.5t-51.5 -52.5t-50.5 -40.5t-43.5 -16.5q-17 0 -30 11.5t-13 37.5t17 64
q7 17 18.5 41t23.5 50.5t23.5 53t18 48t6.5 34.5t-10 14q-13 0 -36 -7.5t-49 -20.5t-53 -30t-47 -35t-30 -36.5t-4 -34.5q3 -8 12 -13.5t9 -12.5q-25 5 -37 20t-12 32q0 27 15.5 49t39.5 38.5t52.5 28.5t54.5 19.5t46 10.5t26 3q20 -2 30 -10t13 -20.5t1 -29t-5 -34.5
q-1 -8 -8.5 -27.5t-18 -44t-22 -51.5t-21 -50.5t-16 -40t-6.5 -20.5q0 -8 3 -13t11 -5q16 0 40.5 16.5t53.5 43t59.5 60.5t57.5 68q25 51 39.5 83t14.5 48q0 9 -8 10q2 0 4.5 0.5t4.5 0.5q17 0 24 -8.5t7 -19.5q0 -9 -5 -23t-11 -28.5t-11.5 -25.5l-6.5 -13
q-9 -20 -21.5 -45.5t-25.5 -51.5t-24 -51t-17 -43z" />
    <glyph glyph-name="V" unicode="V" horiz-adv-x="374" 
d="M399 354q29 0 42.5 -15.5t9.5 -44.5q-2 -10 -18 -32.5t-38.5 -50.5t-48.5 -58t-49 -55q-17 -18 -33.5 -37.5t-32.5 -35.5t-32.5 -26.5t-32.5 -10.5q-17 0 -30 12t-13 38q0 27 17 68q9 22 24 54.5l30 65t26.5 60t14.5 39.5q0 7 -1.5 12.5t-7.5 7.5q-11 2 -34 -4t-50 -18.5
t-55 -29t-49 -34.5t-32.5 -36.5t-5.5 -34.5q4 -10 13 -16t9 -13q-25 6 -37 21.5t-12 33.5q0 28 17 49.5t42.5 37t55.5 26t56.5 17t45.5 9t22 2.5q28 0 40 -13.5t12 -33.5q0 -14 -3.5 -27t-8.5 -23q-3 -7 -16 -34.5t-28 -60.5t-29 -65t-20 -49q-5 -15 -5 -24q0 -18 14 -18
q7 0 16 3.5t22.5 14t32 30t44.5 51.5q36 45 61.5 79t41.5 60t23.5 45t7.5 35q0 11 -5.5 17.5t-22.5 6.5q-2 0 -3 -0.5t-3 4.5q5 0 8.5 0.5t7.5 0.5z" />
    <glyph glyph-name="W" unicode="W" horiz-adv-x="567" 
d="M576 352q29 0 44 -12t7 -47q-3 -11 -18.5 -37.5t-39 -60.5t-52 -71t-56 -67.5t-51.5 -50.5t-38 -20q-19 0 -33 16.5t-14 46.5q0 29 19 71.5t51 108.5q-12 -19 -27.5 -44t-32.5 -52t-34.5 -52.5t-34 -46t-31.5 -33t-27 -12.5q-19 0 -34 17.5t-15 47.5q0 25 11 48
q10 22 25.5 55.5t30.5 66.5t26.5 60.5t13.5 37.5q0 6 -2.5 11.5t-7.5 6.5q-14 3 -38 -3t-51.5 -18t-55 -29t-48 -35t-32 -36.5t-5.5 -34.5q3 -8 10 -14t14 -14q-25 5 -37.5 21t-12.5 34q0 29 17.5 50.5t43.5 37.5t57 26.5t58 16.5t46 8.5t21 2.5q28 0 40 -13.5t12 -33.5
q0 -13 -3.5 -27t-8.5 -25l-11.5 -23t-19.5 -39.5t-23.5 -47.5t-23 -47.5t-17 -39.5t-6.5 -22q0 -12 7 -21t18 -9q16 0 42.5 32t56.5 77.5t60.5 94t56.5 81.5q16 20 30 16t18 -26q-8 0 -16 -5t-14 -18q-9 -17 -24 -49.5t-29.5 -67t-25 -65.5t-10.5 -46q0 -11 3 -21.5
t13 -10.5q12 0 32.5 20.5t45 52.5t51 70t49.5 74q26 40 38.5 66.5t12.5 42.5q0 10 -8.5 16t-16 9t-9 3.5t12.5 0.5z" />
    <glyph glyph-name="zero" unicode="0" horiz-adv-x="274" 
d="M229 342q26 -16 36 -44.5t2 -85.5q-5 -37 -20.5 -76.5t-40.5 -72.5t-58.5 -54t-73.5 -21q-13 0 -26.5 5t-23 16.5t-14.5 30.5t-1 46q3 25 14 48q-28 6 -25 46q4 28 25 58t51 55t63.5 41t61.5 16q17 0 30 -8zM13 167q-1 -11 3.5 -17t9.5 -10q15 32 38.5 54.5t44.5 29.5
q-14 -7 -27 -22.5t-24.5 -35.5t-19.5 -42.5t-11 -43.5q-10 -66 35 -75q30 -6 60.5 15.5t55 57.5t41.5 78t22 77q13 107 -37 107q-25 0 -56.5 -19.5t-60.5 -47.5t-50 -57.5t-24 -48.5z" />
    <glyph glyph-name="one" unicode="1" horiz-adv-x="236" 
d="M213 351q11 5 16 0t0 -11q-21 -28 -46.5 -59.5t-42.5 -57.5q-27 -42 -55 -90t-44 -93q-8 -22 -5 -35.5t23 -11.5q4 0 1.5 -2t-9 -3t-15 0t-15.5 8q-6 6 -9 16.5t0 25.5q11 44 30 83t41 77q3 6 12 19t20.5 28.5t23 30t19.5 22.5q-13 -12 -30 -24.5t-34.5 -22.5t-34.5 -14
t-29 2q-14 7 -20 13.5t-6.5 10.5t2 4.5t4.5 -3.5q9 -16 36.5 -7t60 28t62.5 39t44 27z" />
    <glyph glyph-name="two" unicode="2" horiz-adv-x="225" 
d="M232 301q1 -19 -7.5 -45t-23.5 -54t-34 -56t-39 -52t-38.5 -42t-31.5 -25q57 4 83.5 -6.5t35 -23t5.5 -21t-3 -0.5q0 14 -24 20t-53 8t-54 1t-29 -1q-9 0 -16.5 -2.5t-12.5 -2.5q-8 0 -10 5t0 10t8.5 7.5t16.5 -1.5q15 -7 40 14.5t52 57.5t52 80t39.5 82t15 64.5
t-21.5 27.5q-21 1 -42 -14.5t-37.5 -37t-27 -43.5t-10.5 -35q0 -5 2.5 -8.5t2.5 -5.5v-1q-3 0 -14 12t-11 27q0 17 14 38t35 39t46 29.5t47 8.5q6 -1 13.5 -3.5t14 -8.5t11.5 -16.5t6 -25.5z" />
    <glyph glyph-name="three" unicode="3" horiz-adv-x="234" 
d="M215 353q24 -3 36.5 -14.5t15.5 -28t-2.5 -35.5t-18.5 -36q-13 -18 -36.5 -34t-52.5 -27v-2q27 -10 38.5 -29.5t9.5 -42t-16 -46t-36.5 -40.5t-52.5 -26t-65 -2q-29 6 -36.5 25t-9.5 41q-3 29 3 32t4 -20q0 -36 16 -50.5t39 -13.5t48.5 13t43.5 29q19 17 30.5 36.5
t11.5 36t-13 27.5t-42 13q-10 1 -21 -1t-20 -1q-4 2 -2.5 8t6 11.5t10 9t9.5 2.5q22 1 42.5 11.5t40.5 27.5q40 36 41.5 66.5t-30.5 41.5q-17 6 -39 0.5t-44 -17.5t-41 -27.5t-30 -28.5q-5 -5 3 10.5t28 35t53 35t79 10.5z" />
    <glyph glyph-name="four" unicode="4" horiz-adv-x="300" 
d="M280 97l13 -6.5t8 -4.5l6 -3q-14 6 -40.5 12t-61.5 10q-11 -22 -21.5 -50t-10.5 -44q0 -8 4 -11.5t8.5 -5.5t8.5 -2.5l4 -0.5q0 -1 -5 -3t-13 -2q-10 0 -21 8t-11 28q0 19 8.5 44.5t16.5 42.5q-15 1 -33 3.5t-36.5 3.5t-37 0.5t-33.5 -4.5q-14 -4 -23 -1t-11 8.5t3 11.5
t20 8q12 1 31.5 23t38.5 52.5t33 63.5t14 57q0 6 -3 9q-13 -3 -27 -11t-25 -16t-18.5 -14l-7.5 -6q0 3 8 12.5t19.5 19t24 17.5t20.5 8q31 0 31 -35q0 -49 -27.5 -97t-66.5 -82q23 -2 52 -5.5t61 -9.5q4 7 13 24.5t21 39t25.5 45t26 42.5t22.5 31.5t16 12.5q13 0 13 -11
q0 -6 -12 -28.5t-29 -51.5t-35 -59t-29 -51q20 -5 37 -10t31 -12z" />
    <glyph glyph-name="five" unicode="5" horiz-adv-x="407" 
d="M411 360q-16 -21 -38.5 -27t-47.5 -4.5t-50 6.5t-46 6q-9 0 -24 -15.5t-31 -36t-29.5 -40.5t-19.5 -29q11 7 28.5 15t45.5 10q42 3 63 -21t19 -56q-2 -28 -13 -59.5t-33 -58.5t-54 -44.5t-74 -17.5q-15 0 -34.5 3t-36.5 10.5t-29 21.5t-10 37q1 9 3.5 17.5t8.5 16.5
l3 3.5t7.5 7.5t9 7.5t8.5 3.5q1 0 -1 -2t-3 -2q-13 -12 -20.5 -24.5t-8.5 -24.5q0 -9 5.5 -19t16 -18t25.5 -13t35 -5q32 0 62 14t53 36.5t38 51t18 57.5q3 28 -9 42.5t-31 19t-41 -0.5t-40 -15q-22 -13 -40.5 -27t-20.5 -34q0 -4 2.5 -3t5.5 2.5t6 2t3 -2.5
q-15 -13 -26.5 -9.5t-6.5 20.5q4 18 23 49t42 62t45 54.5t31 25.5q18 4 46 0.5t58 -7t58.5 -2.5t48.5 16z" />
    <glyph glyph-name="six" unicode="6" horiz-adv-x="239" 
d="M166 283q-26 -25 -50.5 -54t-43.5 -58.5t-31 -58t-13 -53.5q0 -38 20.5 -51t47.5 -7.5t53.5 24.5t37.5 46q12 30 8 54.5t-19.5 36t-39 8t-50.5 -28.5q19 34 45.5 46t49.5 5.5t36.5 -30.5t6.5 -61q-5 -29 -22 -51.5t-39.5 -37.5t-47.5 -21t-47.5 -2t-38.5 18.5t-20 41.5
q-5 27 4 60t27.5 67.5t44 68t54.5 59.5q23 20 49.5 33.5t49 17t38 -5t16.5 -32.5q1 -21 -4 -20.5t-5 12.5q0 16 -7 24.5t-21.5 6.5t-36.5 -15.5t-51 -41.5h-1z" />
    <glyph glyph-name="seven" unicode="7" horiz-adv-x="290" 
d="M77 339q-13 2 -21.5 4.5t-9.5 4t6.5 2t26.5 -1.5t43 -1.5t48 2t45.5 3t34.5 1.5q5 -4 5.5 -9t-1 -10.5t-4.5 -9.5t-5 -5q-5 -3 -20.5 -22t-33 -42.5t-34 -46.5t-23.5 -33q6 0 12.5 0.5t12.5 0.5q33 0 55 -2.5t35.5 -5.5t20 -5.5t7.5 -2.5q0 -1 -11.5 -1h-40.5
q-56 0 -108 -11q-9 -15 -19 -33t-19 -36.5t-14.5 -35.5t-5.5 -30q0 -8 3.5 -12t8.5 -6q5 -3 13 -3q0 -1 -5 -3t-13 -2q-10 0 -21 8t-11 28q0 14 6 31t11 31q-11 0 -23 6t-12 19t9 23t22 17t26 11.5t20 7.5q8 14 23 36.5t32.5 46.5t34.5 45t30 33q-6 -1 -20.5 -0.5t-34 1.5
t-41 3t-40.5 5zM53 91q5 11 10 21.5t10 21.5q-15 -7 -24 -15t-10 -18q0 -5 4.5 -7t9.5 -3z" />
    <glyph glyph-name="eight" unicode="8" horiz-adv-x="317" 
d="M110 293q16 27 44.5 42t58.5 18.5t55.5 -4t35.5 -26.5q9 -17 5 -36.5t-18 -37.5t-37 -33t-51 -22q30 -18 38.5 -40.5t5 -44t-14 -39.5t-17.5 -27q-26 -28 -55.5 -41t-58.5 -13q-35 0 -56.5 14t-29.5 35t-3 47t22 49.5t45.5 42.5t68.5 27q-20 9 -30 21t-13.5 24.5t-1.5 24
t7 19.5zM217 114q4 26 -10.5 44t-30.5 26q-41 -5 -71 -21.5t-48 -38.5t-24.5 -45t0 -42t26 -29.5t53.5 -6.5q17 1 34.5 10.5t32 25t25 35t13.5 42.5zM276 291q2 21 -14 34.5t-39.5 16t-48 -9.5t-39.5 -43q-12 -24 -1 -46.5t41 -36.5q24 3 42.5 12t31.5 21t19.5 25.5
t7.5 26.5z" />
    <glyph glyph-name="nine" unicode="9" horiz-adv-x="293" 
d="M232 173q-42 -30 -73 -30.5t-49.5 17t-24 47t5 59.5t36.5 54.5t71 32.5q26 5 47 -4t31 -32q9 -19 9.5 -46t-7 -58t-23 -64.5t-40.5 -64.5q-27 -34 -63.5 -60.5t-71.5 -34.5q-15 -3 -28.5 1t-21.5 13t-8 21.5t11 26.5q-10 -30 3.5 -44.5t38.5 -6.5q30 10 59.5 37t55.5 60
q15 20 23.5 39.5t18.5 36.5zM228 178q10 21 18 50.5t7 55.5t-13 44t-43 15q-20 -2 -41 -23t-32 -52q-9 -21 -7 -46.5t14.5 -43t36.5 -21t60 20.5z" />
    <glyph glyph-name="a" unicode="a" 
d="M106 45q10 -3 21 6.5t21 24t18 31t13 28.5q-7 -23 -18 -50t-28 -41q-4 -3 -12 -7t-16 -2q-13 -2 -22 6q-6 6 -8.5 18t5.5 37q-8 -13 -21 -28.5t-24 -23.5q-23 -17 -38 -8.5t-17 21.5q-2 17 3.5 34t15 32t22.5 26.5t25 17.5q27 13 50 11t35 -10q9 -7 9.5 -21t-18.5 -28
q-3 -5 -8.5 -15.5t-9.5 -22.5t-5 -22t7 -14zM98 136q5 5 16 4t13 -6q6 8 4 15t-9.5 10.5t-19.5 2.5t-25 -7q-14 -6 -26 -17.5t-22 -25t-16 -27.5t-6 -26q0 -10 5.5 -12.5t18.5 7.5q9 7 18.5 17.5t18.5 22t16 22t12 16.5v1z" />
    <glyph glyph-name="b" unicode="b" horiz-adv-x="132" 
d="M131 282q6 -3 5 -13.5t-8.5 -25.5t-20.5 -33t-31 -36q2 2 4 2t4 1q14 3 22 -4t10 -18q2 -18 -5.5 -39.5t-21.5 -40t-33 -31t-39 -10.5q-5 0 -13 2t-14 7.5t-9.5 15.5t0.5 26q3 12 13.5 35.5t26 50.5t34.5 54t39 46q12 12 22 13.5t15 -2.5zM82 168q-11 2 -28.5 -17
t-35.5 -43l-1 -1q-3 -7 -9 -17.5t-9.5 -20.5t-2.5 -17.5t12 -7.5q7 0 17.5 5t19.5 13q13 12 24 29.5t16.5 34t5.5 28.5t-9 14zM65 175q21 22 32 37t21 33q4 7 3.5 9.5t-5.5 -1.5q-19 -23 -40 -51t-38 -56q8 8 15.5 16t11.5 13z" />
    <glyph glyph-name="c" unicode="c" horiz-adv-x="111" 
d="M71 115q0 1 6.5 10.5t8.5 12.5q11 16 7 22.5t-23 -5.5q-11 -6 -24 -17.5t-23.5 -25.5t-16 -28.5t-0.5 -27.5q5 -15 21 -17t32 5q9 4 17.5 12.5t15.5 19t12.5 21t9.5 18.5q0 -3 -3.5 -13.5t-10 -22.5t-16.5 -24t-23 -18q-9 -4 -21.5 -6t-24.5 0t-22 8.5t-14 19.5
q-5 17 0.5 34.5t15.5 32t21.5 25.5t18.5 16q19 13 37 13t26 -8q8 -9 2 -26.5t-27 -31.5z" />
    <glyph glyph-name="d" unicode="d" horiz-adv-x="162" 
d="M119 55q9 7 19 18t19 23.5t16.5 24t11.5 20.5q-4 -12 -11 -26t-16.5 -28t-19.5 -25.5t-20 -18.5q-17 -11 -32 -4q-15 8 -16.5 22.5t1.5 27.5l3 11q-5 -7 -16.5 -23t-23.5 -27q-23 -20 -39 -14t-18 20q-2 17 3.5 34.5t15 32.5t22.5 26.5t25 17.5q21 10 37 11t30 -4
q6 10 15 24.5t18 29.5t18 27.5t16 18.5q21 18 30 10.5t-5 -23.5q-19 -22 -34 -46.5t-31 -50.5q5 -9 0 -22.5t-25 -24.5q-24 -47 -20 -63q1 -5 5 -6.5t8 -0.5t8 3.5t6 4.5zM26 53q18 16 31 37t28 35q4 11 9.5 20.5t11.5 20.5q-7 1 -14 -1t-16 -6q-14 -6 -26.5 -18t-22.5 -26
t-16.5 -29.5t-8.5 -29.5q-2 -10 5 -12t19 9zM116 127q16 12 14 25z" />
    <glyph glyph-name="e" unicode="e" horiz-adv-x="112" 
d="M7 33q-19 0 -25.5 10t-6.5 24q0 19 9.5 38.5t24 35t33 26t36.5 11.5q10 1 18 -4t8 -16q0 -14 -12 -27q-2 -3 -8.5 -9t-17 -13t-25.5 -13.5t-34 -9.5q-4 -7 -5 -12t-1 -10q0 -17 20 -19q14 -1 30.5 8.5t30.5 24t25 30.5t15 27q-2 -18 -13 -36t-27.5 -33t-36 -24t-38.5 -9z
M21 105q-2 -2 -3.5 -4.5t-5.5 -8.5q41 14 61 33t20 32q0 5 -3 5q-12 0 -31 -17t-38 -40z" />
    <glyph glyph-name="f" unicode="f" horiz-adv-x="76" 
d="M34 199q14 28 33 58t36 49q7 7 14.5 5.5t12.5 -8t5 -14.5t-8 -13q8 14 2 12t-13 -10q-8 -10 -14 -18.5t-11.5 -17.5t-11.5 -19.5l-14 -24.5q45 0 60.5 -0.5t9.5 -2.5q-4 -2 -15.5 -3t-23.5 -2t-22.5 -2.5t-13.5 -2.5q-2 -1 -6 -9t-8 -17t-7.5 -17.5t-4.5 -9.5
q-6 -12 -13.5 -32t-13.5 -40.5t-9.5 -37.5t-0.5 -22q-13 4 -15.5 18.5t0.5 34t10.5 41.5t15 41t13 32t5.5 16q0 1 -5 1.5t-11.5 0.5t-12.5 0.5t-9 0.5q-4 1 -2 3.5t3 2.5q5 1 20 3t24 3v-1l1 2v0z" />
    <glyph glyph-name="g" unicode="g" horiz-adv-x="154" 
d="M93 44q10 -3 21.5 6.5t22 24.5t19 31.5t13.5 28.5q-3 -11 -8 -24t-11 -26t-13.5 -24t-16.5 -18q-4 -3 -12 -7t-16 -2q-5 -1 -7.5 -0.5t-6.5 3.5l-16 -26q-5 -8 -13 -21.5t-18.5 -27.5t-24.5 -25.5t-31 -14.5q-20 -5 -27 4.5t-6 23.5q0 12 9.5 27.5t23.5 29t30.5 22
t32.5 8.5q-15 -2 -30 -12t-27 -23t-20 -27t-9 -23q-2 -10 0 -17t12 -5q13 1 27 16.5t27.5 36.5t25.5 45t21 44q0 3 2 9l5 14q-8 -13 -17.5 -27.5t-21.5 -23.5q-11 -8 -20.5 -9.5t-17 1t-12 8.5t-5.5 12q-2 17 3.5 34.5t15 32.5t22.5 26.5t25 17.5q27 13 47 11t32 -10
q9 -7 9.5 -21.5t-18.5 -28.5q-18 -35 -21.5 -51t1.5 -22q1 0 -1 0t0 -1zM90 135q5 5 16 4t13 -6q11 16 -3 25t-41 -4q-14 -6 -26 -17.5t-22 -25t-16 -27.5t-6 -26q0 -10 5.5 -12.5t18.5 7.5q9 7 17.5 17.5t16 22t14 22t11.5 16.5v1z" />
    <glyph glyph-name="h" unicode="h" horiz-adv-x="147" 
d="M79 56q0 -8 5 -10q10 -3 21 6t21 24t18 31.5t13 28.5q-7 -23 -18 -50t-28 -41q-7 -5 -16 -8t-17 -1.5t-14 7.5t-7 19q-2 17 4 36t14 35q9 18 20 35l-1 1h-3.5t-3.5 -1q-15 -11 -36 -26t-36 -38q-8 -12 -16 -32.5t-3 -35.5q-18 4 -18 25t11 49.5t28 60t34 56.5
q21 32 41.5 46.5t31.5 9.5q7 -3 9 -9.5t0.5 -13t-5 -13.5t-6.5 -12q-11 -15 -30.5 -38t-39.5 -43q20 15 31.5 19.5t13.5 4.5q11 0 19 -7t3 -19l-6.5 -11.5t-14 -27.5t-13.5 -32t-6 -25zM102 246q-7 -8 -16.5 -21t-19.5 -28t-19.5 -30t-16.5 -27l20 22.5t24 28t23 28.5t17 23
q8 13 3.5 14.5t-15.5 -10.5z" />
    <glyph glyph-name="i" unicode="i" horiz-adv-x="78" 
d="M16 158q5 7 13 10t15 3t11 -2.5t1 -7.5q-14 -22 -27 -43.5t-20 -40.5q-6 -15 -5.5 -23.5t5 -11t12 0.5t14.5 11q7 7 15 18t16.5 22.5t15.5 22.5t12 19q-8 -23 -23.5 -49.5t-32.5 -41.5q-14 -11 -28 -10.5t-22 8.5q-11 12 -5 40q4 14 9.5 27t10.5 24q6 12 13 24zM53 234
q8 4 17 3t14.5 -5.5t7 -10.5t-5.5 -11q4 12 -0.5 12t-12 -6t-15.5 -13.5t-11 -9.5q-4 -2 -5.5 2.5t-1 12t3.5 15t9 11.5z" />
    <glyph glyph-name="j" unicode="j" horiz-adv-x="71" 
d="M-33 -12q-11 -16 -28.5 -36.5t-50.5 -28.5q-20 -5 -28 4t-6 23q1 9 9.5 20t20.5 21t27 16t31 6q-15 -2 -28 -8.5t-23 -15.5t-17 -19t-10 -19q-3 -10 -0.5 -16t13.5 -4q18 3 34.5 22.5t31 46t25.5 53t17 43.5q4 12 9 24.5t10 22.5q5 11 11 23q6 8 13.5 10t13.5 0.5t9 -6
t0 -9.5q-9 -15 -17.5 -30t-15.5 -29q-2 -6 -4.5 -12t-5.5 -12v-1q-5 -15 -4 -23.5t5.5 -11t11.5 0.5t14 11q6 7 14 18t15.5 22.5t14 22.5t11.5 19q-8 -23 -21.5 -49.5t-30.5 -41.5q-11 -10 -24 -11t-22 6q-7 -16 -12.5 -28.5t-12.5 -23.5zM50 233q8 4 17 3t14.5 -5.5
t7 -10.5t-5.5 -11q4 12 0 12t-11.5 -6t-15.5 -13.5t-12 -9.5t-5.5 2.5t-1 12t3.5 15t9 11.5z" />
    <glyph glyph-name="k" unicode="k" horiz-adv-x="126" 
d="M24 127q12 9 14 19q18 16 37.5 25t26.5 8q22 0 22 -15q1 -11 -7 -24t-22.5 -24t-35 -17.5t-44.5 -4.5q6 -11 14 -23t17 -22.5t18.5 -19t18.5 -11.5q10 -3 20 -2.5t23 19.5q-11 -22 -28 -24.5t-28 0.5q-23 8 -39.5 26t-26.5 39l-2 -4q-4 -14 -5.5 -24t1.5 -15
q-13 4 -17 14.5t-3 24.5q0 3 1 5v3q7 31 27.5 68.5t44.5 75.5q16 26 23.5 35t11.5 12q11 9 20 11.5t14.5 -0.5t5 -9.5t-8.5 -13.5q-17 -16 -31.5 -39t-28.5 -43l-19 -29v4zM13 98q1 0 1 0.5t1 0.5q16 0 34 11t31.5 24.5t20.5 25.5t2 13q-3 0 -12.5 -4t-21.5 -11t-24.5 -16
t-19.5 -17l-13 -26q1 0 1 -1zM38 148v-2l-2 -2z" />
    <glyph glyph-name="l" unicode="l" horiz-adv-x="75" 
d="M84 263q18 17 33 20.5t18 -10.5q2 -9 -4.5 -26t-20 -37t-33.5 -40.5t-45 -37.5q0 1 6 7.5t12 12.5q12 12 24 26t21.5 26.5t15.5 23t6 16.5q0 3 -1 3q-6 0 -16.5 -11t-23 -28t-25 -39t-23 -43t-17 -40t-6.5 -31q0 -11 7 -11q9 0 20.5 10.5t22.5 25t20.5 30.5t14.5 27
q-3 -15 -12 -32.5t-21 -33.5t-25.5 -26.5t-26.5 -10.5q-11 0 -19.5 5.5t-7.5 20.5q1 18 11 46t25 57.5t33.5 56t36.5 43.5z" />
    <glyph glyph-name="m" unicode="m" horiz-adv-x="215" 
d="M155 52q0 -3 2 -7q7 -6 17.5 3.5t21 25t19 33t13.5 29.5q-2 -9 -6 -22t-10 -26t-13.5 -24.5t-16.5 -18.5q-3 -3 -9.5 -6t-13.5 -4q-14 -2 -22 5t-8 19q0 18 6 37t13.5 35t13.5 26t6 9q0 1 -1 1q-2 0 -3 -1q-10 -9 -25.5 -23.5t-29.5 -31.5t-24.5 -36t-10.5 -35q0 -5 2 -7
q-11 2 -15.5 10.5t-4.5 19.5q0 20 13.5 45.5t26.5 56.5q0 1 -1 2q-2 1 -13 -8.5t-25.5 -24.5t-28.5 -31.5t-21 -27.5q-5 -13 -6 -20.5t-1 -13.5t2 -8q-11 2 -16 10.5t-5 19.5q0 9 5 27.5t13.5 38t19 34t22.5 14.5t12 -8q0 -3 -4.5 -11.5t-10.5 -19t-12 -20.5t-9 -17
q28 37 52 57t30 20q1 0 4 0.5t6 -1t5.5 -6t2.5 -13.5t-9.5 -25t-14.5 -30q31 40 53.5 57t26.5 17q11 0 18.5 -7t7.5 -15q-12 -23 -22 -43q-8 -17 -15 -34t-7 -26z" />
    <glyph glyph-name="n" unicode="n" horiz-adv-x="138" 
d="M80 55q0 -9 4 -10q9 0 19.5 10t20 24t17 29.5t12.5 27.5q-7 -23 -18 -50t-28 -41q-6 -5 -15 -8t-17 -2t-14 7t-7 19t4 29t12 31t12.5 25.5t5.5 13.5v1q-4 0 -19 -13.5t-31 -32.5t-28.5 -39t-11.5 -33q0 -4 2 -8q-11 3 -16 11t-5 19q0 2 0.5 4t0.5 4q0 4 4.5 20.5
t12.5 35.5t19 34t23 15t12 -9q0 -2 -4.5 -10t-10.5 -18t-12 -21t-9 -18q31 41 56 58t27 17q11 0 18.5 -7t7.5 -15q0 1 -7 -11t-15 -28.5t-15 -33.5t-7 -27z" />
    <glyph glyph-name="o" unicode="o" horiz-adv-x="125" 
d="M69 59q6 0 14.5 6.5t17.5 16.5t16.5 21t11.5 20q-2 -11 -8.5 -23.5t-15 -23.5t-18.5 -18t-18 -7q-6 0 -8 1q-14 -11 -24.5 -16t-24.5 -5q-20 0 -28.5 11t-7.5 28t9.5 36.5t21.5 36t28.5 27.5t31.5 10q14 -1 26 -9t12 -30q0 -14 -8 -39.5t-28 -42.5zM48 69q0 12 10 21
t23 1q3 0 6.5 10.5t4.5 23t-2.5 23.5t-14.5 11t-23.5 -10.5t-23.5 -25.5t-17.5 -33t-4.5 -33q1 -9 6.5 -12t12.5 -2.5t14.5 4.5t12.5 9q-4 5 -4 13z" />
    <glyph glyph-name="p" unicode="p" horiz-adv-x="146" 
d="M-33 -40q-1 -7 -1.5 -13t-0.5 -11q0 -12 3 -16q-13 2 -19 12.5t-6 25.5q0 19 9.5 49t22.5 61t26 57.5t20 37.5q5 8 11.5 11.5t12.5 3.5q14 0 14 -11q0 -2 -2 -6t-4 -6q30 21 41 22.5t13 1.5q14 0 20 -8.5t6 -19.5q0 -15 -7.5 -35t-20.5 -38t-31 -31t-39 -13
q-12 0 -21 2.5t-14 16.5q-13 -29 -22 -55t-11 -38zM35 126q-8 -14 -15.5 -30t-15.5 -33q1 -10 5.5 -13.5t9.5 -3.5q20 0 36.5 15t28.5 34.5t18.5 38.5t6.5 26q0 9 -5 9q-7 0 -28 -12t-41 -31z" />
    <glyph glyph-name="q" unicode="q" horiz-adv-x="150" 
d="M41 -39q0 31 11.5 63.5t25.5 67.5q-8 -13 -20 -27t-23 -21q-22 -15 -37.5 -7.5t-17.5 20.5q-2 17 3.5 34t15 32t22.5 26.5t25 17.5q27 13 50 11t35 -10q9 -7 9.5 -21t-18.5 -28l-9 -18q-4 -8 -14.5 -32t-20.5 -52t-16 -55t-1 -40q-11 2 -15.5 13.5t-4.5 25.5zM98 136
q5 5 16 4t13 -6q6 8 4 15t-9.5 10.5t-19.5 2.5t-25 -7q-14 -6 -26 -17.5t-22 -25t-16 -27.5t-6 -26q0 -10 5.5 -12.5t18.5 7.5q9 7 18.5 17.5t18.5 22t16 22t12 16.5v1z" />
    <glyph glyph-name="r" unicode="r" horiz-adv-x="96" 
d="M27 202q7 6 15.5 5.5t14.5 -4.5t7.5 -10t-5.5 -11q2 7 -0.5 8.5t-6 0.5t-7.5 -4.5t-5 -7.5l-1 -1q7 0 12.5 -0.5t6.5 -0.5q13 -1 20 -10.5t2 -17.5q-3 -5 -8.5 -15t-11 -22l-11 -24t-8.5 -22q-4 -14 -3 -17.5t5 -2.5t8.5 5.5t6.5 7.5q19 22 32.5 43.5t19.5 35.5
q-2 -11 -9 -26t-16 -30t-19.5 -27.5t-19.5 -17.5q-10 -5 -21 -4t-13 21q-1 12 3.5 28t11 31t12.5 27.5t9 17.5q2 2 3.5 5.5t-1.5 5.5q-2 1 -6 2.5t-9 -3.5q-1 -1 -5 -6.5t-6 -10.5q-10 -22 -18 -39t-19 -28q4 8 13 29.5t13 38.5q2 10 4 26t10 24z" />
    <glyph glyph-name="s" unicode="s" horiz-adv-x="86" 
d="M-4 130q1 10 9.5 20t20.5 18t25.5 12.5t25.5 4.5q8 0 13 -9.5t5 -17.5q0 -2 -3 -6.5t-7.5 -9t-9.5 -8t-9 -3.5q-1 0 -1 1v1l4 3t8.5 7.5t8.5 9t4 7.5q0 2 -4 2q-6 0 -17.5 -4t-23.5 -11t-20.5 -15t-8.5 -15q0 -6 5 -11.5t11.5 -10.5t11.5 -11t5 -13q0 -2 -2 -8
q18 14 29.5 33.5t19.5 32.5q-2 -17 -13.5 -34.5t-26.5 -31t-30 -22t-24 -8.5q-10 0 -17 5.5t-7 15.5q0 8 3.5 14.5t5.5 7.5q-2 -2 -3.5 -7t-1.5 -9q0 -9 11 -9q13 0 26 9t13 19q0 5 -6 10.5t-13 12t-12.5 13.5t-4.5 15z" />
    <glyph glyph-name="t" unicode="t" horiz-adv-x="71" 
d="M28 52q9 6 18 16.5t17 22t14.5 23t10.5 20.5q-5 -11 -11 -25t-14 -27.5t-17.5 -24.5t-19.5 -17t-25 -4t-20 19q-2 8 0 22.5t8 25.5q-4 3 -5.5 10.5t0.5 14.5q2 22 17 35.5t33 19.5q14 22 29 46t30 41q10 11 18.5 13.5t14 0t5.5 -9.5t-7 -16q-14 -16 -26.5 -31.5
t-25.5 -34.5q14 1 31 3t35 3.5t34.5 1.5t29.5 -1q11 -2 12.5 -3t-12.5 -2q-13 0 -34 -3t-42.5 -6t-39 -6.5t-24.5 -5.5q-13 -19 -28 -43.5t-23 -44.5q-3 -6 -5 -15t-1 -15.5t6 -8.5t17 6zM-7 110q3 8 11 24t17 30q-13 -4 -19 -14t-8.5 -19.5t-2 -16t1.5 -4.5z" />
    <glyph glyph-name="u" unicode="u" horiz-adv-x="146" 
d="M62 105q23 28 36 67q2 5 7.5 5.5t11 -2.5t8 -9t-0.5 -15q-3 -7 -9 -20t-12.5 -27.5t-12 -29t-5.5 -24.5q0 -4 1 -5q5 -7 16 2t22.5 24.5t22.5 34t16 30.5q-8 -23 -20.5 -48.5t-30.5 -42.5q-5 -4 -12.5 -7.5t-15.5 -2.5q-9 1 -15.5 6.5t-7.5 17.5q-1 5 1 15.5t7 24.5
q-32 -38 -48.5 -51t-18.5 -13q-17 -3 -25 10.5t2 29.5q8 12 16 29.5t13.5 33.5t7 27t-4.5 11q-5 0 -0.5 1.5t11 0.5t13 -6.5t6.5 -20.5q0 -12 -7.5 -29.5t-16 -33.5t-15 -28.5t-3.5 -13.5q3 -2 9.5 2.5t15.5 13.5t19 20t19 23z" />
    <glyph glyph-name="v" unicode="v" horiz-adv-x="109" 
d="M61 105q5 7 10.5 16.5t9.5 18.5t4.5 16.5t-3.5 10.5q-3 2 0.5 4.5t9 4t11 1t5.5 -4.5q1 -8 -7.5 -28t-28.5 -45q-31 -38 -49 -51t-20 -13q-17 -3 -26 11q-5 7 -4 15t5 14q7 13 15 30t13.5 33t7.5 27t-4 11q-5 0 -1.5 1.5t9 0.5t11 -6.5t6.5 -20.5q1 -12 -5 -28t-13 -31
t-13 -26.5t-6 -14.5v-1q1 -3 7.5 1t16 12t20 19t19.5 23z" />
    <glyph glyph-name="w" unicode="w" horiz-adv-x="184" 
d="M135 105q11 15 18 31.5t7 25.5q0 5 -4 7q-2 1 -3 2q0 2 6 4t13 2q11 0 11 -10q0 -9 -9.5 -27.5t-27.5 -40.5q-31 -38 -49 -51t-20 -13t-3 -0.5t-3 -0.5q-8 0 -14 4t-6 13q0 7 2.5 16t7.5 18q-25 -28 -41.5 -39t-18.5 -11t-3 -0.5t-3 -0.5q-9 0 -16.5 7t-7.5 17q0 7 6 21
t12.5 30.5t12.5 32t6 24.5q0 6 -4 8q-2 1 -3 1q0 3 8 3q7 0 14.5 -5t7.5 -22q0 -12 -5.5 -28t-12.5 -31t-12.5 -26.5t-6.5 -14.5q-1 -4 3 -3.5t6 1.5q8 4 22 16.5t27.5 28.5t23.5 33t10 30q0 5 -2.5 7.5t-3.5 2.5q-3 0 -3 1h2q1 0 2 0.5t3 0.5t6 -1t7.5 -4t6 -8t1.5 -14
q-1 -12 -6.5 -26.5t-11.5 -28t-10.5 -23.5t-4.5 -13v-1q0 -1 2 -1q3 0 10 5t15.5 12.5t18 17.5t17.5 21z" />
    <glyph glyph-name="x" unicode="x" horiz-adv-x="105" 
d="M11 82q-5 -6 -11.5 -13.5t-12.5 -14.5t-9 -12.5t-1 -6.5q-4 0 -11 1t-7 9q0 6 6.5 15.5t14 18.5t14.5 16l9 9q-2 2 -4.5 8.5t-5 14.5t-4 16t-1.5 13q1 5 6.5 13.5t15.5 8.5q-3 -6 -2 -16.5t4 -20.5t6 -16.5t5 -4.5q6 6 14.5 16.5t17.5 21t16 17.5t9 6q1 -1 -3.5 -9.5
t-12.5 -20t-17 -24t-15 -21.5q5 -14 12 -30t14 -25q4 -5 12.5 5t17.5 23.5t15.5 25.5l6.5 12q0 -6 -7 -21t-16.5 -30t-20 -25t-18.5 -6q-10 5 -20 21.5t-14 25.5q-1 2 -3 0z" />
    <glyph glyph-name="y" unicode="y" horiz-adv-x="134" 
d="M56 105q11 15 19.5 30.5t14.5 34.5q1 5 7 5.5t11 -2.5t8.5 -9t0.5 -14q-1 -5 -7.5 -18t-12.5 -27t-9.5 -26.5t2.5 -15.5q6 -4 15 6t17.5 23.5t15 27t8.5 16.5q-1 -4 -4 -13.5t-8 -21t-11.5 -22.5t-13.5 -17q-13 -12 -32 -3q-2 -5 -5.5 -12t-7 -14.5t-7 -13.5t-4.5 -8
q-5 -8 -13 -21.5t-18.5 -27.5t-24.5 -25.5t-31 -14.5q-20 -5 -27 4.5t-6 23.5q0 12 9.5 27.5t23.5 29t30.5 22t32.5 8.5q-15 -2 -30 -12t-27 -23t-20 -27t-9 -23q-2 -10 0 -17t12 -5q12 1 26.5 18t28.5 41t27 50.5t22 47.5q2 8 4 12q-30 -38 -45.5 -51t-17.5 -13
q-17 -3 -26 11q-5 7 -4 15t5 14q7 13 15 30t13.5 33t7.5 27t-4 11q-5 0 -1.5 1.5t9 0.5t11 -6.5t6.5 -20.5q1 -12 -5 -28t-13 -31t-13 -26.5t-6 -14.5v-1q1 -3 7.5 1t15.5 12t19 19t19 23z" />
    <glyph glyph-name="z" unicode="z" horiz-adv-x="72" 
d="M72 46q22 -8 19.5 -9t-11.5 2q-33 9 -58 7.5t-44 -10.5q-6 -3 -11 4.5t-3 14.5q3 10 11.5 23.5t19 27.5t22.5 28.5t22 26.5q-8 -3 -20 -5t-22 -1t-14.5 6t1.5 17q3 6 4.5 1.5t7 -9.5t18 -6t39.5 13q14 4 20 -6t-5 -22q-5 -6 -16 -17.5t-23 -25t-22.5 -26.5t-14.5 -22
q26 5 48 -1.5t32 -10.5z" />
    <glyph glyph-name="X" unicode="X" horiz-adv-x="409" 
d="M338 3q11 -9 24 0.5t24 29t18 44.5t7 46q3 -23 0.5 -46.5t-10.5 -42.5t-22.5 -31.5t-36.5 -12.5q-28 0 -44.5 25.5t-36.5 88.5q-54 -45 -88.5 -70t-55 -37t-28.5 -14.5t-9 -2.5t-1 1l18 14t44 36t56.5 49t55.5 53q-11 41 -20.5 78.5t-20 66t-22.5 45.5t-28 17
q-14 0 -30 -18.5t-30 -44.5t-23.5 -54.5t-9.5 -48.5q0 -35 18.5 -47t42.5 -17q-3 0 -6.5 -0.5t-6.5 -0.5q-32 1 -53.5 13.5t-21.5 50.5q0 37 16 70.5t37.5 58t43.5 39t34 14.5q21 0 35.5 -14.5t26.5 -40.5t22 -62t21 -78q29 33 49.5 61t20.5 42q0 8 -4 9.5t-9 0.5t-10.5 -3
t-8.5 0q9 5 17.5 11t19.5 6q10 0 18 -11t8 -28q0 -12 -8 -26.5t-21 -30.5t-29.5 -32.5t-33.5 -31.5q14 -52 25.5 -82.5t25.5 -41.5z" />
    <glyph glyph-name="Y" unicode="Y" horiz-adv-x="411" 
d="M338 151q6 6 15.5 10.5t18.5 5.5t14.5 -4.5t3.5 -19.5q-3 -17 -14.5 -41t-26 -48.5t-28 -44.5t-19.5 -28q9 -2 19 -5t18.5 -8.5t14.5 -13.5t6 -18q0 -14 -11.5 -30t-23.5 -23q5 7 15.5 19t10.5 25t-7 21.5t-16.5 13t-19.5 6.5t-16 3q-25 -26 -57.5 -47t-72.5 -21
q-22 0 -42.5 6t-20.5 26q2 30 36.5 41t81.5 11q12 0 23 -0.5t24 -1.5q6 6 18.5 24t25.5 37t24 35.5l13 19.5q-13 -14 -29 -32.5t-34.5 -35.5t-39 -29.5t-42.5 -14.5q-16 -2 -27.5 8t-11.5 33q0 12 3.5 27.5t12.5 35.5q10 23 26 57.5t31.5 69t26.5 64t11 43.5q0 9 -10 9
q-12 0 -35 -6t-49.5 -16.5t-54 -25t-49 -30.5t-34.5 -33.5t-10 -34.5q2 -11 9 -18t17 -14q-26 10 -39 22t-13 33q0 23 16.5 42t42 34.5t55.5 26.5t57.5 18.5t47.5 11t25 3.5q26 0 38 -11.5t12 -31.5q0 -13 -4 -27t-9 -25q-3 -7 -11 -25t-18.5 -41.5t-21.5 -49.5t-20 -49
t-15 -39.5t-6 -21.5q0 -20 15.5 -20.5t39.5 14t52 42.5t54 66q7 11 8 16.5t-2.5 7.5t-9.5 0.5t-12 -3.5zM169 -85q24 8 45.5 23.5t39.5 33.5q-28 0 -53 -5t-43.5 -12t-29.5 -15.5t-11 -16.5q0 -6 12 -8.5t19 -2.5q6 0 11.5 1t9.5 2z" />
    <glyph glyph-name="Z" unicode="Z" horiz-adv-x="231" 
d="M311 -13l13 -6.5t8 -4.5l6 -3q-2 0 -9 3q-15 6 -42.5 11.5t-59.5 9t-66.5 5.5t-63.5 2q-32 0 -50.5 -7.5t-28.5 -7.5q-9 0 -9 8t11 19t42 14q14 13 32.5 34.5t39 46.5t40 52t35.5 51q3 5 12.5 18.5t19.5 30t19 33t11 26.5q-1 0 -2 -1l-22 -11t-32 -13.5t-39 -11.5t-43 -5
q-11 0 -26 2t-28 7t-22 15t-9 25q0 9 7 17t14.5 13.5t13.5 8t3 -0.5q-5 -5 -12.5 -11t-7.5 -14q0 -17 25.5 -25.5t60.5 -8.5q27 0 61 9.5t63 20.5q13 0 13 -19q0 -16 -18.5 -53.5t-47 -81t-61.5 -86t-62 -68.5q21 -2 49.5 -5t57.5 -8.5t56.5 -13t47.5 -16.5z" />
    <glyph glyph-name="less" unicode="&#x3c;" horiz-adv-x="257" 
d="M112 105q21 -18 40 -42t24 -54q-5 11 -15 24t-24 25q-20 21 -45 34q-19 -18 -32 -14.5t-15.5 14t6.5 21t33 6.5l13 -4q25 15 46.5 33.5t37 34.5t24 26t7.5 9t-8 -12.5t-20 -28.5t-31 -36.5t-41 -35.5zM71 98q-2 3 -5.5 2.5t-7.5 -3t-6 -5t-1 -2.5q4 0 20 8z" />
    <glyph glyph-name="underscore" unicode="_" horiz-adv-x="303" 
d="M64 -3q46 6 87 2t71.5 -11t48.5 -14l18 -7q-27 7 -66 10.5t-77 2.5t-69 -5.5t-42 -12.5q-4 -3 -4.5 2.5t3 13t11 14t19.5 5.5z" />
    <glyph glyph-name="space" unicode=" " horiz-adv-x="148" 
 />
    <glyph glyph-name="acute" unicode="&#xb4;" horiz-adv-x="149" 
d="M88 561q-4 -7 -10.5 -13.5t-12.5 -11t-10.5 -6t-3.5 2.5t5 13.5t6.5 18t0.5 12t-12 -3.5q3 8 11 11t15.5 1t11.5 -8.5t-1 -15.5z" />
    <glyph glyph-name="circumflex" unicode="&#x2c6;" horiz-adv-x="160" 
d="M70 538q-9 -8 -17 -8t-12 4.5t-4 11.5t7 13q-4 -11 -0.5 -12t9.5 3.5t13.5 11t12.5 9.5q0 2 2 2t4 -3q3 -4 8.5 -11.5t10.5 -12.5t8 -5.5t3 10.5q5 -7 3.5 -12.5t-7 -8.5t-12.5 -2t-12 7q-6 8 -8 17q-3 -8 -9 -14z" />
    <glyph glyph-name="grave" unicode="`" horiz-adv-x="265" 
d="M91 561q-5 9 -1 15.5t11.5 8.5t15.5 -1t11 -11q-11 7 -12.5 3.5t1 -12t6.5 -18t5 -13.5t-3.5 -2.5t-10.5 6t-12.5 11t-10.5 13.5z" />
    <glyph glyph-name="tilde" unicode="&#x2dc;" horiz-adv-x="182" 
d="M86 532q-8 1 -10.5 5.5t-3.5 10t-1.5 9.5t-3.5 5q-5 2 -15 -3t-10 -14q0 -4 4.5 -3.5t7.5 -0.5q-2 -1 -5 -1q-5 -2 -9 0q-5 2 -5.5 7t2.5 11q5 11 14.5 18t17.5 4t7.5 -11t1.5 -15q1 -5 6.5 -6t11.5 1.5t9.5 8.5t1.5 15q-1 5 1.5 3.5t4.5 -5.5q9 -15 -1.5 -28t-25.5 -11z
" />
    <glyph glyph-name="minus" unicode="&#x2212;" horiz-adv-x="273" 
d="M70 88q38 4 66 2t46.5 -6t27.5 -8l9 -4q-29 5 -58 4.5t-53.5 -4.5t-42 -10t-22.5 -11q-3 -3 -4 1.5t2 12t10 15t19 8.5z" />
    <glyph glyph-name="emdash" unicode="&#x2014;" horiz-adv-x="323" 
d="M91 88q46 4 80 2t56 -7t32.5 -9.5l10.5 -4.5q-29 5 -62 5.5t-62 -2.5t-51.5 -8t-30.5 -11q-4 -3 -5 2t2 12t10.5 13.5t19.5 7.5z" />
    <glyph glyph-name="endash" unicode="&#x2013;" horiz-adv-x="284" 
d="M92 88q38 4 66 2t46.5 -6t27.5 -8l9 -4q-29 5 -58 4.5t-53.5 -4.5t-42 -10t-22.5 -11q-3 -3 -4 1.5t2 12t10 15t19 8.5z" />
    <glyph glyph-name="hyphen" unicode="-" horiz-adv-x="308" 
d="M107 88q38 4 66 2t46.5 -6t27.5 -8l9 -4q-29 5 -58 4.5t-53.5 -4.5t-42 -10t-22.5 -11q-3 -3 -4 1.5t2 12t10 15t19 8.5z" />
    <glyph glyph-name="divide" unicode="&#xf7;" horiz-adv-x="273" 
d="M57 88q38 4 66 2t46.5 -6t27.5 -8l9 -4q-29 5 -58 4.5t-53.5 -4.5t-42 -10t-22.5 -11q-3 -3 -4 1.5t2 12t10 15t19 8.5zM119 31q-5 -14 -16.5 -22t-11.5 0q0 4 3 12.5t4.5 15.5t-0.5 9.5t-11 -5.5q3 8 9.5 11.5t13 2t10 -7.5t-0.5 -16zM137 121q-5 -14 -16.5 -22t-11.5 0
q0 4 3 12.5t4.5 15.5t-0.5 9.5t-11 -5.5q3 8 9.5 11.5t13 2t10 -7.5t-0.5 -16z" />
    <glyph glyph-name="plus" unicode="+" horiz-adv-x="301" 
d="M163 134q3 11 11.5 16t16.5 6.5t12.5 0t0.5 -3.5q-7 -5 -16.5 -21.5t-18.5 -41.5q46 -2 68.5 -10t21.5 -8q-24 5 -48.5 4.5t-46.5 -2.5q-7 -20 -11 -43t-4 -46q-1 -1 -4.5 21.5t3.5 65.5q-25 -4 -42.5 -10t-22.5 -11q-3 -3 -4 1.5t2 12t10 15t19 8.5q11 1 21.5 1.5
t19.5 0.5q2 11 5 21.5t7 22.5z" />
    <glyph glyph-name="multiply" unicode="&#xd7;" horiz-adv-x="275" 
d="M97 120q-3 11 0.5 20t9.5 15t10.5 7.5t2.5 -2.5q-3 -8 -1.5 -27t9.5 -45q38 25 61 31.5t23 5.5q-23 -11 -42.5 -25t-36.5 -29q7 -20 16 -40.5t23 -39.5q0 -1 -16 15t-35 54q-18 -17 -28.5 -31.5t-12.5 -22.5q-1 -5 -4 -1t-5 12t-0.5 17.5t10.5 17.5q8 8 15.5 14t15.5 12
q-8 18 -15 42z" />
    <glyph glyph-name="dieresis" unicode="&#xa8;" 
d="M85 552q-4 -7 -10.5 -13.5t-12.5 -11t-10.5 -6t-3.5 2.5t5 13.5t6.5 18t0.5 12t-12 -3.5q3 8 11 11t15.5 1t11.5 -8.5t-1 -15.5zM118 552q-4 -7 -10.5 -13.5t-12.5 -11t-10.5 -6t-3.5 2.5t5.5 13t7.5 17.5t2.5 13t-7.5 0.5q3 6 10 7.5t13 -0.5t8.5 -8t-2.5 -15z" />
    <glyph glyph-name="numbersign" unicode="#" horiz-adv-x="366" 
d="M158 296q5 0 10 0.5t10 0.5q5 8 10 15t12 15q9 11 19.5 16t19 6.5t12.5 0t-1 -3.5q-7 -4 -20.5 -16.5t-30.5 -31.5q11 0 21 -0.5t18 -1.5l10 14t11 15q9 11 19.5 16t19 6.5t12.5 0t-1 -3.5q-8 -4 -22 -17t-31 -33q22 -5 33 -9l10 -5q-12 2 -25 3t-26 1q-14 -16 -25 -32
q17 -2 28 -5t19 -5q9 -4 14 -6q-17 3 -35 4t-35 0q-11 -16 -20.5 -31.5t-17.5 -32.5q-1 -1 3.5 15.5t21.5 47.5q-14 -2 -28 -3.5t-26 -4.5l-16 -26t-14 -27q-1 -1 2.5 12.5t15.5 38.5q-13 -4 -22.5 -7.5t-14.5 -6.5t-3 1.5t8.5 12t16.5 15t22 8.5h7q6 13 14 23
q-38 -8 -49 -16q-5 -3 -3.5 1.5t8 12t17 15t22.5 8.5zM183 279q-11 -13 -20 -26q26 2 46 0q5 8 9.5 15.5t10.5 15.5q-12 -1 -23.5 -2t-22.5 -3z" />
    <glyph glyph-name="asterisk" unicode="*" horiz-adv-x="386" 
d="M268 316q14 12 26.5 14.5t20.5 0.5t10.5 -5.5t-3.5 -3.5q-7 0 -25 -11t-42 -29q20 1 33 -1t21 -4q9 -3 13 -6q-47 2 -89 -6q-3 -20 -2.5 -39.5t5.5 -36.5q-2 -2 -11 11.5t-11 48.5q-20 -17 -39.5 -35.5t-36.5 -35.5q-2 -2 12.5 20.5t53.5 60.5q-49 -13 -65 -24
q-6 -3 -4 1.5t8.5 12.5t17.5 15.5t25 10.5l28 4l4 29q1 10 9.5 19t17.5 15.5t15 8.5t3 -2q-6 -6 -13 -22t-12 -36l30 25v0z" />
    <glyph glyph-name="period" unicode="." horiz-adv-x="150" 
d="M82 51q-2 -5 -7 -8t-10 -4t-8.5 -0.5t-3.5 3.5q0 2 3 7t6 10.5t5.5 10l2.5 4.5q-1 2 -2.5 4t6.5 -3q5 -3 7.5 -10t0.5 -14z" />
    <glyph glyph-name="ellipsis" unicode="&#x2026;" horiz-adv-x="470" 
d="M82 51q-2 -5 -7 -8t-10 -4t-8.5 -0.5t-3.5 3.5q0 2 3 7t6 10.5t5.5 10l2.5 4.5q-1 2 -2.5 4t6.5 -3q5 -3 7.5 -10t0.5 -14zM232 51q-2 -5 -7 -8t-10 -4t-8.5 -0.5t-3.5 3.5q0 2 3 7t6 10.5t5.5 10l2.5 4.5q-1 2 -2.5 4t6.5 -3q5 -3 7.5 -10t0.5 -14zM382 51q-2 -5 -7 -8
t-10 -4t-8.5 -0.5t-3.5 3.5q0 2 3 7t6 10.5t5.5 10l2.5 4.5q-1 2 -2.5 4t6.5 -3q5 -3 7.5 -10t0.5 -14z" />
    <glyph glyph-name="semicolon" unicode=";" horiz-adv-x="123" 
d="M82 51q-2 -5 -7 -8t-10 -4t-8.5 -0.5t-3.5 3.5q0 2 3 7t6 10.5t5.5 10l2.5 4.5q-1 2 -2.5 4t6.5 -3q5 -3 7.5 -10t0.5 -14zM64 0q-5 -6 -12.5 -10t-14 -6t-10.5 -1.5t-2 3.5t9 11t12 15.5t4.5 12.5t-12.5 2q6 6 13.5 5.5t12.5 -5t5.5 -12t-5.5 -15.5z" />
    <glyph glyph-name="comma" unicode="," horiz-adv-x="198" 
d="M117 42q-5 -6 -12.5 -10t-14 -6t-10.5 -1.5t-2 3.5t9 11t12 15.5t4.5 12.5t-12.5 2q6 6 13.5 5.5t12.5 -5t5.5 -12t-5.5 -15.5z" />
    <glyph glyph-name="guillemotleft" unicode="&#xab;" horiz-adv-x="352" 
d="M112 105q21 -18 40 -42t24 -54q-5 11 -15 24t-24 25q-20 21 -45 34q-19 -18 -32 -14.5t-15.5 14t6.5 21t33 6.5l13 -4q25 15 46.5 33.5t37 34.5t24 26t7.5 9t-8 -12.5t-20 -28.5t-31 -36.5t-41 -35.5zM196 111q21 -18 40 -42t24 -54q-5 11 -15 24t-24 25q-20 21 -45 34
q-19 -16 -31 -12.5t-14.5 13.5t6.5 19.5t31 6.5q2 0 6 -1.5t7 -2.5q25 15 46.5 33.5t37 34.5t24 26t7.5 9t-8 -12.5t-20 -28.5t-31 -36.5t-41 -35.5zM71 98q-2 3 -5.5 2.5t-7.5 -3t-6 -5t-1 -2.5q4 0 20 8zM155 104q-4 6 -11 1t-5 -6q3 0 5.5 0.5t10.5 4.5z" />
    <glyph glyph-name="guillemotright" unicode="&#xbb;" horiz-adv-x="463" 
d="M244 131q-21 18 -40 42t-24 54q5 -11 15 -24t24 -25q20 -21 45 -34q19 18 32 14.5t15.5 -14t-6.5 -21t-33 -6.5l-13 4q-25 -15 -46.5 -33.5t-37 -34.5t-24 -26t-7.5 -9t8 12.5t20 28.5t31 36t41 36zM160 125q-21 18 -40 42t-24 54q5 -11 15 -24t24 -25q20 -21 45 -34
q19 16 31 12.5t14 -13.5t-6.5 -19.5t-30.5 -6.5q-2 0 -6 1.5t-7 2.5q-25 -15 -46.5 -33.5t-37 -34.5t-24 -26t-7.5 -9t8 12.5t20 28.5t31 36t41 36zM285 138q2 -3 5.5 -2.5t7.5 3t6 5t1 2.5q-4 0 -20 -8zM201 132q4 -6 11 -1t5 6q-3 0 -5.5 -0.5t-10.5 -4.5z" />
    <glyph glyph-name="greater" unicode="&#x3e;" horiz-adv-x="534" 
d="M281 125q-21 18 -40 42t-24 54q5 -11 15 -24t24 -25q20 -21 45 -34q19 18 32 14.5t15.5 -14t-6.5 -21t-33 -6.5l-13 4q-25 -15 -46.5 -33.5t-37 -34.5t-24 -26t-7.5 -9t8 12.5t20 28.5t31 36t41 36zM322 132q2 -3 5.5 -2.5t7.5 3t6 5t1 2.5q-4 0 -20 -8z" />
    <glyph glyph-name="agrave" unicode="&#xe0;" 
d="M106 45q10 -3 21 6.5t21 24t18 31t13 28.5q-7 -23 -18 -50t-28 -41q-4 -3 -12 -7t-16 -2q-13 -2 -22 6q-6 6 -8.5 18t5.5 37q-8 -13 -21 -28.5t-24 -23.5q-23 -17 -38 -8.5t-17 21.5q-2 17 3.5 34t15 32t22.5 26.5t25 17.5q27 13 50 11t35 -10q9 -7 9.5 -21t-18.5 -28
q-3 -5 -8.5 -15.5t-9.5 -22.5t-5 -22t7 -14zM98 136q5 5 16 4t13 -6q6 8 4 15t-9.5 10.5t-19.5 2.5t-25 -7q-14 -6 -26 -17.5t-22 -25t-16 -27.5t-6 -26q0 -10 5.5 -12.5t18.5 7.5q9 7 18.5 17.5t18.5 22t16 22t12 16.5v1zM63 238q-5 9 -1 15.5t11.5 8.5t15.5 -1t11 -11
q-11 7 -12.5 3.5t1 -12t6.5 -18t5 -13.5t-3.5 -2.5t-10.5 6t-12.5 11t-10.5 13.5z" />
    <glyph glyph-name="aacute" unicode="&#xe1;" 
d="M106 45q10 -3 21 6.5t21 24t18 31t13 28.5q-7 -23 -18 -50t-28 -41q-4 -3 -12 -7t-16 -2q-13 -2 -22 6q-6 6 -8.5 18t5.5 37q-8 -13 -21 -28.5t-24 -23.5q-23 -17 -38 -8.5t-17 21.5q-2 17 3.5 34t15 32t22.5 26.5t25 17.5q27 13 50 11t35 -10q9 -7 9.5 -21t-18.5 -28
q-3 -5 -8.5 -15.5t-9.5 -22.5t-5 -22t7 -14zM98 136q5 5 16 4t13 -6q6 8 4 15t-9.5 10.5t-19.5 2.5t-25 -7q-14 -6 -26 -17.5t-22 -25t-16 -27.5t-6 -26q0 -10 5.5 -12.5t18.5 7.5q9 7 18.5 17.5t18.5 22t16 22t12 16.5v1zM116 239q-4 -7 -10.5 -13.5t-12.5 -11t-10.5 -6
t-3.5 2.5t5 13.5t6.5 18t0.5 12t-12 -3.5q3 8 11 11t15.5 1t11.5 -8.5t-1 -15.5z" />
    <glyph glyph-name="acircumflex" unicode="&#xe2;" 
d="M106 45q10 -3 21 6.5t21 24t18 31t13 28.5q-7 -23 -18 -50t-28 -41q-4 -3 -12 -7t-16 -2q-13 -2 -22 6q-6 6 -8.5 18t5.5 37q-8 -13 -21 -28.5t-24 -23.5q-23 -17 -38 -8.5t-17 21.5q-2 17 3.5 34t15 32t22.5 26.5t25 17.5q27 13 50 11t35 -10q9 -7 9.5 -21t-18.5 -28
q-3 -5 -8.5 -15.5t-9.5 -22.5t-5 -22t7 -14zM98 136q5 5 16 4t13 -6q6 8 4 15t-9.5 10.5t-19.5 2.5t-25 -7q-14 -6 -26 -17.5t-22 -25t-16 -27.5t-6 -26q0 -10 5.5 -12.5t18.5 7.5q9 7 18.5 17.5t18.5 22t16 22t12 16.5v1zM83 222q-9 -8 -17 -8t-12 4.5t-4 11.5t7 13
q-4 -11 -0.5 -12t9.5 3.5t13.5 11t12.5 9.5q0 2 2 2t4 -3q3 -4 8.5 -11.5t10.5 -12.5t8 -5.5t3 10.5q5 -7 3.5 -12.5t-7 -8.5t-12.5 -2t-12 7q-6 8 -8 17q-3 -8 -9 -14z" />
    <glyph glyph-name="atilde" unicode="&#xe3;" 
d="M106 45q10 -3 21 6.5t21 24t18 31t13 28.5q-7 -23 -18 -50t-28 -41q-4 -3 -12 -7t-16 -2q-13 -2 -22 6q-6 6 -8.5 18t5.5 37q-8 -13 -21 -28.5t-24 -23.5q-23 -17 -38 -8.5t-17 21.5q-2 17 3.5 34t15 32t22.5 26.5t25 17.5q27 13 50 11t35 -10q9 -7 9.5 -21t-18.5 -28
q-3 -5 -8.5 -15.5t-9.5 -22.5t-5 -22t7 -14zM98 136q5 5 16 4t13 -6q6 8 4 15t-9.5 10.5t-19.5 2.5t-25 -7q-14 -6 -26 -17.5t-22 -25t-16 -27.5t-6 -26q0 -10 5.5 -12.5t18.5 7.5q9 7 18.5 17.5t18.5 22t16 22t12 16.5v1zM103 205q-8 1 -10.5 5.5t-3.5 10t-1.5 9.5t-3.5 5
q-5 2 -15 -3t-10 -14q0 -4 4.5 -3.5t7.5 -0.5q-2 -1 -5 -1q-5 -2 -9 0q-5 2 -5.5 7t2.5 11q5 11 14.5 18t17.5 4t7.5 -11t1.5 -15q1 -5 6.5 -6t11.5 1.5t9.5 8.5t1.5 15q-1 5 1.5 3.5t4.5 -5.5q9 -15 -1.5 -28t-25.5 -11z" />
    <glyph glyph-name="adieresis" unicode="&#xe4;" 
d="M106 45q10 -3 21 6.5t21 24t18 31t13 28.5q-7 -23 -18 -50t-28 -41q-4 -3 -12 -7t-16 -2q-13 -2 -22 6q-6 6 -8.5 18t5.5 37q-8 -13 -21 -28.5t-24 -23.5q-23 -17 -38 -8.5t-17 21.5q-2 17 3.5 34t15 32t22.5 26.5t25 17.5q27 13 50 11t35 -10q9 -7 9.5 -21t-18.5 -28
q-3 -5 -8.5 -15.5t-9.5 -22.5t-5 -22t7 -14zM98 136q5 5 16 4t13 -6q6 8 4 15t-9.5 10.5t-19.5 2.5t-25 -7q-14 -6 -26 -17.5t-22 -25t-16 -27.5t-6 -26q0 -10 5.5 -12.5t18.5 7.5q9 7 18.5 17.5t18.5 22t16 22t12 16.5v1zM110 238q-4 -7 -10.5 -13.5t-12.5 -11t-10.5 -6
t-3.5 2.5t5 13.5t6.5 18t0.5 12t-12 -3.5q3 8 11 11t15.5 1t11.5 -8.5t-1 -15.5zM143 238q-4 -7 -10.5 -13.5t-12.5 -11t-10.5 -6t-3.5 2.5t5.5 13t7.5 17.5t2.5 13t-7.5 0.5q3 6 10 7.5t13 -0.5t8.5 -8t-2.5 -15z" />
    <glyph glyph-name="ae" unicode="&#xe6;" horiz-adv-x="278" 
d="M165 33q-21 0 -28 14l-4 -3q-4 -3 -12 -7t-16 -2q-13 -2 -22 6q-6 6 -8.5 18t5.5 37q-8 -13 -21 -28.5t-24 -23.5q-23 -17 -38 -8.5t-17 21.5q-2 17 3.5 34t15 32t22.5 26.5t25 17.5q27 13 50 11t35 -10q9 -7 9.5 -21t-18.5 -28q-3 -5 -8.5 -15.5t-9.5 -22.5t-5 -22
t7 -14q6 -2 13 1.5t14 11.5v9q0 19 9.5 38.5t24 35t33 26t36.5 11.5q10 1 18 -4t8 -16q0 -14 -12 -27q-2 -3 -8.5 -9t-17 -13t-25.5 -13.5t-34 -9.5q-4 -7 -5 -12t-1 -10q0 -17 20 -19q14 -1 30.5 8.5t30.5 24t25 30.5t15 27q-2 -18 -13 -36t-27.5 -33t-36 -24t-38.5 -9z
M98 136q5 5 16 4t13 -6q6 8 4 15t-9.5 10.5t-19.5 2.5t-25 -7q-14 -6 -26 -17.5t-22 -25t-16 -27.5t-6 -26q0 -10 5.5 -12.5t18.5 7.5q9 7 18.5 17.5t18.5 22t16 22t12 16.5v1zM179 105q-2 -2 -3.5 -4.5t-5.5 -8.5q41 14 61 33t20 32q0 5 -3 5q-12 0 -31 -17t-38 -40z" />
    <glyph glyph-name="egrave" unicode="&#xe8;" horiz-adv-x="112" 
d="M7 33q-19 0 -25.5 10t-6.5 24q0 19 9.5 38.5t24 35t33 26t36.5 11.5q10 1 18 -4t8 -16q0 -14 -12 -27q-2 -3 -8.5 -9t-17 -13t-25.5 -13.5t-34 -9.5q-4 -7 -5 -12t-1 -10q0 -17 20 -19q14 -1 30.5 8.5t30.5 24t25 30.5t15 27q-2 -18 -13 -36t-27.5 -33t-36 -24t-38.5 -9z
M21 105q-2 -2 -3.5 -4.5t-5.5 -8.5q41 14 61 33t20 32q0 5 -3 5q-12 0 -31 -17t-38 -40zM50 238q-5 9 -1 15.5t11.5 8.5t15.5 -1t11 -11q-11 7 -12.5 3.5t1 -12t6.5 -18t5 -13.5t-3.5 -2.5t-10.5 6t-12.5 11t-10.5 13.5z" />
    <glyph glyph-name="eacute" unicode="&#xe9;" horiz-adv-x="112" 
d="M7 33q-19 0 -25.5 10t-6.5 24q0 19 9.5 38.5t24 35t33 26t36.5 11.5q10 1 18 -4t8 -16q0 -14 -12 -27q-2 -3 -8.5 -9t-17 -13t-25.5 -13.5t-34 -9.5q-4 -7 -5 -12t-1 -10q0 -17 20 -19q14 -1 30.5 8.5t30.5 24t25 30.5t15 27q-2 -18 -13 -36t-27.5 -33t-36 -24t-38.5 -9z
M21 105q-2 -2 -3.5 -4.5t-5.5 -8.5q41 14 61 33t20 32q0 5 -3 5q-12 0 -31 -17t-38 -40zM121 237q-4 -7 -10.5 -13.5t-12.5 -11t-10.5 -6t-3.5 2.5t5 13.5t6.5 18t0.5 12t-12 -3.5q3 8 11 11t15.5 1t11.5 -8.5t-1 -15.5z" />
    <glyph glyph-name="edieresis" unicode="&#xeb;" horiz-adv-x="112" 
d="M7 33q-19 0 -25.5 10t-6.5 24q0 19 9.5 38.5t24 35t33 26t36.5 11.5q10 1 18 -4t8 -16q0 -14 -12 -27q-2 -3 -8.5 -9t-17 -13t-25.5 -13.5t-34 -9.5q-4 -7 -5 -12t-1 -10q0 -17 20 -19q14 -1 30.5 8.5t30.5 24t25 30.5t15 27q-2 -18 -13 -36t-27.5 -33t-36 -24t-38.5 -9z
M21 105q-2 -2 -3.5 -4.5t-5.5 -8.5q41 14 61 33t20 32q0 5 -3 5q-12 0 -31 -17t-38 -40zM100 238q-4 -7 -10.5 -13.5t-12.5 -11t-10.5 -6t-3.5 2.5t5 13.5t6.5 18t0.5 12t-12 -3.5q3 8 11 11t15.5 1t11.5 -8.5t-1 -15.5zM133 238q-4 -7 -10.5 -13.5t-12.5 -11t-10.5 -6
t-3.5 2.5t5.5 13t7.5 17.5t2.5 13t-7.5 0.5q3 6 10 7.5t13 -0.5t8.5 -8t-2.5 -15z" />
    <glyph glyph-name="igrave" unicode="&#xec;" horiz-adv-x="78" 
d="M16 158q5 7 13 10t15 3t11 -2.5t1 -7.5q-14 -22 -27 -43.5t-20 -40.5q-6 -15 -5.5 -23.5t5 -11t12 0.5t14.5 11q7 7 15 18t16.5 22.5t15.5 22.5t12 19q-8 -23 -23.5 -49.5t-32.5 -41.5q-14 -11 -28 -10.5t-22 8.5q-11 12 -5 40q4 14 9.5 27t10.5 24q6 12 13 24zM23 238
q-5 9 -1 15.5t11.5 8.5t15.5 -1t11 -11q-11 7 -12.5 3.5t1 -12t6.5 -18t5 -13.5t-3.5 -2.5t-10.5 6t-12.5 11t-10.5 13.5z" />
    <glyph glyph-name="iacute" unicode="&#xed;" horiz-adv-x="78" 
d="M16 158q5 7 13 10t15 3t11 -2.5t1 -7.5q-14 -22 -27 -43.5t-20 -40.5q-6 -15 -5.5 -23.5t5 -11t12 0.5t14.5 11q7 7 15 18t16.5 22.5t15.5 22.5t12 19q-8 -23 -23.5 -49.5t-32.5 -41.5q-14 -11 -28 -10.5t-22 8.5q-11 12 -5 40q4 14 9.5 27t10.5 24q6 12 13 24zM89 238
q-4 -7 -10.5 -13.5t-12.5 -11t-10.5 -6t-3.5 2.5t5 13.5t6.5 18t0.5 12t-12 -3.5q3 8 11 11t15.5 1t11.5 -8.5t-1 -15.5z" />
    <glyph glyph-name="icircumflex" unicode="&#xee;" horiz-adv-x="78" 
d="M16 158q5 7 13 10t15 3t11 -2.5t1 -7.5q-14 -22 -27 -43.5t-20 -40.5q-6 -15 -5.5 -23.5t5 -11t12 0.5t14.5 11q7 7 15 18t16.5 22.5t15.5 22.5t12 19q-8 -23 -23.5 -49.5t-32.5 -41.5q-14 -11 -28 -10.5t-22 8.5q-11 12 -5 40q4 14 9.5 27t10.5 24q6 12 13 24zM47 221
q-9 -8 -17 -8t-12 4.5t-4 11.5t7 13q-4 -11 -0.5 -12t9.5 3.5t13.5 11t12.5 9.5q0 2 2 2t4 -3q3 -4 8.5 -11.5t10.5 -12.5t8 -5.5t3 10.5q5 -7 3.5 -12.5t-7 -8.5t-12.5 -2t-12 7q-6 8 -8 17q-3 -8 -9 -14z" />
    <glyph glyph-name="idieresis" unicode="&#xef;" horiz-adv-x="78" 
d="M16 158q5 7 13 10t15 3t11 -2.5t1 -7.5q-14 -22 -27 -43.5t-20 -40.5q-6 -15 -5.5 -23.5t5 -11t12 0.5t14.5 11q7 7 15 18t16.5 22.5t15.5 22.5t12 19q-8 -23 -23.5 -49.5t-32.5 -41.5q-14 -11 -28 -10.5t-22 8.5q-11 12 -5 40q4 14 9.5 27t10.5 24q6 12 13 24zM64 238
q-4 -7 -10.5 -13.5t-12.5 -11t-10.5 -6t-3.5 2.5t5 13.5t6.5 18t0.5 12t-12 -3.5q3 8 11 11t15.5 1t11.5 -8.5t-1 -15.5zM97 238q-4 -7 -10.5 -13.5t-12.5 -11t-10.5 -6t-3.5 2.5t5.5 13t7.5 17.5t2.5 13t-7.5 0.5q3 6 10 7.5t13 -0.5t8.5 -8t-2.5 -15z" />
    <glyph glyph-name="ntilde" unicode="&#xf1;" horiz-adv-x="138" 
d="M98 207q-8 1 -10.5 5.5t-3.5 10t-1.5 9.5t-3.5 5q-5 2 -15 -3t-10 -14q0 -4 4.5 -3.5t7.5 -0.5q-2 -1 -5 -1q-5 -2 -9 0q-5 2 -5.5 7t2.5 11q5 11 14.5 18t17.5 4t7.5 -11t1.5 -15q1 -5 6.5 -6t11.5 1.5t9.5 8.5t1.5 15q-1 5 1.5 3.5t4.5 -5.5q9 -15 -1.5 -28t-25.5 -11z
M80 55q0 -9 4 -10q9 0 19.5 10t20 24t17 29.5t12.5 27.5q-7 -23 -18 -50t-28 -41q-6 -5 -15 -8t-17 -2t-14 7t-7 19t4 29t12 31t12.5 25.5t5.5 13.5v1q-4 0 -19 -13.5t-31 -32.5t-28.5 -39t-11.5 -33q0 -4 2 -8q-11 3 -16 11t-5 19q0 2 0.5 4t0.5 4q0 4 4.5 20.5t12.5 35.5
t19 34t23 15t12 -9q0 -2 -4.5 -10t-10.5 -18t-12 -21t-9 -18q31 41 56 58t27 17q11 0 18.5 -7t7.5 -15q0 1 -7 -11t-15 -28.5t-15 -33.5t-7 -27z" />
    <glyph glyph-name="ograve" unicode="&#xf2;" horiz-adv-x="125" 
d="M69 59q6 0 14.5 6.5t17.5 16.5t16.5 21t11.5 20q-2 -11 -8.5 -23.5t-15 -23.5t-18.5 -18t-18 -7q-6 0 -8 1q-14 -11 -24.5 -16t-24.5 -5q-20 0 -28.5 11t-7.5 28t9.5 36.5t21.5 36t28.5 27.5t31.5 10q14 -1 26 -9t12 -30q0 -14 -8 -39.5t-28 -42.5zM48 69q0 12 10 21
t23 1q3 0 6.5 10.5t4.5 23t-2.5 23.5t-14.5 11t-23.5 -10.5t-23.5 -25.5t-17.5 -33t-4.5 -33q1 -9 6.5 -12t12.5 -2.5t14.5 4.5t12.5 9q-4 5 -4 13zM48 238q-5 9 -1 15.5t11.5 8.5t15.5 -1t11 -11q-11 7 -12.5 3.5t1 -12t6.5 -18t5 -13.5t-3.5 -2.5t-10.5 6t-12.5 11
t-10.5 13.5z" />
    <glyph glyph-name="oacute" unicode="&#xf3;" horiz-adv-x="125" 
d="M69 59q6 0 14.5 6.5t17.5 16.5t16.5 21t11.5 20q-2 -11 -8.5 -23.5t-15 -23.5t-18.5 -18t-18 -7q-6 0 -8 1q-14 -11 -24.5 -16t-24.5 -5q-20 0 -28.5 11t-7.5 28t9.5 36.5t21.5 36t28.5 27.5t31.5 10q14 -1 26 -9t12 -30q0 -14 -8 -39.5t-28 -42.5zM48 69q0 12 10 21
t23 1q3 0 6.5 10.5t4.5 23t-2.5 23.5t-14.5 11t-23.5 -10.5t-23.5 -25.5t-17.5 -33t-4.5 -33q1 -9 6.5 -12t12.5 -2.5t14.5 4.5t12.5 9q-4 5 -4 13zM116 238q-4 -7 -10.5 -13.5t-12.5 -11t-10.5 -6t-3.5 2.5t5 13.5t6.5 18t0.5 12t-12 -3.5q3 8 11 11t15.5 1t11.5 -8.5
t-1 -15.5z" />
    <glyph glyph-name="otilde" unicode="&#xf5;" horiz-adv-x="125" 
d="M69 59q6 0 14.5 6.5t17.5 16.5t16.5 21t11.5 20q-2 -11 -8.5 -23.5t-15 -23.5t-18.5 -18t-18 -7q-6 0 -8 1q-14 -11 -24.5 -16t-24.5 -5q-20 0 -28.5 11t-7.5 28t9.5 36.5t21.5 36t28.5 27.5t31.5 10q14 -1 26 -9t12 -30q0 -14 -8 -39.5t-28 -42.5zM48 69q0 12 10 21
t23 1q3 0 6.5 10.5t4.5 23t-2.5 23.5t-14.5 11t-23.5 -10.5t-23.5 -25.5t-17.5 -33t-4.5 -33q1 -9 6.5 -12t12.5 -2.5t14.5 4.5t12.5 9q-4 5 -4 13zM88 207q-8 1 -10.5 5.5t-3.5 10t-1.5 9.5t-3.5 5q-5 2 -15 -3t-10 -14q0 -4 4.5 -3.5t7.5 -0.5q-2 -1 -5 -1q-5 -2 -9 0
q-5 2 -5.5 7t2.5 11q5 11 14.5 18t17.5 4t7.5 -11t1.5 -15q1 -5 6.5 -6t11.5 1.5t9.5 8.5t1.5 15q-1 5 1.5 3.5t4.5 -5.5q9 -15 -1.5 -28t-25.5 -11z" />
    <glyph glyph-name="odieresis" unicode="&#xf6;" horiz-adv-x="125" 
d="M69 59q6 0 14.5 6.5t17.5 16.5t16.5 21t11.5 20q-2 -11 -8.5 -23.5t-15 -23.5t-18.5 -18t-18 -7q-6 0 -8 1q-14 -11 -24.5 -16t-24.5 -5q-20 0 -28.5 11t-7.5 28t9.5 36.5t21.5 36t28.5 27.5t31.5 10q14 -1 26 -9t12 -30q0 -14 -8 -39.5t-28 -42.5zM48 69q0 12 10 21
t23 1q3 0 6.5 10.5t4.5 23t-2.5 23.5t-14.5 11t-23.5 -10.5t-23.5 -25.5t-17.5 -33t-4.5 -33q1 -9 6.5 -12t12.5 -2.5t14.5 4.5t12.5 9q-4 5 -4 13zM100 238q-4 -7 -10.5 -13.5t-12.5 -11t-10.5 -6t-3.5 2.5t5 13.5t6.5 18t0.5 12t-12 -3.5q3 8 11 11t15.5 1t11.5 -8.5
t-1 -15.5zM133 238q-4 -7 -10.5 -13.5t-12.5 -11t-10.5 -6t-3.5 2.5t5.5 13t7.5 17.5t2.5 13t-7.5 0.5q3 6 10 7.5t13 -0.5t8.5 -8t-2.5 -15z" />
    <glyph glyph-name="ugrave" unicode="&#xf9;" horiz-adv-x="142" 
d="M58 105q23 28 36 67q2 5 7.5 5.5t11 -2.5t8 -9t-0.5 -15q-3 -7 -9 -20t-12.5 -27.5t-12 -29t-5.5 -24.5q0 -4 1 -5q5 -7 16 2t22.5 24.5t22.5 34t16 30.5q-8 -23 -20.5 -48.5t-30.5 -42.5q-5 -4 -12.5 -7.5t-15.5 -2.5q-9 1 -15.5 6.5t-7.5 17.5q-1 5 1 15.5t7 24.5
q-32 -38 -48.5 -51t-18.5 -13q-17 -3 -25 10.5t2 29.5q8 12 16 29.5t13.5 33.5t7 27t-4.5 11q-5 0 -0.5 1.5t11 0.5t13 -6.5t6.5 -20.5q0 -12 -7.5 -29.5t-16 -33.5t-15 -28.5t-3.5 -13.5q3 -2 9.5 2.5t15.5 13.5t19 20t19 23zM42 238q-5 9 -1 15.5t11.5 8.5t15.5 -1t11 -11
q-11 7 -12.5 3.5t1 -12t6.5 -18t5 -13.5t-3.5 -2.5t-10.5 6t-12.5 11t-10.5 13.5z" />
    <glyph glyph-name="uacute" unicode="&#xfa;" horiz-adv-x="142" 
d="M58 105q23 28 36 67q2 5 7.5 5.5t11 -2.5t8 -9t-0.5 -15q-3 -7 -9 -20t-12.5 -27.5t-12 -29t-5.5 -24.5q0 -4 1 -5q5 -7 16 2t22.5 24.5t22.5 34t16 30.5q-8 -23 -20.5 -48.5t-30.5 -42.5q-5 -4 -12.5 -7.5t-15.5 -2.5q-9 1 -15.5 6.5t-7.5 17.5q-1 5 1 15.5t7 24.5
q-32 -38 -48.5 -51t-18.5 -13q-17 -3 -25 10.5t2 29.5q8 12 16 29.5t13.5 33.5t7 27t-4.5 11q-5 0 -0.5 1.5t11 0.5t13 -6.5t6.5 -20.5q0 -12 -7.5 -29.5t-16 -33.5t-15 -28.5t-3.5 -13.5q3 -2 9.5 2.5t15.5 13.5t19 20t19 23zM100 238q-4 -7 -10.5 -13.5t-12.5 -11
t-10.5 -6t-3.5 2.5t5 13.5t6.5 18t0.5 12t-12 -3.5q3 8 11 11t15.5 1t11.5 -8.5t-1 -15.5z" />
    <glyph glyph-name="Ugrave" unicode="&#xd9;" horiz-adv-x="471" 
d="M378 29q-2 -6 -2.5 -17.5t7.5 -12.5q16 -2 31 11t27.5 32t21.5 39t14 32q1 -11 -7 -33t-21.5 -43.5t-31.5 -36.5t-36 -12q-21 3 -29.5 14t-9 26t6 33t15 35t17 31.5t12.5 23.5q-21 -24 -46.5 -52.5t-51.5 -52.5t-50.5 -40.5t-43.5 -16.5q-17 0 -30 11.5t-13 37.5t17 64
q7 17 18.5 41t23.5 50.5t23.5 53t18 48t6.5 34.5t-10 14q-13 0 -36 -7.5t-49 -20.5t-53 -30t-47 -35t-30 -36.5t-4 -34.5q3 -8 12 -13.5t9 -12.5q-25 5 -37 20t-12 32q0 27 15.5 49t39.5 38.5t52.5 28.5t54.5 19.5t46 10.5t26 3q20 -2 30 -10t13 -20.5t1 -29t-5 -34.5
q-1 -8 -8.5 -27.5t-18 -44t-22 -51.5t-21 -50.5t-16 -40t-6.5 -20.5q0 -8 3 -13t11 -5q16 0 40.5 16.5t53.5 43t59.5 60.5t57.5 68q25 51 39.5 83t14.5 48q0 9 -8 10q2 0 4.5 0.5t4.5 0.5q17 0 24 -8.5t7 -19.5q0 -9 -5 -23t-11 -28.5t-11.5 -25.5l-6.5 -13
q-9 -20 -21.5 -45.5t-25.5 -51.5t-24 -51t-17 -43zM364 431q-5 9 -1 15.5t11.5 8.5t15.5 -1t11 -11q-11 7 -12.5 3.5t1 -12t6.5 -18t5 -13.5t-3.5 -2.5t-10.5 6t-12.5 11t-10.5 13.5z" />
    <glyph glyph-name="Uacute" unicode="&#xda;" horiz-adv-x="471" 
d="M378 29q-2 -6 -2.5 -17.5t7.5 -12.5q16 -2 31 11t27.5 32t21.5 39t14 32q1 -11 -7 -33t-21.5 -43.5t-31.5 -36.5t-36 -12q-21 3 -29.5 14t-9 26t6 33t15 35t17 31.5t12.5 23.5q-21 -24 -46.5 -52.5t-51.5 -52.5t-50.5 -40.5t-43.5 -16.5q-17 0 -30 11.5t-13 37.5t17 64
q7 17 18.5 41t23.5 50.5t23.5 53t18 48t6.5 34.5t-10 14q-13 0 -36 -7.5t-49 -20.5t-53 -30t-47 -35t-30 -36.5t-4 -34.5q3 -8 12 -13.5t9 -12.5q-25 5 -37 20t-12 32q0 27 15.5 49t39.5 38.5t52.5 28.5t54.5 19.5t46 10.5t26 3q20 -2 30 -10t13 -20.5t1 -29t-5 -34.5
q-1 -8 -8.5 -27.5t-18 -44t-22 -51.5t-21 -50.5t-16 -40t-6.5 -20.5q0 -8 3 -13t11 -5q16 0 40.5 16.5t53.5 43t59.5 60.5t57.5 68q25 51 39.5 83t14.5 48q0 9 -8 10q2 0 4.5 0.5t4.5 0.5q17 0 24 -8.5t7 -19.5q0 -9 -5 -23t-11 -28.5t-11.5 -25.5l-6.5 -13
q-9 -20 -21.5 -45.5t-25.5 -51.5t-24 -51t-17 -43zM417 430q-4 -7 -10.5 -13.5t-12.5 -11t-10.5 -6t-3.5 2.5t5 13.5t6.5 18t0.5 12t-12 -3.5q3 8 11 11t15.5 1t11.5 -8.5t-1 -15.5z" />
    <glyph glyph-name="Ucircumflex" unicode="&#xdb;" horiz-adv-x="471" 
d="M378 29q-2 -6 -2.5 -17.5t7.5 -12.5q16 -2 31 11t27.5 32t21.5 39t14 32q1 -11 -7 -33t-21.5 -43.5t-31.5 -36.5t-36 -12q-21 3 -29.5 14t-9 26t6 33t15 35t17 31.5t12.5 23.5q-21 -24 -46.5 -52.5t-51.5 -52.5t-50.5 -40.5t-43.5 -16.5q-17 0 -30 11.5t-13 37.5t17 64
q7 17 18.5 41t23.5 50.5t23.5 53t18 48t6.5 34.5t-10 14q-13 0 -36 -7.5t-49 -20.5t-53 -30t-47 -35t-30 -36.5t-4 -34.5q3 -8 12 -13.5t9 -12.5q-25 5 -37 20t-12 32q0 27 15.5 49t39.5 38.5t52.5 28.5t54.5 19.5t46 10.5t26 3q20 -2 30 -10t13 -20.5t1 -29t-5 -34.5
q-1 -8 -8.5 -27.5t-18 -44t-22 -51.5t-21 -50.5t-16 -40t-6.5 -20.5q0 -8 3 -13t11 -5q16 0 40.5 16.5t53.5 43t59.5 60.5t57.5 68q25 51 39.5 83t14.5 48q0 9 -8 10q2 0 4.5 0.5t4.5 0.5q17 0 24 -8.5t7 -19.5q0 -9 -5 -23t-11 -28.5t-11.5 -25.5l-6.5 -13
q-9 -20 -21.5 -45.5t-25.5 -51.5t-24 -51t-17 -43zM373 410q-9 -8 -17 -8t-12 4.5t-4 11.5t7 13q-4 -11 -0.5 -12t9.5 3.5t13.5 11t12.5 9.5q0 2 2 2t4 -3q3 -4 8.5 -11.5t10.5 -12.5t8 -5.5t3 10.5q5 -7 3.5 -12.5t-7 -8.5t-12.5 -2t-12 7q-6 8 -8 17q-3 -8 -9 -14z" />
    <glyph glyph-name="Udieresis" unicode="&#xdc;" horiz-adv-x="471" 
d="M378 29q-2 -6 -2.5 -17.5t7.5 -12.5q16 -2 31 11t27.5 32t21.5 39t14 32q1 -11 -7 -33t-21.5 -43.5t-31.5 -36.5t-36 -12q-21 3 -29.5 14t-9 26t6 33t15 35t17 31.5t12.5 23.5q-21 -24 -46.5 -52.5t-51.5 -52.5t-50.5 -40.5t-43.5 -16.5q-17 0 -30 11.5t-13 37.5t17 64
q7 17 18.5 41t23.5 50.5t23.5 53t18 48t6.5 34.5t-10 14q-13 0 -36 -7.5t-49 -20.5t-53 -30t-47 -35t-30 -36.5t-4 -34.5q3 -8 12 -13.5t9 -12.5q-25 5 -37 20t-12 32q0 27 15.5 49t39.5 38.5t52.5 28.5t54.5 19.5t46 10.5t26 3q20 -2 30 -10t13 -20.5t1 -29t-5 -34.5
q-1 -8 -8.5 -27.5t-18 -44t-22 -51.5t-21 -50.5t-16 -40t-6.5 -20.5q0 -8 3 -13t11 -5q16 0 40.5 16.5t53.5 43t59.5 60.5t57.5 68q25 51 39.5 83t14.5 48q0 9 -8 10q2 0 4.5 0.5t4.5 0.5q17 0 24 -8.5t7 -19.5q0 -9 -5 -23t-11 -28.5t-11.5 -25.5l-6.5 -13
q-9 -20 -21.5 -45.5t-25.5 -51.5t-24 -51t-17 -43zM396 429q-4 -7 -10.5 -13.5t-12.5 -11t-10.5 -6t-3.5 2.5t5 13.5t6.5 18t0.5 12t-12 -3.5q3 8 11 11t15.5 1t11.5 -8.5t-1 -15.5zM429 429q-4 -7 -10.5 -13.5t-12.5 -11t-10.5 -6t-3.5 2.5t5.5 13t7.5 17.5t2.5 13
t-7.5 0.5q3 6 10 7.5t13 -0.5t8.5 -8t-2.5 -15z" />
    <glyph glyph-name="Yacute" unicode="&#xdd;" horiz-adv-x="411" 
d="M338 151q6 6 15.5 10.5t18.5 5.5t14.5 -4.5t3.5 -19.5q-3 -17 -14.5 -41t-26 -48.5t-28 -44.5t-19.5 -28q9 -2 19 -5t18.5 -8.5t14.5 -13.5t6 -18q0 -14 -11.5 -30t-23.5 -23q5 7 15.5 19t10.5 25t-7 21.5t-16.5 13t-19.5 6.5t-16 3q-25 -26 -57.5 -47t-72.5 -21
q-22 0 -42.5 6t-20.5 26q2 30 36.5 41t81.5 11q12 0 23 -0.5t24 -1.5q6 6 18.5 24t25.5 37t24 35.5l13 19.5q-13 -14 -29 -32.5t-34.5 -35.5t-39 -29.5t-42.5 -14.5q-16 -2 -27.5 8t-11.5 33q0 12 3.5 27.5t12.5 35.5q10 23 26 58.5t31.5 71.5t26.5 66t11 44q0 9 -10 9
q-12 0 -35 -6t-49.5 -16.5t-54 -25t-49 -30.5t-34.5 -33.5t-10 -34.5q2 -11 9 -18t17 -14q-26 10 -39 22t-13 33q0 23 16.5 42t42 34.5t55.5 26.5t57.5 18.5t47.5 11t25 3.5q26 0 38 -11.5t12 -31.5q0 -13 -4 -27t-9 -25q-3 -7 -11 -25.5t-18.5 -42.5t-21.5 -51t-20 -50.5
t-15 -40.5t-6 -22q0 -20 15.5 -20.5t39.5 14t52 42.5t54 66q7 11 8 16.5t-2.5 7.5t-9.5 0.5t-12 -3.5zM169 -85q24 8 45.5 23.5t39.5 33.5q-28 0 -53 -5t-43.5 -12t-29.5 -15.5t-11 -16.5q0 -6 12 -8.5t19 -2.5q6 0 11.5 1t9.5 2zM413 374q-4 -7 -10.5 -13.5t-12.5 -11
t-10.5 -6t-3.5 2.5t5 13.5t6.5 18t0.5 12t-12 -3.5q3 8 11 11t15.5 1t11.5 -8.5t-1 -15.5z" />
    <glyph glyph-name="udieresis" unicode="&#xfc;" horiz-adv-x="142" 
d="M58 105q23 28 36 67q2 5 7.5 5.5t11 -2.5t8 -9t-0.5 -15q-3 -7 -9 -20t-12.5 -27.5t-12 -29t-5.5 -24.5q0 -4 1 -5q5 -7 16 2t22.5 24.5t22.5 34t16 30.5q-8 -23 -20.5 -48.5t-30.5 -42.5q-5 -4 -12.5 -7.5t-15.5 -2.5q-9 1 -15.5 6.5t-7.5 17.5q-1 5 1 15.5t7 24.5
q-32 -38 -48.5 -51t-18.5 -13q-17 -3 -25 10.5t2 29.5q8 12 16 29.5t13.5 33.5t7 27t-4.5 11q-5 0 -0.5 1.5t11 0.5t13 -6.5t6.5 -20.5q0 -12 -7.5 -29.5t-16 -33.5t-15 -28.5t-3.5 -13.5q3 -2 9.5 2.5t15.5 13.5t19 20t19 23zM87 238q-4 -7 -10.5 -13.5t-12.5 -11t-10.5 -6
t-3.5 2.5t5 13.5t6.5 18t0.5 12t-12 -3.5q3 8 11 11t15.5 1t11.5 -8.5t-1 -15.5zM120 238q-4 -7 -10.5 -13.5t-12.5 -11t-10.5 -6t-3.5 2.5t5.5 13t7.5 17.5t2.5 13t-7.5 0.5q3 6 10 7.5t13 -0.5t8.5 -8t-2.5 -15z" />
    <glyph glyph-name="yacute" unicode="&#xfd;" horiz-adv-x="134" 
d="M56 105q11 15 19.5 30.5t14.5 34.5q1 5 7 5.5t11 -2.5t8.5 -9t0.5 -14q-1 -5 -7.5 -18t-12.5 -27t-9.5 -26.5t2.5 -15.5q6 -4 15 6t17.5 23.5t15 27t8.5 16.5q-1 -4 -4 -13.5t-8 -21t-11.5 -22.5t-13.5 -17q-13 -12 -32 -3q-2 -5 -5.5 -12t-7 -14.5t-7 -13.5t-4.5 -8
q-5 -8 -13 -21.5t-18.5 -27.5t-24.5 -25.5t-31 -14.5q-20 -5 -27 4.5t-6 23.5q0 12 9.5 27.5t23.5 29t30.5 22t32.5 8.5q-15 -2 -30 -12t-27 -23t-20 -27t-9 -23q-2 -10 0 -17t12 -5q12 1 26.5 18t28.5 41t27 50.5t22 47.5q2 8 4 12q-30 -38 -45.5 -51t-17.5 -13
q-17 -3 -26 11q-5 7 -4 15t5 14q7 13 15 30t13.5 33t7.5 27t-4 11q-5 0 -1.5 1.5t9 0.5t11 -6.5t6.5 -20.5q1 -12 -5 -28t-13 -31t-13 -26.5t-6 -14.5v-1q1 -3 7.5 1t15.5 12t19 19t19 23zM108 238q-4 -7 -10.5 -13.5t-12.5 -11t-10.5 -6t-3.5 2.5t5 13.5t6.5 18t0.5 12
t-12 -3.5q3 8 11 11t15.5 1t11.5 -8.5t-1 -15.5z" />
    <glyph glyph-name="ydieresis" unicode="&#xff;" horiz-adv-x="134" 
d="M56 105q11 15 19.5 30.5t14.5 34.5q1 5 7 5.5t11 -2.5t8.5 -9t0.5 -14q-1 -5 -7.5 -18t-12.5 -27t-9.5 -26.5t2.5 -15.5q6 -4 15 6t17.5 23.5t15 27t8.5 16.5q-1 -4 -4 -13.5t-8 -21t-11.5 -22.5t-13.5 -17q-13 -12 -32 -3q-2 -5 -5.5 -12t-7 -14.5t-7 -13.5t-4.5 -8
q-5 -8 -13 -21.5t-18.5 -27.5t-24.5 -25.5t-31 -14.5q-20 -5 -27 4.5t-6 23.5q0 12 9.5 27.5t23.5 29t30.5 22t32.5 8.5q-15 -2 -30 -12t-27 -23t-20 -27t-9 -23q-2 -10 0 -17t12 -5q12 1 26.5 18t28.5 41t27 50.5t22 47.5q2 8 4 12q-30 -38 -45.5 -51t-17.5 -13
q-17 -3 -26 11q-5 7 -4 15t5 14q7 13 15 30t13.5 33t7.5 27t-4 11q-5 0 -1.5 1.5t9 0.5t11 -6.5t6.5 -20.5q1 -12 -5 -28t-13 -31t-13 -26.5t-6 -14.5v-1q1 -3 7.5 1t15.5 12t19 19t19 23zM86 238q-4 -7 -10.5 -13.5t-12.5 -11t-10.5 -6t-3.5 2.5t5 13.5t6.5 18t0.5 12
t-12 -3.5q3 8 11 11t15.5 1t11.5 -8.5t-1 -15.5zM119 238q-4 -7 -10.5 -13.5t-12.5 -11t-10.5 -6t-3.5 2.5t5.5 13t7.5 17.5t2.5 13t-7.5 0.5q3 6 10 7.5t13 -0.5t8.5 -8t-2.5 -15z" />
    <glyph glyph-name="Agrave" unicode="&#xc0;" horiz-adv-x="370" 
d="M277 -10q-11 2 -19.5 13.5t-6.5 32.5q2 36 15.5 69t27.5 60q-20 -3 -40.5 -6.5t-38.5 -8.5q-10 -11 -32 -36t-47.5 -50.5t-49.5 -46.5t-37 -25q-6 -2 -11.5 -3t-10.5 -1q-20 0 -27 17t-5 48q1 -5 1.5 -11.5t2 -13t4.5 -12t10 -6.5q9 -2 22 5t28 18.5t31 26t31 28.5
q-11 0 -25 6.5t-13 18.5q3 31 41.5 45.5t93.5 22.5q17 15 33 30t33 30l1 1l4 3l-3 -2q44 37 73 59t47.5 34t28.5 15.5t16 3.5q9 0 13.5 -4.5t4.5 -10.5q-3 -7 -8 -9q-18 -9 -36.5 -28.5t-35 -41t-29 -41t-18.5 -29.5q17 1 31 1h25q46 0 62.5 -2t16.5 -4q0 -1 -12.5 -2
t-32.5 -3t-46.5 -4.5t-54.5 -6.5q-9 -16 -19 -34.5t-18.5 -37.5t-15 -38t-7.5 -36q0 -8 1.5 -14t7.5 -11q13 -3 27.5 13t28 38.5t24.5 45.5t16 34q-1 -10 -8 -29t-17.5 -39.5t-22.5 -38.5t-21 -25q-4 -3 -13 -7t-21 -2v1zM377 294q-29 -23 -60.5 -51.5t-63.5 -57.5
q13 2 26.5 2.5t26.5 1.5q14 19 31 49t40 56zM109 104q-1 -6 8 -8t15 -2q12 11 25 22.5t25 23.5q-29 -8 -50 -17t-23 -19zM449 431q-5 9 -1 15.5t11.5 8.5t15.5 -1t11 -11q-11 7 -12.5 3.5t1 -12t6.5 -18t5 -13.5t-3.5 -2.5t-10.5 6t-12.5 11t-10.5 13.5z" />
    <glyph glyph-name="Aacute" unicode="&#xc1;" horiz-adv-x="370" 
d="M277 -10q-11 2 -19.5 13.5t-6.5 32.5q2 36 15.5 69t27.5 60q-20 -3 -40.5 -6.5t-38.5 -8.5q-10 -11 -32 -36t-47.5 -50.5t-49.5 -46.5t-37 -25q-6 -2 -11.5 -3t-10.5 -1q-20 0 -27 17t-5 48q1 -5 1.5 -11.5t2 -13t4.5 -12t10 -6.5q9 -2 22 5t28 18.5t31 26t31 28.5
q-11 0 -25 6.5t-13 18.5q3 31 41.5 45.5t93.5 22.5q17 15 33 30t33 30l1 1l4 3l-3 -2q44 37 73 59t47.5 34t28.5 15.5t16 3.5q9 0 13.5 -4.5t4.5 -10.5q-3 -7 -8 -9q-18 -9 -36.5 -28.5t-35 -41t-29 -41t-18.5 -29.5q17 1 31 1h25q46 0 62.5 -2t16.5 -4q0 -1 -12.5 -2
t-32.5 -3t-46.5 -4.5t-54.5 -6.5q-9 -16 -19 -34.5t-18.5 -37.5t-15 -38t-7.5 -36q0 -8 1.5 -14t7.5 -11q13 -3 27.5 13t28 38.5t24.5 45.5t16 34q-1 -10 -8 -29t-17.5 -39.5t-22.5 -38.5t-21 -25q-4 -3 -13 -7t-21 -2v1zM377 294q-29 -23 -60.5 -51.5t-63.5 -57.5
q13 2 26.5 2.5t26.5 1.5q14 19 31 49t40 56zM109 104q-1 -6 8 -8t15 -2q12 11 25 22.5t25 23.5q-29 -8 -50 -17t-23 -19zM524 431q-4 -7 -10.5 -13.5t-12.5 -11t-10.5 -6t-3.5 2.5t5 13.5t6.5 18t0.5 12t-12 -3.5q3 8 11 11t15.5 1t11.5 -8.5t-1 -15.5z" />
    <glyph glyph-name="Atilde" unicode="&#xc3;" horiz-adv-x="370" 
d="M277 -10q-11 2 -19.5 13.5t-6.5 32.5q2 36 15.5 69t27.5 60q-20 -3 -40.5 -6.5t-38.5 -8.5q-10 -11 -32 -36t-47.5 -50.5t-49.5 -46.5t-37 -25q-6 -2 -11.5 -3t-10.5 -1q-20 0 -27 17t-5 48q1 -5 1.5 -11.5t2 -13t4.5 -12t10 -6.5q9 -2 22 5t28 18.5t31 26t31 28.5
q-11 0 -25 6.5t-13 18.5q3 31 41.5 45.5t93.5 22.5q17 15 33 30t33 30l1 1l4 3l-3 -2q44 37 73 59t47.5 34t28.5 15.5t16 3.5q9 0 13.5 -4.5t4.5 -10.5q-3 -7 -8 -9q-18 -9 -36.5 -28.5t-35 -41t-29 -41t-18.5 -29.5q17 1 31 1h25q46 0 62.5 -2t16.5 -4q0 -1 -12.5 -2
t-32.5 -3t-46.5 -4.5t-54.5 -6.5q-9 -16 -19 -34.5t-18.5 -37.5t-15 -38t-7.5 -36q0 -8 1.5 -14t7.5 -11q13 -3 27.5 13t28 38.5t24.5 45.5t16 34q-1 -10 -8 -29t-17.5 -39.5t-22.5 -38.5t-21 -25q-4 -3 -13 -7t-21 -2v1zM377 294q-29 -23 -60.5 -51.5t-63.5 -57.5
q13 2 26.5 2.5t26.5 1.5q14 19 31 49t40 56zM497 396q-8 1 -10.5 5.5t-3.5 10t-1.5 9.5t-3.5 5q-5 2 -15 -3t-10 -14q0 -4 4.5 -3.5t7.5 -0.5q-2 -1 -5 -1q-5 -2 -9 0q-5 2 -5.5 7t2.5 11q5 11 14.5 18t17.5 4t7.5 -11t1.5 -15q1 -5 6.5 -6t11.5 1.5t9.5 8.5t1.5 15
q-1 5 1.5 3.5t4.5 -5.5q9 -15 -1.5 -28t-25.5 -11zM109 104q-1 -6 8 -8t15 -2q12 11 25 22.5t25 23.5q-29 -8 -50 -17t-23 -19z" />
    <glyph glyph-name="Adieresis" unicode="&#xc4;" horiz-adv-x="370" 
d="M277 -10q-11 2 -19.5 13.5t-6.5 32.5q2 36 15.5 69t27.5 60q-20 -3 -40.5 -6.5t-38.5 -8.5q-10 -11 -32 -36t-47.5 -50.5t-49.5 -46.5t-37 -25q-6 -2 -11.5 -3t-10.5 -1q-20 0 -27 17t-5 48q1 -5 1.5 -11.5t2 -13t4.5 -12t10 -6.5q9 -2 22 5t28 18.5t31 26t31 28.5
q-11 0 -25 6.5t-13 18.5q3 31 41.5 45.5t93.5 22.5l71 64l-3 -2q44 37 73 59t47.5 34t28.5 15.5t16 3.5q9 0 13.5 -4.5t4.5 -10.5q-3 -7 -8 -9q-18 -9 -36.5 -28.5t-35 -41t-29 -41t-18.5 -29.5q17 1 31 1h25q46 0 62.5 -2t16.5 -4q0 -1 -12.5 -2t-32.5 -3t-46.5 -4.5
t-54.5 -6.5q-9 -16 -19 -34.5t-18.5 -37.5t-15 -38t-7.5 -36q0 -8 1.5 -14t7.5 -11q13 -3 27.5 13t28 38.5t24.5 45.5t16 34q-1 -10 -8 -29t-17.5 -39.5t-22.5 -38.5t-21 -25q-4 -3 -13 -7t-21 -2v1zM377 294q-29 -23 -60.5 -51.5t-63.5 -57.5q13 2 26.5 2.5t26.5 1.5
q14 19 31 49t40 56zM109 104q-1 -6 8 -8t15 -2q12 11 25 22.5t25 23.5q-29 -8 -50 -17t-23 -19zM503 431q-4 -7 -10.5 -13.5t-12.5 -11t-10.5 -6t-3.5 2.5t5 13.5t6.5 18t0.5 12t-12 -3.5q3 8 11 11t15.5 1t11.5 -8.5t-1 -15.5zM536 431q-4 -7 -10.5 -13.5t-12.5 -11
t-10.5 -6t-3.5 2.5t5.5 13t7.5 17.5t2.5 13t-7.5 0.5q3 6 10 7.5t13 -0.5t8.5 -8t-2.5 -15z" />
    <glyph glyph-name="AE" unicode="&#xc6;" horiz-adv-x="640" 
d="M277 -10q-11 2 -19.5 13.5t-6.5 32.5q2 36 15.5 69t27.5 60q-20 -3 -40.5 -6.5t-38.5 -8.5q-10 -11 -32 -36t-47.5 -50.5t-49.5 -46.5t-37 -25q-6 -2 -11.5 -3t-10.5 -1q-20 0 -27 17t-5 48q1 -5 1.5 -11.5t2 -13t4.5 -12t10 -6.5q9 -2 22 5t28 18.5t31 26t31 28.5
q-11 0 -25 6.5t-13 18.5q3 31 41.5 45.5t93.5 22.5q17 16 33.5 31t33.5 30l4 3l-3 -2q44 37 73 59t47.5 34t28.5 15.5t16 3.5q9 0 13.5 -4.5t4.5 -10.5q-3 -7 -8 -9q-14 -8 -27.5 -20t-27.5 -28q36 18 75 30.5t70 17.5q11 8 20 15t26 6q12 -1 12 -6.5t1 -9.5h59t62 -3.5
t50 -14t24 -31.5q2 -14 -6 -29.5t-24 -27.5q4 7 12.5 21.5t8.5 28.5q0 19 -24.5 28t-57.5 11.5t-66 1t-50 -1.5q-18 -15 -34 -34.5t-30.5 -40t-26 -39t-18.5 -30.5q7 0 13 0.5t13 0.5q34 0 56.5 -2.5t36 -5.5t19.5 -5.5t7 -2.5q0 -2 -4.5 -2h-10.5q-9 0 -18.5 0.5t-18.5 0.5
q-58 0 -110 -11q-17 -28 -32 -58.5t-23 -56.5q-5 -17 5 -19t24 -2q19 0 43 5.5t49 14.5t48.5 20t42.5 23q9 5 15 8.5t8 3.5h1q0 -2 -34 -26q-10 -7 -29 -19t-44 -24t-55 -21t-61 -9q-5 0 -12 0.5t-13.5 4t-11.5 11t-5 21.5q0 15 6 31.5t11 29.5q-1 0 -2 -1q-11 0 -21 4
t-13 14q-5 -14 -13 -29.5t-16.5 -30.5t-17 -27t-15.5 -18q-4 -3 -13 -7t-21 -2v1zM545 313q-3 0 -20.5 -3.5t-41.5 -10.5t-50.5 -19t-47.5 -28q-12 -17 -23 -35t-16 -26q17 1 31 1h25q23 0 38.5 -0.5t24.5 -1.5q17 25 38.5 60.5t41.5 62.5zM460 183q-20 -2 -53.5 -5
t-71.5 -8q-9 -16 -19 -34.5t-18.5 -37.5t-15 -38t-7.5 -36q0 -8 1.5 -14t7.5 -11q11 -3 23 8.5t24 29.5t22.5 39t18.5 36q0 13 8 23t19.5 16.5t25 11t26.5 7.5zM377 294q-29 -23 -60.5 -51.5t-63.5 -57.5q13 2 26.5 2.5t26.5 1.5q14 19 31 49t40 56zM109 104q-1 -6 8 -8
t15 -2q12 11 25 22.5t25 23.5q-29 -8 -50 -17t-23 -19zM420 92q5 11 10 21.5t10 21.5q-17 -7 -27 -15t-10 -18q0 -6 5.5 -8t11.5 -2z" />
    <glyph glyph-name="Egrave" unicode="&#xc8;" horiz-adv-x="345" 
d="M478 230q4 7 12.5 21.5t8.5 28.5q0 19 -24.5 28t-57.5 11.5t-66 1t-50 -1.5q-18 -15 -34 -34.5t-30.5 -40t-26 -39t-18.5 -30.5q7 0 13 0.5t13 0.5q34 0 56.5 -2.5t36 -5.5t19.5 -5.5t7 -2.5q0 -2 -4.5 -2h-10.5q-9 0 -18.5 0.5t-18.5 0.5q-58 0 -110 -11
q-17 -28 -32 -58.5t-23 -56.5q-5 -17 5 -19t24 -2q19 0 43 5.5t49 14.5t48.5 20t42.5 23q9 5 15 8.5t8 3.5h1q0 -2 -34 -26q-10 -7 -29 -19t-44 -24t-55 -21t-61 -9q-5 0 -12 0.5t-13.5 4t-11.5 11t-5 21.5q0 15 6 31.5t11 29.5q-1 0 -2 -1q-12 0 -23.5 6t-11.5 20
q0 13 7.5 23t19 17t25.5 11.5t27 7.5q7 9 18 26.5t24 37.5t26.5 41t25.5 38q-3 0 -20 -4.5t-40 -13t-49 -20.5t-47 -27.5t-34 -34t-11 -38.5q1 -6 5.5 -11t9.5 -8t9 -5t4 -3q-27 5 -41.5 16.5t-14.5 31.5q0 33 26.5 56t64 39t78.5 25.5t70 14.5q11 8 20 15t26 6
q12 -1 12 -6.5t1 -9.5h59t62 -3.5t50 -14t24 -31.5q2 -14 -6 -29.5t-24 -27.5zM276 431q-5 9 -1 15.5t11.5 8.5t15.5 -1t11 -11q-11 7 -12.5 3.5t1 -12t6.5 -18t5 -13.5t-3.5 -2.5t-10.5 6t-12.5 11t-10.5 13.5zM111 92q5 11 10 21.5t10 21.5q-17 -7 -27 -15t-10 -18
q0 -6 5.5 -8t11.5 -2z" />
    <glyph glyph-name="Eacute" unicode="&#xc9;" horiz-adv-x="345" 
d="M478 230q4 7 12.5 21.5t8.5 28.5q0 19 -24.5 28t-57.5 11.5t-66 1t-50 -1.5q-18 -15 -34 -34.5t-30.5 -40t-26 -39t-18.5 -30.5q7 0 13 0.5t13 0.5q34 0 56.5 -2.5t36 -5.5t19.5 -5.5t7 -2.5q0 -2 -4.5 -2h-10.5q-9 0 -18.5 0.5t-18.5 0.5q-58 0 -110 -11
q-17 -28 -32 -58.5t-23 -56.5q-5 -17 5 -19t24 -2q19 0 43 5.5t49 14.5t48.5 20t42.5 23q9 5 15 8.5t8 3.5h1q0 -2 -34 -26q-10 -7 -29 -19t-44 -24t-55 -21t-61 -9q-5 0 -12 0.5t-13.5 4t-11.5 11t-5 21.5q0 15 6 31.5t11 29.5q-1 0 -2 -1q-12 0 -23.5 6t-11.5 20
q0 13 7.5 23t19 17t25.5 11.5t27 7.5q7 9 18 26.5t24 37.5t26.5 41t25.5 38q-3 0 -20 -4.5t-40 -13t-49 -20.5t-47 -27.5t-34 -34t-11 -38.5q1 -6 5.5 -11t9.5 -8t9 -5t4 -3q-27 5 -41.5 16.5t-14.5 31.5q0 33 26.5 56t64 39t78.5 25.5t70 14.5q11 8 20 15t26 6
q12 -1 12 -6.5t1 -9.5h59t62 -3.5t50 -14t24 -31.5q2 -14 -6 -29.5t-24 -27.5zM352 431q-4 -7 -10.5 -13.5t-12.5 -11t-10.5 -6t-3.5 2.5t5 13.5t6.5 18t0.5 12t-12 -3.5q3 8 11 11t15.5 1t11.5 -8.5t-1 -15.5zM111 92q5 11 10 21.5t10 21.5q-17 -7 -27 -15t-10 -18
q0 -6 5.5 -8t11.5 -2z" />
    <glyph glyph-name="Edieresis" unicode="&#xcb;" horiz-adv-x="345" 
d="M478 230q4 7 12.5 21.5t8.5 28.5q0 19 -24.5 28t-57.5 11.5t-66 1t-50 -1.5q-18 -15 -34 -34.5t-30.5 -40t-26 -39t-18.5 -30.5q7 0 13 0.5t13 0.5q34 0 56.5 -2.5t36 -5.5t19.5 -5.5t7 -2.5q0 -2 -4.5 -2h-10.5q-9 0 -18.5 0.5t-18.5 0.5q-58 0 -110 -11
q-17 -28 -32 -58.5t-23 -56.5q-5 -17 5 -19t24 -2q19 0 43 5.5t49 14.5t48.5 20t42.5 23q9 5 15 8.5t8 3.5h1q0 -2 -34 -26q-10 -7 -29 -19t-44 -24t-55 -21t-61 -9q-5 0 -12 0.5t-13.5 4t-11.5 11t-5 21.5q0 15 6 31.5t11 29.5q-1 0 -2 -1q-12 0 -23.5 6t-11.5 20
q0 13 7.5 23t19 17t25.5 11.5t27 7.5q7 9 18 26.5t24 37.5t26.5 41t25.5 38q-3 0 -20 -4.5t-40 -13t-49 -20.5t-47 -27.5t-34 -34t-11 -38.5q1 -6 5.5 -11t9.5 -8t9 -5t4 -3q-27 5 -41.5 16.5t-14.5 31.5q0 33 26.5 56t64 39t78.5 25.5t70 14.5q11 8 20 15t26 6
q12 -1 12 -6.5t1 -9.5h59t62 -3.5t50 -14t24 -31.5q2 -14 -6 -29.5t-24 -27.5zM326 431q-4 -7 -10.5 -13.5t-12.5 -11t-10.5 -6t-3.5 2.5t5 13.5t6.5 18t0.5 12t-12 -3.5q3 8 11 11t15.5 1t11.5 -8.5t-1 -15.5zM359 431q-4 -7 -10.5 -13.5t-12.5 -11t-10.5 -6t-3.5 2.5
t5.5 13t7.5 17.5t2.5 13t-7.5 0.5q3 6 10 7.5t13 -0.5t8.5 -8t-2.5 -15zM111 92q5 11 10 21.5t10 21.5q-17 -7 -27 -15t-10 -18q0 -6 5.5 -8t11.5 -2z" />
    <glyph glyph-name="Igrave" unicode="&#xcc;" horiz-adv-x="218" 
d="M293 329q9 1 27.5 3.5t40.5 4t45.5 0.5t43 -5.5t32.5 -15t15 -27.5q1 -9 -3.5 -20.5t-11.5 -21.5t-14.5 -17t-12.5 -7q0 1 4 5.5t4 5.5q24 30 21 50q-2 22 -29 31.5t-93 5.5q-18 -1 -38 -4t-41 -8q-9 -14 -22.5 -38.5t-28.5 -54.5t-30 -61.5t-26.5 -58.5t-17.5 -46
t-4 -24q25 0 49 -3t44 -6.5t34.5 -7t22.5 -5.5q20 -7 28.5 -10.5t8.5 -5.5q0 -1 -4 -1q-7 0 -17 3q-26 6 -56 9t-60 3q-14 0 -27 -0.5t-26 -1.5q2 -4 3.5 -6.5t9.5 -3.5q1 0 -3.5 -1t-10.5 -1.5t-12.5 1.5t-7.5 8q-37 -5 -62 -14.5t-24 -23.5q0 -6 3.5 -7.5t8 -2t8.5 -1.5
t4 -5q-7 0 -15.5 1t-15.5 3.5t-12 7.5t-5 14q-1 15 7.5 25.5t23 17t33.5 9.5t39 5q0 2 0.5 4.5t0.5 4.5q7 34 22.5 72.5t33 75t33.5 67.5t24 49q-4 -2 -18.5 -6t-34 -11t-41 -17.5t-38 -23.5t-26 -30t-5.5 -37q1 -8 6 -12.5t9.5 -8t8.5 -5.5t4 -3q-55 10 -58 48q-2 30 18 52
t51.5 37.5t68 25t68.5 15.5q11 9 14 18t15 11q6 1 9.5 -1.5t4.5 -6.5t1 -8t-1 -7zM269 429q-5 9 -1 15.5t11.5 8.5t15.5 -1t11 -11q-11 7 -12.5 3.5t1 -12t6.5 -18t5 -13.5t-3.5 -2.5t-10.5 6t-12.5 11t-10.5 13.5z" />
    <glyph glyph-name="Iacute" unicode="&#xcd;" horiz-adv-x="218" 
d="M293 329q9 1 27.5 3.5t40.5 4t45.5 0.5t43 -5.5t32.5 -15t15 -27.5q1 -9 -3.5 -20.5t-11.5 -21.5t-14.5 -17t-12.5 -7q0 1 4 5.5t4 5.5q24 30 21 50q-2 22 -29 31.5t-93 5.5q-18 -1 -38 -4t-41 -8q-9 -14 -22.5 -38.5t-28.5 -54.5t-30 -61.5t-26.5 -58.5t-17.5 -46
t-4 -24q25 0 49 -3t44 -6.5t34.5 -7t22.5 -5.5q20 -7 28.5 -10.5t8.5 -5.5q0 -1 -4 -1q-7 0 -17 3q-26 6 -56 9t-60 3q-14 0 -27 -0.5t-26 -1.5q2 -4 3.5 -6.5t9.5 -3.5q1 0 -3.5 -1t-10.5 -1.5t-12.5 1.5t-7.5 8q-37 -5 -62 -14.5t-24 -23.5q0 -6 3.5 -7.5t8 -2t8.5 -1.5
t4 -5q-7 0 -15.5 1t-15.5 3.5t-12 7.5t-5 14q-1 15 7.5 25.5t23 17t33.5 9.5t39 5q0 2 0.5 4.5t0.5 4.5q7 34 22.5 72.5t33 75t33.5 67.5t24 49q-4 -2 -18.5 -6t-34 -11t-41 -17.5t-38 -23.5t-26 -30t-5.5 -37q1 -8 6 -12.5t9.5 -8t8.5 -5.5t4 -3q-55 10 -58 48q-2 30 18 52
t51.5 37.5t68 25t68.5 15.5q11 9 14 18t15 11q6 1 9.5 -1.5t4.5 -6.5t1 -8t-1 -7zM329 430q-4 -7 -10.5 -13.5t-12.5 -11t-10.5 -6t-3.5 2.5t5 13.5t6.5 18t0.5 12t-12 -3.5q3 8 11 11t15.5 1t11.5 -8.5t-1 -15.5z" />
    <glyph glyph-name="Idieresis" unicode="&#xcf;" horiz-adv-x="218" 
d="M293 329q9 1 27.5 3.5t40.5 4t45.5 0.5t43 -5.5t32.5 -15t15 -27.5q1 -9 -3.5 -20.5t-11.5 -21.5t-14.5 -17t-12.5 -7q0 1 4 5.5t4 5.5q24 30 21 50q-2 22 -29 31.5t-93 5.5q-18 -1 -38 -4t-41 -8q-9 -14 -22.5 -38.5t-28.5 -54.5t-30 -61.5t-26.5 -58.5t-17.5 -46
t-4 -24q25 0 49 -3t44 -6.5t34.5 -7t22.5 -5.5q20 -7 28.5 -10.5t8.5 -5.5q0 -1 -4 -1q-7 0 -17 3q-26 6 -56 9t-60 3q-14 0 -27 -0.5t-26 -1.5q2 -4 3.5 -6.5t9.5 -3.5q1 0 -3.5 -1t-10.5 -1.5t-12.5 1.5t-7.5 8q-37 -5 -62 -14.5t-24 -23.5q0 -6 3.5 -7.5t8 -2t8.5 -1.5
t4 -5q-7 0 -15.5 1t-15.5 3.5t-12 7.5t-5 14q-1 15 7.5 25.5t23 17t33.5 9.5t39 5q0 2 0.5 4.5t0.5 4.5q7 34 22.5 72.5t33 75t33.5 67.5t24 49q-4 -2 -18.5 -6t-34 -11t-41 -17.5t-38 -23.5t-26 -30t-5.5 -37q1 -8 6 -12.5t9.5 -8t8.5 -5.5t4 -3q-55 10 -58 48q-2 30 18 52
t51.5 37.5t68 25t68.5 15.5q11 9 14 18t15 11q6 1 9.5 -1.5t4.5 -6.5t1 -8t-1 -7zM311 430q-4 -7 -10.5 -13.5t-12.5 -11t-10.5 -6t-3.5 2.5t5 13.5t6.5 18t0.5 12t-12 -3.5q3 8 11 11t15.5 1t11.5 -8.5t-1 -15.5zM344 430q-4 -7 -10.5 -13.5t-12.5 -11t-10.5 -6t-3.5 2.5
t5.5 13t7.5 17.5t2.5 13t-7.5 0.5q3 6 10 7.5t13 -0.5t8.5 -8t-2.5 -15z" />
    <glyph glyph-name="Eth" unicode="&#xd0;" horiz-adv-x="432" 
d="M157 189q11 1 21 1.5t19 0.5q23 37 50 71.5t53 57.5q-18 0 -45 -7t-57.5 -19t-60.5 -27.5t-53.5 -33.5t-37.5 -37t-11 -37q1 -8 6 -12t10.5 -6t10 -4t5.5 -5l-14 2q-21 5 -31.5 16.5t-9.5 27.5q1 29 21 51.5t50 40t66 29t69 19t59 10.5t36 3q12 13 25.5 18.5t20.5 5.5
q8 0 14 -4.5t6 -9.5t-4 -7t-11 -6q56 -15 72.5 -50.5t6.5 -76.5t-39 -81.5t-64 -66.5q-39 -29 -87.5 -47t-102.5 -18q-39 0 -62 15t-25 44q-1 13 6 28t19.5 27.5t29.5 22t37 11.5q-36 -19 -57 -40t-20 -40q1 -18 19.5 -29t58.5 -11q-14 5 -17 23t0 31q5 21 17 47t29 54
q-44 -8 -55 -19q-3 -3 -4 1.5t2 12t10 15t19 8.5zM352 316q-24 -17 -47 -41.5t-39 -44.5q-6 -8 -14 -18t-16 -22q17 -2 30.5 -4.5t22.5 -5.5q11 -4 17 -7q-20 4 -40 4.5t-39 -1.5q-12 -18 -24 -37t-21.5 -37.5t-15 -35t-4.5 -29.5q2 -18 18 -19q30 5 63 16.5t62 30.5
q24 16 48.5 38.5t43.5 48t29.5 51t7.5 48t-22 40t-60 25.5z" />
    <glyph glyph-name="Ograve" unicode="&#xd2;" horiz-adv-x="422" 
d="M57 150q-46 8 -46 48q0 15 8 29.5t20.5 28t28 25.5t29.5 21q35 22 66 35.5t58 21t50 10t42 2.5q56 1 90.5 -28.5t34.5 -92.5q0 -29 -11 -60.5t-31 -62.5t-48 -58.5t-61 -47.5t-71.5 -31t-78.5 -8q-41 3 -60 29.5t-20 58.5q-1 29 12.5 58t35 52.5t48.5 39.5t54 20
q-23 -6 -46.5 -24.5t-42 -42.5t-30.5 -51t-12 -51t11.5 -43.5t47.5 -25.5q25 -4 55 5t61 28t59.5 46t51 58.5t36 66.5t13.5 69q0 44 -27.5 62.5t-72.5 18.5q-53 0 -103.5 -23t-89 -53.5t-60.5 -60t-18 -42.5q7 -19 31 -29zM297 431q-5 9 -1 15.5t11.5 8.5t15.5 -1t11 -11
q-11 7 -12.5 3.5t1 -12t6.5 -18t5 -13.5t-3.5 -2.5t-10.5 6t-12.5 11t-10.5 13.5z" />
    <glyph glyph-name="Ntilde" unicode="&#xd1;" horiz-adv-x="419" 
d="M35 134q-27 11 -34 33.5t7 47.5q13 23 37.5 40t52 29t55.5 19.5t48 12.5q40 8 69 4.5t29 -26.5q-1 -17 -14 -37t-33 -52q46 61 82.5 96.5t49.5 43.5q16 10 30 11t24 -5t13.5 -17t-0.5 -25q-19 -58 -48 -118t-61 -134q-1 -2 -4 -11t-5.5 -19.5t-2.5 -19t6 -8.5
q13 0 27.5 13.5t27.5 32.5t22.5 37.5t14.5 29.5q-1 -15 -11 -36.5t-24 -41t-30 -33t-30 -13.5q-18 0 -25 9t-7.5 22.5t4.5 30.5t12 32q5 11 19 43.5t30.5 70.5t31.5 73.5t21 53.5q1 2 2 7.5t-0.5 10.5t-6.5 6t-16 -6q-17 -12 -42.5 -38.5t-53 -57t-52.5 -61t-40 -50.5
q-14 -25 -24.5 -45t-17.5 -43q-8 -25 -4.5 -39t23.5 -11q4 0 1.5 -2.5t-9 -4.5t-15.5 -1t-16 8q-6 7 -9.5 18.5t0.5 27.5q6 31 17.5 60.5t27.5 58.5t34 58t37 60q6 10 12 19t4.5 13.5t-14.5 2t-44 -14.5q-22 -9 -48 -20t-51 -24t-45.5 -27.5t-30.5 -30.5q-12 -18 -12 -29.5
t5.5 -18t11.5 -11t6 -9.5zM396 398q-8 1 -10.5 5.5t-3.5 10t-1.5 9.5t-3.5 5q-5 2 -15 -3t-10 -14q0 -4 4.5 -3.5t7.5 -0.5q-2 -1 -5 -1q-5 -2 -9 0q-5 2 -5.5 7t2.5 11q5 11 14.5 18t17.5 4t7.5 -11t1.5 -15q1 -5 6.5 -6t11.5 1.5t9.5 8.5t1.5 15q-1 5 1.5 3.5t4.5 -5.5
q9 -15 -1.5 -28t-25.5 -11z" />
    <glyph glyph-name="Oacute" unicode="&#xd3;" horiz-adv-x="422" 
d="M57 150q-46 8 -46 48q0 15 8 29.5t20.5 28t28 25.5t29.5 21q35 22 66 35.5t58 21t50 10t42 2.5q56 1 90.5 -28.5t34.5 -92.5q0 -29 -11 -60.5t-31 -62.5t-48 -58.5t-61 -47.5t-71.5 -31t-78.5 -8q-41 3 -60 29.5t-20 58.5q-1 29 12.5 58t35 52.5t48.5 39.5t54 20
q-23 -6 -46.5 -24.5t-42 -42.5t-30.5 -51t-12 -51t11.5 -43.5t47.5 -25.5q25 -4 55 5t61 28t59.5 46t51 58.5t36 66.5t13.5 69q0 44 -27.5 62.5t-72.5 18.5q-53 0 -103.5 -23t-89 -53.5t-60.5 -60t-18 -42.5q7 -19 31 -29zM353 430q-4 -7 -10.5 -13.5t-12.5 -11t-10.5 -6
t-3.5 2.5t5 13.5t6.5 18t0.5 12t-12 -3.5q3 8 11 11t15.5 1t11.5 -8.5t-1 -15.5z" />
    <glyph glyph-name="Otilde" unicode="&#xd5;" horiz-adv-x="422" 
d="M57 150q-46 8 -46 48q0 15 8 29.5t20.5 28t28 25.5t29.5 21q35 22 66 35.5t58 21t50 10t42 2.5q56 1 90.5 -28.5t34.5 -92.5q0 -29 -11 -60.5t-31 -62.5t-48 -58.5t-61 -47.5t-71.5 -31t-78.5 -8q-41 3 -60 29.5t-20 58.5q-1 29 12.5 58t35 52.5t48.5 39.5t54 20
q-23 -6 -46.5 -24.5t-42 -42.5t-30.5 -51t-12 -51t11.5 -43.5t47.5 -25.5q25 -4 55 5t61 28t59.5 46t51 58.5t36 66.5t13.5 69q0 44 -27.5 62.5t-72.5 18.5q-53 0 -103.5 -23t-89 -53.5t-60.5 -60t-18 -42.5q7 -19 31 -29zM346 399q-8 1 -10.5 5.5t-3.5 10t-1.5 9.5t-3.5 5
q-5 2 -15 -3t-10 -14q0 -4 4.5 -3.5t7.5 -0.5q-2 -1 -5 -1q-5 -2 -9 0q-5 2 -5.5 7t2.5 11q5 11 14.5 18t17.5 4t7.5 -11t1.5 -15q1 -5 6.5 -6t11.5 1.5t9.5 8.5t1.5 15q-1 5 1.5 3.5t4.5 -5.5q9 -15 -1.5 -28t-25.5 -11z" />
    <glyph glyph-name="Odieresis" unicode="&#xd6;" horiz-adv-x="422" 
d="M57 150q-46 8 -46 48q0 15 8 29.5t20.5 28t28 25.5t29.5 21q35 22 66 35.5t58 21t50 10t42 2.5q56 1 90.5 -28.5t34.5 -92.5q0 -29 -11 -60.5t-31 -62.5t-48 -58.5t-61 -47.5t-71.5 -31t-78.5 -8q-41 3 -60 29.5t-20 58.5q-1 29 12.5 58t35 52.5t48.5 39.5t54 20
q-23 -6 -46.5 -24.5t-42 -42.5t-30.5 -51t-12 -51t11.5 -43.5t47.5 -25.5q25 -4 55 5t61 28t59.5 46t51 58.5t36 66.5t13.5 69q0 44 -27.5 62.5t-72.5 18.5q-53 0 -103.5 -23t-89 -53.5t-60.5 -60t-18 -42.5q7 -19 31 -29zM350 430q-4 -7 -10.5 -13.5t-12.5 -11t-10.5 -6
t-3.5 2.5t5 13.5t6.5 18t0.5 12t-12 -3.5q3 8 11 11t15.5 1t11.5 -8.5t-1 -15.5zM383 430q-4 -7 -10.5 -13.5t-12.5 -11t-10.5 -6t-3.5 2.5t5.5 13t7.5 17.5t2.5 13t-7.5 0.5q3 6 10 7.5t13 -0.5t8.5 -8t-2.5 -15z" />
    <glyph glyph-name="Ydieresis" unicode="&#x178;" horiz-adv-x="411" 
d="M338 151q6 6 15.5 10.5t18.5 5.5t14.5 -4.5t3.5 -19.5q-3 -17 -14.5 -41t-26 -48.5t-28 -44.5t-19.5 -28q9 -2 19 -5t18.5 -8.5t14.5 -13.5t6 -18q0 -14 -11.5 -30t-23.5 -23q5 7 15.5 19t10.5 25t-7 21.5t-16.5 13t-19.5 6.5t-16 3q-25 -26 -57.5 -47t-72.5 -21
q-22 0 -42.5 6t-20.5 26q2 30 36.5 41t81.5 11q12 0 23 -0.5t24 -1.5q6 6 18.5 24t25.5 37t24 35.5l13 19.5q-13 -14 -29 -32.5t-34.5 -35.5t-39 -29.5t-42.5 -14.5q-16 -2 -27.5 8t-11.5 33q0 12 3.5 27.5t12.5 35.5q10 23 26 57.5t31.5 69t26.5 64t11 43.5q0 9 -10 9
q-12 0 -35 -6t-49.5 -16.5t-54 -25t-49 -30.5t-34.5 -33.5t-10 -34.5q2 -11 9 -18t17 -14q-26 10 -39 22t-13 33q0 23 16.5 42t42 34.5t55.5 26.5t57.5 18.5t47.5 11t25 3.5q26 0 38 -11.5t12 -31.5q0 -13 -4 -27t-9 -25q-3 -7 -11 -25t-18.5 -41.5t-21.5 -49.5t-20 -49
t-15 -39.5t-6 -21.5q0 -20 15.5 -20.5t39.5 14t52 42.5t54 66q7 11 8 16.5t-2.5 7.5t-9.5 0.5t-12 -3.5zM169 -85q24 8 45.5 23.5t39.5 33.5q-28 0 -53 -5t-43.5 -12t-29.5 -15.5t-11 -16.5q0 -6 12 -8.5t19 -2.5q6 0 11.5 1t9.5 2zM359 373q-4 -6 -10 -11t-11 -7t-8.5 -2
t-2.5 4t5.5 12t7.5 14.5t2 9t-12 -3.5q4 7 11.5 9t13.5 -0.5t8 -9t-4 -15.5zM396 374q-4 -6 -10 -11t-11 -7t-8.5 -2t-2.5 4t6 12t8 14.5t1.5 9t-12.5 -3.5q4 7 11.5 9t13.5 -0.5t8 -9t-4 -15.5z" />
    <glyph glyph-name="oe" unicode="&#x153;" horiz-adv-x="237" 
d="M132 33q-19 0 -25.5 10t-6.5 24v2q-16 -18 -31 -18q-6 0 -8 1q-14 -11 -24.5 -16t-24.5 -5q-20 0 -28.5 11t-7.5 28t9.5 36.5t21.5 36t28.5 27.5t31.5 10q14 -1 26 -9t12 -30q0 -14 -8 -39.5t-28 -42.5q6 0 14.5 6.5t17.5 17.5q4 17 14 33.5t24.5 30t31 22t32.5 9.5
q10 1 18 -4t8 -16q0 -14 -12 -27q-2 -3 -8.5 -9t-17 -13t-25.5 -13.5t-34 -9.5q-4 -7 -5 -12t-1 -10q0 -17 20 -19q14 -1 30.5 8.5t30.5 24t25 30.5t15 27q-2 -18 -13 -36t-27.5 -33t-36 -24t-38.5 -9zM48 69q0 12 10 21t23 1q3 0 6.5 10.5t4.5 23t-2.5 23.5t-14.5 11
t-23.5 -10.5t-23.5 -25.5t-17.5 -33t-4.5 -33q1 -9 6.5 -12t12.5 -2.5t14.5 4.5t12.5 9q-4 5 -4 13zM146 105q-2 -2 -3.5 -4.5t-5.5 -8.5q41 14 61 33t20 32q0 5 -3 5q-12 0 -31 -17t-38 -40z" />
    <glyph glyph-name="OE" unicode="&#x152;" horiz-adv-x="658" 
d="M796 230q4 7 12.5 21.5t8.5 28.5q0 19 -24.5 28t-57.5 11.5t-66 1t-50 -1.5q-18 -15 -34 -34.5t-30.5 -40t-26 -39t-18.5 -30.5q7 0 13 0.5t13 0.5q34 0 56.5 -2.5t36 -5.5t19.5 -5.5t7 -2.5q0 -2 -4.5 -2h-10.5q-9 0 -18.5 0.5t-18.5 0.5q-58 0 -110 -11
q-17 -28 -32 -58.5t-23 -56.5q-5 -17 5 -19t24 -2q19 0 43 5.5t49 14.5t48.5 20t42.5 23q9 5 15 8.5t8 3.5h1q0 -2 -34 -26q-10 -7 -29 -19t-44 -24t-55 -21t-61 -9q-5 0 -12 0.5t-13.5 4t-11.5 11t-5 21.5q0 15 6 31.5t11 29.5q-1 0 -2 -1q-12 0 -23.5 6t-11.5 20v6
q-20 -29 -47.5 -55t-60 -44.5t-69 -28.5t-75.5 -7q-41 3 -60 29.5t-20 58.5q-1 29 12.5 58t35 52.5t48.5 39.5t54 20q-23 -6 -46.5 -24.5t-42 -42.5t-30.5 -51t-12 -51t11.5 -43.5t47.5 -25.5q26 -4 58 6t64 31t61.5 50t51.5 63q-37 12 -37 44q0 29 22 51t55 38
q-3 38 -30 54.5t-69 16.5q-53 0 -103.5 -23t-89 -53.5t-60.5 -60t-18 -42.5q7 -19 31 -29l-14 2q-46 8 -46 48q0 15 8 29.5t20.5 28t28 25.5t29.5 21q35 22 66 35.5t58 21t50 10t42 2.5q45 1 76 -18t43 -58q36 14 74 22.5t66 13.5q11 8 20 15t26 6q12 -1 12 -6.5t1 -9.5h59
t62 -3.5t50 -14t24 -31.5q2 -14 -6 -29.5t-24 -27.5zM438 250q0 -49 -31 -105q12 10 28.5 16t32.5 9q7 9 18 26.5t24 37.5t26.5 41t25.5 38q-3 0 -15 -3t-30 -9t-39 -15t-41 -20q0 -4 0.5 -8t0.5 -8zM373 157q28 46 35 92q-22 -16 -35.5 -34.5t-11.5 -39.5q1 -11 12 -18z
M429 92q5 11 10 21.5t10 21.5q-17 -7 -27 -15t-10 -18q0 -6 5.5 -8t11.5 -2z" />
    <glyph glyph-name="Acircumflex" unicode="&#xc2;" horiz-adv-x="370" 
d="M277 -10q-11 2 -19.5 13.5t-6.5 32.5q2 36 15.5 69t27.5 60q-20 -3 -40.5 -6.5t-38.5 -8.5q-10 -11 -32 -36t-47.5 -50.5t-49.5 -46.5t-37 -25q-6 -2 -11.5 -3t-10.5 -1q-20 0 -27 17t-5 48q1 -5 1.5 -11.5t2 -13t4.5 -12t10 -6.5q9 -2 22 5t28 18.5t31 26t31 28.5
q-11 0 -25 6.5t-13 18.5q3 31 41.5 45.5t93.5 22.5q17 15 33 30t33 30l1 1l4 3l-3 -2q44 37 73 59t47.5 34t28.5 15.5t16 3.5q9 0 13.5 -4.5t4.5 -10.5q-3 -7 -8 -9q-18 -9 -36.5 -28.5t-35 -41t-29 -41t-18.5 -29.5q17 1 31 1h25q46 0 62.5 -2t16.5 -4q0 -1 -12.5 -2
t-32.5 -3t-46.5 -4.5t-54.5 -6.5q-9 -16 -19 -34.5t-18.5 -37.5t-15 -38t-7.5 -36q0 -8 1.5 -14t7.5 -11q13 -3 27.5 13t28 38.5t24.5 45.5t16 34q-1 -10 -8 -29t-17.5 -39.5t-22.5 -38.5t-21 -25q-4 -3 -13 -7t-21 -2v1zM377 294q-29 -23 -60.5 -51.5t-63.5 -57.5
q13 2 26.5 2.5t26.5 1.5q14 19 31 49t40 56zM471 411q-9 -8 -17 -8t-12 4.5t-4 11.5t7 13q-4 -11 -0.5 -12t9.5 3.5t13.5 11t12.5 9.5q0 2 2 2t4 -3q3 -4 8.5 -11.5t10.5 -12.5t8 -5.5t3 10.5q5 -7 3.5 -12.5t-7 -8.5t-12.5 -2t-12 7q-6 8 -8 17q-3 -8 -9 -14zM109 104
q-1 -6 8 -8t15 -2q12 11 25 22.5t25 23.5q-29 -8 -50 -17t-23 -19z" />
    <glyph glyph-name="ecircumflex" unicode="&#xea;" horiz-adv-x="112" 
d="M7 33q-19 0 -25.5 10t-6.5 24q0 19 9.5 38.5t24 35t33 26t36.5 11.5q10 1 18 -4t8 -16q0 -14 -12 -27q-2 -3 -8.5 -9t-17 -13t-25.5 -13.5t-34 -9.5q-4 -7 -5 -12t-1 -10q0 -17 20 -19q14 -1 30.5 8.5t30.5 24t25 30.5t15 27q-2 -18 -13 -36t-27.5 -33t-36 -24t-38.5 -9z
M21 105q-2 -2 -3.5 -4.5t-5.5 -8.5q41 14 61 33t20 32q0 5 -3 5q-12 0 -31 -17t-38 -40zM68 221q-9 -8 -17 -8t-12 4.5t-4 11.5t7 13q-4 -11 -0.5 -12t9.5 3.5t13.5 11t12.5 9.5q0 2 2 2t4 -3q3 -4 8.5 -11.5t10.5 -12.5t8 -5.5t3 10.5q5 -7 3.5 -12.5t-7 -8.5t-12.5 -2
t-12 7q-6 8 -8 17q-3 -8 -9 -14z" />
    <glyph glyph-name="Ecircumflex" unicode="&#xca;" horiz-adv-x="345" 
d="M478 230q4 7 12.5 21.5t8.5 28.5q0 19 -24.5 28t-57.5 11.5t-66 1t-50 -1.5q-18 -15 -34 -34.5t-30.5 -40t-26 -39t-18.5 -30.5q7 0 13 0.5t13 0.5q34 0 56.5 -2.5t36 -5.5t19.5 -5.5t7 -2.5q0 -2 -4.5 -2h-10.5q-9 0 -18.5 0.5t-18.5 0.5q-58 0 -110 -11
q-17 -28 -32 -58.5t-23 -56.5q-5 -17 5 -19t24 -2q19 0 43 5.5t49 14.5t48.5 20t42.5 23q9 5 15 8.5t8 3.5h1q0 -2 -34 -26q-10 -7 -29 -19t-44 -24t-55 -21t-61 -9q-5 0 -12 0.5t-13.5 4t-11.5 11t-5 21.5q0 15 6 31.5t11 29.5q-1 0 -2 -1q-12 0 -23.5 6t-11.5 20
q0 13 7.5 23t19 17t25.5 11.5t27 7.5q7 9 18 26.5t24 37.5t26.5 41t25.5 38q-3 0 -20 -4.5t-40 -13t-49 -20.5t-47 -27.5t-34 -34t-11 -38.5q1 -6 5.5 -11t9.5 -8t9 -5t4 -3q-27 5 -41.5 16.5t-14.5 31.5q0 33 26.5 56t64 39t78.5 25.5t70 14.5q11 8 20 15t26 6
q12 -1 12 -6.5t1 -9.5h59t62 -3.5t50 -14t24 -31.5q2 -14 -6 -29.5t-24 -27.5zM302 410q-9 -8 -17 -8t-12 4.5t-4 11.5t7 13q-4 -11 -0.5 -12t9.5 3.5t13.5 11t12.5 9.5q0 2 2 2t4 -3q3 -4 8.5 -11.5t10.5 -12.5t8 -5.5t3 10.5q5 -7 3.5 -12.5t-7 -8.5t-12.5 -2t-12 7
q-6 8 -8 17q-3 -8 -9 -14zM111 92q5 11 10 21.5t10 21.5q-17 -7 -27 -15t-10 -18q0 -6 5.5 -8t11.5 -2z" />
    <glyph glyph-name="Icircumflex" unicode="&#xce;" horiz-adv-x="218" 
d="M293 329q9 1 27.5 3.5t40.5 4t45.5 0.5t43 -5.5t32.5 -15t15 -27.5q1 -9 -3.5 -20.5t-11.5 -21.5t-14.5 -17t-12.5 -7q0 1 4 5.5t4 5.5q24 30 21 50q-2 22 -29 31.5t-93 5.5q-18 -1 -38 -4t-41 -8q-9 -14 -22.5 -38.5t-28.5 -54.5t-30 -61.5t-26.5 -58.5t-17.5 -46
t-4 -24q25 0 49 -3t44 -6.5t34.5 -7t22.5 -5.5q20 -7 28.5 -10.5t8.5 -5.5q0 -1 -4 -1q-7 0 -17 3q-26 6 -56 9t-60 3q-14 0 -27 -0.5t-26 -1.5q2 -4 3.5 -6.5t9.5 -3.5q1 0 -3.5 -1t-10.5 -1.5t-12.5 1.5t-7.5 8q-37 -5 -62 -14.5t-24 -23.5q0 -6 3.5 -7.5t8 -2t8.5 -1.5
t4 -5q-7 0 -15.5 1t-15.5 3.5t-12 7.5t-5 14q-1 15 7.5 25.5t23 17t33.5 9.5t39 5q0 2 0.5 4.5t0.5 4.5q7 34 22.5 72.5t33 75t33.5 67.5t24 49q-4 -2 -18.5 -6t-34 -11t-41 -17.5t-38 -23.5t-26 -30t-5.5 -37q1 -8 6 -12.5t9.5 -8t8.5 -5.5t4 -3q-55 10 -58 48q-2 30 18 52
t51.5 37.5t68 25t68.5 15.5q11 9 14 18t15 11q6 1 9.5 -1.5t4.5 -6.5t1 -8t-1 -7zM287 410q-9 -8 -17 -8t-12 4.5t-4 11.5t7 13q-4 -11 -0.5 -12t9.5 3.5t13.5 11t12.5 9.5q0 2 2 2t4 -3q3 -4 8.5 -11.5t10.5 -12.5t8 -5.5t3 10.5q5 -7 3.5 -12.5t-7 -8.5t-12.5 -2t-12 7
q-6 8 -8 17q-3 -8 -9 -14z" />
    <glyph glyph-name="Ocircumflex" unicode="&#xd4;" horiz-adv-x="422" 
d="M57 150q-46 8 -46 48q0 15 8 29.5t20.5 28t28 25.5t29.5 21q35 22 66 35.5t58 21t50 10t42 2.5q56 1 90.5 -28.5t34.5 -92.5q0 -29 -11 -60.5t-31 -62.5t-48 -58.5t-61 -47.5t-71.5 -31t-78.5 -8q-41 3 -60 29.5t-20 58.5q-1 29 12.5 58t35 52.5t48.5 39.5t54 20
q-23 -6 -46.5 -24.5t-42 -42.5t-30.5 -51t-12 -51t11.5 -43.5t47.5 -25.5q25 -4 55 5t61 28t59.5 46t51 58.5t36 66.5t13.5 69q0 44 -27.5 62.5t-72.5 18.5q-53 0 -103.5 -23t-89 -53.5t-60.5 -60t-18 -42.5q7 -19 31 -29zM330 409q-9 -8 -17 -8t-12 4.5t-4 11.5t7 13
q-4 -11 -0.5 -12t9.5 3.5t13.5 11t12.5 9.5q0 2 2 2t4 -3q3 -4 8.5 -11.5t10.5 -12.5t8 -5.5t3 10.5q5 -7 3.5 -12.5t-7 -8.5t-12.5 -2t-12 7q-6 8 -8 17q-3 -8 -9 -14z" />
    <glyph glyph-name="ocircumflex" unicode="&#xf4;" horiz-adv-x="125" 
d="M69 59q6 0 14.5 6.5t17.5 16.5t16.5 21t11.5 20q-2 -11 -8.5 -23.5t-15 -23.5t-18.5 -18t-18 -7q-6 0 -8 1q-14 -11 -24.5 -16t-24.5 -5q-20 0 -28.5 11t-7.5 28t9.5 36.5t21.5 36t28.5 27.5t31.5 10q14 -1 26 -9t12 -30q0 -14 -8 -39.5t-28 -42.5zM48 69q0 12 10 21
t23 1q3 0 6.5 10.5t4.5 23t-2.5 23.5t-14.5 11t-23.5 -10.5t-23.5 -25.5t-17.5 -33t-4.5 -33q1 -9 6.5 -12t12.5 -2.5t14.5 4.5t12.5 9q-4 5 -4 13zM71 222q-9 -8 -17 -8t-12 4.5t-4 11.5t7 13q-4 -11 -0.5 -12t9.5 3.5t13.5 11t12.5 9.5q0 2 2 2t4 -3q3 -4 8.5 -11.5
t10.5 -12.5t8 -5.5t3 10.5q5 -7 3.5 -12.5t-7 -8.5t-12.5 -2t-12 7q-6 8 -8 17q-3 -8 -9 -14z" />
    <glyph glyph-name="ucircumflex" unicode="&#xfb;" horiz-adv-x="142" 
d="M58 105q23 28 36 67q2 5 7.5 5.5t11 -2.5t8 -9t-0.5 -15q-3 -7 -9 -20t-12.5 -27.5t-12 -29t-5.5 -24.5q0 -4 1 -5q5 -7 16 2t22.5 24.5t22.5 34t16 30.5q-8 -23 -20.5 -48.5t-30.5 -42.5q-5 -4 -12.5 -7.5t-15.5 -2.5q-9 1 -15.5 6.5t-7.5 17.5q-1 5 1 15.5t7 24.5
q-32 -38 -48.5 -51t-18.5 -13q-17 -3 -25 10.5t2 29.5q8 12 16 29.5t13.5 33.5t7 27t-4.5 11q-5 0 -0.5 1.5t11 0.5t13 -6.5t6.5 -20.5q0 -12 -7.5 -29.5t-16 -33.5t-15 -28.5t-3.5 -13.5q3 -2 9.5 2.5t15.5 13.5t19 20t19 23zM69 219q-9 -8 -17 -8t-12 4.5t-4 11.5t7 13
q-4 -11 -0.5 -12t9.5 3.5t13.5 11t12.5 9.5q0 2 2 2t4 -3q3 -4 8.5 -11.5t10.5 -12.5t8 -5.5t3 10.5q5 -7 3.5 -12.5t-7 -8.5t-12.5 -2t-12 7q-6 8 -8 17q-3 -8 -9 -14z" />
    <glyph glyph-name="oslash" unicode="&#xf8;" horiz-adv-x="125" 
d="M4 34q-5 -14 -2.5 -23.5t7.5 -14t9.5 -4.5t1.5 5q-4 7 2 30.5t19.5 54t34 63.5t44.5 61l-12 -11t-30 -32.5t-38 -54t-36 -74.5zM69 59q6 0 14.5 6.5t17.5 16.5t16.5 21t11.5 20q-2 -11 -8.5 -23.5t-15 -23.5t-18.5 -18t-18 -7q-6 0 -8 1q-14 -11 -24.5 -16t-24.5 -5
q-20 0 -28.5 11t-7.5 28t9.5 36.5t21.5 36t28.5 27.5t31.5 10q14 -1 26 -9t12 -30q0 -14 -8 -39.5t-28 -42.5zM48 69q0 12 10 21t23 1q3 0 6.5 10.5t4.5 23t-2.5 23.5t-14.5 11t-23.5 -10.5t-23.5 -25.5t-17.5 -33t-4.5 -33q1 -9 6.5 -12t12.5 -2.5t14.5 4.5t12.5 9
q-4 5 -4 13z" />
    <glyph glyph-name="Oslash" unicode="&#xd8;" horiz-adv-x="422" 
d="M57 150q-46 8 -46 48q0 15 8 29.5t20.5 28t28 25.5t29.5 21q35 22 66 35.5t58 21t50 10t42 2.5q7 0 13.5 -0.5t13.5 -1.5q22 25 34.5 37t10.5 10l-36 -48q41 -8 65 -37t24 -81q0 -42 -23 -89t-62 -87t-91 -66t-110 -26q-3 -24 4 -35q4 -7 0.5 -8t-10 4t-14.5 15.5
t-11 25.5q-33 8 -48 32.5t-16 53.5t12.5 58t35 52.5t48.5 39.5t54 20q-23 -6 -46.5 -24.5t-42 -42.5t-30.5 -51t-12 -51q0 -22 8.5 -40t35.5 -26q2 16 7 29q20 51 46 98.5t53 88.5t53.5 75t48.5 59q-5 1 -8.5 1h-8.5q-53 0 -103.5 -23t-89 -53.5t-60.5 -60t-18 -42.5
q7 -19 31 -29zM340 354q-28 -41 -57.5 -89t-55 -96t-45 -91.5t-27.5 -76.5q38 2 83 27t83.5 64t64 87t25.5 96q0 36 -19.5 55t-51.5 24z" />
    <glyph glyph-name="fraction" unicode="&#x2044;" horiz-adv-x="359" 
d="M93 -3q-2 12 7 42.5t25 69.5t36 82.5t40 81.5t37.5 66t27.5 37q7 7 14 7.5t11.5 -2.5t5.5 -9t-4 -12q-11 -16 -28 -45t-35.5 -64.5t-37.5 -74.5t-34.5 -75t-26 -66t-12.5 -48q-2 -15 10 -18.5t18 -2.5q1 0 -4.5 -2.5t-13.5 -2.5q-10 0 -21 8t-15 28z" />
    <glyph glyph-name="slash" unicode="/" horiz-adv-x="436" 
d="M118 -3q-2 12 7 42.5t25 69.5t36 82.5t40 81.5t37.5 66t27.5 37q7 7 14 7.5t11.5 -2.5t5.5 -9t-4 -12q-11 -16 -28 -45t-35.5 -64.5t-37.5 -74.5t-34.5 -75t-26 -66t-12.5 -48q-2 -15 10 -18.5t18 -2.5q1 0 -4.5 -2.5t-13.5 -2.5q-10 0 -21 8t-15 28z" />
    <glyph glyph-name="backslash" unicode="\" horiz-adv-x="411" 
d="M328 -3q-4 -20 -15 -28t-21 -8q-8 0 -13.5 2.5t-4.5 2.5q6 -1 18 2.5t10 18.5q-2 18 -12.5 48t-26 66t-34.5 75t-37.5 74.5t-35.5 64.5t-28 45q-5 6 -4 12t5.5 9t11 2.5t14.5 -7.5q10 -9 27.5 -37t37.5 -66t40 -81.5t36 -82.5t25 -69.5t7 -42.5z" />
    <glyph glyph-name="bar" unicode="|" horiz-adv-x="348" 
d="M175 -28q-7 10 -11 41.5t-5.5 73.5t-0.5 90t3.5 91t6.5 75.5t10 44.5q4 9 10.5 12.5t11.5 2t8 -6.5t1 -12q-4 -19 -7 -52.5t-5.5 -73.5t-4 -83t-1 -82.5t3 -71.5t8.5 -49q2 -7 6.5 -10t9.5 -3t10 1.5t8 3.5q-1 -3 -4 -5q-3 -3 -11 -7q-9 -4 -22.5 -0.5t-24.5 20.5z" />
    <glyph glyph-name="percent" unicode="%" horiz-adv-x="450" 
d="M118 262q-7 0 -9 3t-3 8q1 9 9 18.5t16 16.5q18 16 32.5 22t22.5 9q16 3 29 -2.5t13 -23.5q0 -15 -7.5 -32t-20 -30.5t-28 -22.5t-30.5 -9q-14 0 -19.5 8.5t-4.5 19.5t8.5 21.5t18.5 15.5q-6 -4 -11.5 -12t-8.5 -16.5t-2.5 -16.5t6.5 -11t17.5 4.5t23.5 21t21.5 30
t9.5 31.5q1 12 -5 13.5t-19 -1.5q-12 -4 -23.5 -12t-20.5 -17.5t-14.5 -17.5t-4.5 -12q2 -2 3 -3.5t5 -2.5h-4zM227 72q-7 0 -9 3t-3 8q1 9 9 18.5t16 16.5q18 16 32.5 22t22.5 9q16 3 29 -2.5t13 -23.5q0 -15 -7.5 -32t-20 -30.5t-28 -22.5t-30.5 -9q-14 0 -19.5 8.5
t-4.5 19.5t8.5 21.5t18.5 15.5q-6 -4 -11.5 -12t-8.5 -16.5t-2.5 -16.5t6.5 -11t17.5 4.5t23.5 21t21.5 30t9.5 31.5q1 12 -5 13.5t-19 -1.5q-12 -4 -23.5 -12t-20.5 -17.5t-14.5 -17.5t-4.5 -12q2 -2 3 -3.5t5 -2.5h-4zM133 -3q-2 12 7 42.5t25 69.5t36 82.5t40 81.5
t37.5 66t27.5 37q7 7 14 7.5t11.5 -2.5t5.5 -9t-4 -12q-11 -16 -28 -45t-35.5 -64.5t-37.5 -74.5t-34.5 -75t-26 -66t-12.5 -48q-2 -15 10 -18.5t18 -2.5q1 0 -4.5 -2.5t-13.5 -2.5q-10 0 -21 8t-15 28z" />
    <glyph glyph-name="guilsinglleft" unicode="&#x2039;" horiz-adv-x="305" 
d="M112 105q21 -18 40 -42t24 -54q-5 11 -15 24t-24 25q-20 21 -45 34q-19 -18 -32 -14.5t-15.5 14t6.5 21t33 6.5l13 -4q25 15 46.5 33.5t37 34.5t24 26t7.5 9t-8 -12.5t-20 -28.5t-31 -36.5t-41 -35.5zM71 98q-2 3 -5.5 2.5t-7.5 -3t-6 -5t-1 -2.5q4 0 20 8z" />
    <glyph glyph-name="guilsinglright" unicode="&#x203a;" horiz-adv-x="274" 
d="M144 125q-21 18 -40 42t-24 54q5 -11 15 -24t24 -25q20 -21 45 -34q19 18 32 14.5t15.5 -14t-6.5 -21t-33 -6.5l-13 4q-25 -15 -46.5 -33.5t-37 -34.5t-24 -26t-7.5 -9t8 12.5t20 28.5t31 36t41 36zM185 132q2 -3 5.5 -2.5t7.5 3t6 5t1 2.5q-4 0 -20 -8z" />
    <glyph glyph-name="perthousand" unicode="&#x2030;" horiz-adv-x="516" 
d="M116 262q-7 0 -9 3t-3 8q1 9 9 18.5t16 16.5q18 16 32.5 22t22.5 9q16 3 29 -2.5t13 -23.5q0 -15 -7.5 -32t-20 -30.5t-28 -22.5t-30.5 -9q-14 0 -19.5 8.5t-4.5 19.5t8.5 21.5t18.5 15.5q-6 -4 -11.5 -12t-8.5 -16.5t-2.5 -16.5t6.5 -11t17.5 4.5t23.5 21t21.5 30
t9.5 31.5q1 12 -5 13.5t-19 -1.5q-12 -4 -23.5 -12t-20.5 -17.5t-14.5 -17.5t-4.5 -12q2 -2 3 -3.5t5 -2.5h-4zM225 72q-7 0 -9 3t-3 8q1 9 9 18.5t16 16.5q18 16 32.5 22t22.5 9q16 3 29 -2.5t13 -23.5q0 -15 -7.5 -32t-20 -30.5t-28 -22.5t-30.5 -9q-14 0 -19.5 8.5
t-4.5 19.5t8.5 21.5t18.5 15.5q-6 -4 -11.5 -12t-8.5 -16.5t-2.5 -16.5t6.5 -11t17.5 4.5t23.5 21t21.5 30t9.5 31.5q1 12 -5 13.5t-19 -1.5q-12 -4 -23.5 -12t-20.5 -17.5t-14.5 -17.5t-4.5 -12q2 -2 3 -3.5t5 -2.5h-4zM344 72q-7 0 -9 3t-3 8q1 9 9 18.5t16 16.5
q18 16 32.5 22t22.5 9q16 3 29 -2.5t13 -23.5q0 -15 -7.5 -32t-20 -30.5t-28 -22.5t-30.5 -9q-14 0 -19.5 8.5t-4.5 19.5t8.5 21.5t18.5 15.5q-6 -4 -11.5 -12t-8.5 -16.5t-2.5 -16.5t6.5 -11t17.5 4.5t23.5 21t21.5 30t9.5 31.5q1 12 -5 13.5t-19 -1.5q-12 -4 -23.5 -12
t-20.5 -17.5t-14.5 -17.5t-4.5 -12q2 -2 3 -3.5t5 -2.5h-4zM131 -3q-2 12 7 42.5t25 69.5t36 82.5t40 81.5t37.5 66t27.5 37q7 7 14 7.5t11.5 -2.5t5.5 -9t-4 -12q-11 -16 -28 -45t-35.5 -64.5t-37.5 -74.5t-34.5 -75t-26 -66t-12.5 -48q-2 -15 10 -18.5t18 -2.5
q1 0 -4.5 -2.5t-13.5 -2.5q-10 0 -21 8t-15 28z" />
    <glyph glyph-name="ring" unicode="&#x2da;" horiz-adv-x="241" 
d="M100 528q-11 0 -13.5 9t2.5 20q4 9 11.5 15t15 7.5t13.5 -1.5t6 -12q0 -12 -11.5 -25t-23.5 -13zM110 571q-12 -7 -16 -16q-3 -7 -3 -14t3 -9q5 -3 15 9.5t12 24.5q1 5 -2.5 6t-8.5 -1z" />
    <glyph glyph-name="aring" unicode="&#xe5;" 
d="M81 206q-11 0 -13.5 9t2.5 20q4 9 11.5 15t15 7.5t13.5 -1.5t6 -12q0 -12 -11.5 -25t-23.5 -13zM91 249q-12 -7 -16 -16q-3 -7 -3 -14t3 -9q5 -3 15 9.5t12 24.5q1 5 -2.5 6t-8.5 -1zM106 45q10 -3 21 6.5t21 24t18 31t13 28.5q-7 -23 -18 -50t-28 -41q-4 -3 -12 -7
t-16 -2q-13 -2 -22 6q-6 6 -8.5 18t5.5 37q-8 -13 -21 -28.5t-24 -23.5q-23 -17 -38 -8.5t-17 21.5q-2 17 3.5 34t15 32t22.5 26.5t25 17.5q27 13 50 11t35 -10q9 -7 9.5 -21t-18.5 -28q-3 -5 -8.5 -15.5t-9.5 -22.5t-5 -22t7 -14zM98 136q5 5 16 4t13 -6q6 8 4 15
t-9.5 10.5t-19.5 2.5t-25 -7q-14 -6 -26 -17.5t-22 -25t-16 -27.5t-6 -26q0 -10 5.5 -12.5t18.5 7.5q9 7 18.5 17.5t18.5 22t16 22t12 16.5v1z" />
    <glyph glyph-name="bullet" unicode="&#x2022;" horiz-adv-x="313" 
d="M152 238q-24 0 -31.5 19.5t-0.5 42.5q6 18 20.5 30.5t30 16.5t28.5 -2.5t16 -26.5q1 -12 -4 -26t-14 -26t-21 -20t-24 -8z" />
    <glyph glyph-name="Aring" unicode="&#xc5;" horiz-adv-x="370" 
d="M277 -10q-11 2 -19.5 13.5t-6.5 32.5q2 36 15.5 69t27.5 60q-20 -3 -40.5 -6.5t-38.5 -8.5q-10 -11 -32 -36t-47.5 -50.5t-49.5 -46.5t-37 -25q-6 -2 -11.5 -3t-10.5 -1q-20 0 -27 17t-5 48q1 -5 1.5 -11.5t2 -13t4.5 -12t10 -6.5q9 -2 22 5t28 18.5t31 26t31 28.5
q-11 0 -25 6.5t-13 18.5q3 31 41.5 45.5t93.5 22.5q17 15 33 30t33 30l1 1l4 3l-3 -2q44 37 73 59t47.5 34t28.5 15.5t16 3.5q9 0 13.5 -4.5t4.5 -10.5q-3 -7 -8 -9q-18 -9 -36.5 -28.5t-35 -41t-29 -41t-18.5 -29.5q17 1 31 1h25q46 0 62.5 -2t16.5 -4q0 -1 -12.5 -2
t-32.5 -3t-46.5 -4.5t-54.5 -6.5q-9 -16 -19 -34.5t-18.5 -37.5t-15 -38t-7.5 -36q0 -8 1.5 -14t7.5 -11q13 -3 27.5 13t28 38.5t24.5 45.5t16 34q-1 -10 -8 -29t-17.5 -39.5t-22.5 -38.5t-21 -25q-4 -3 -13 -7t-21 -2v1zM377 294q-29 -23 -60.5 -51.5t-63.5 -57.5
q13 2 26.5 2.5t26.5 1.5q14 19 31 49t40 56zM500 400q-11 0 -13.5 9t2.5 20q4 9 11.5 15t15 7.5t13.5 -1.5t6 -12q0 -12 -11.5 -25t-23.5 -13zM109 104q-1 -6 8 -8t15 -2q12 11 25 22.5t25 23.5q-29 -8 -50 -17t-23 -19zM510 443q-12 -7 -16 -16q-3 -7 -3 -14t3 -9
q5 -3 15 9.5t12 24.5q1 5 -2.5 6t-8.5 -1z" />
    <glyph glyph-name="equal" unicode="=" horiz-adv-x="313" 
d="M125 113q38 4 66 2t46.5 -6t27.5 -8l9 -4q-29 5 -58 4.5t-53.5 -4.5t-42 -10t-22.5 -11q-3 -3 -4 1.5t2 12t10 15t19 8.5zM123 74q38 4 66 2t46.5 -6t27.5 -8l9 -4q-29 5 -58 4.5t-53.5 -4.5t-42 -10t-22.5 -11q-3 -3 -4 1.5t2 12t10 15t19 8.5z" />
    <glyph glyph-name="dollar" unicode="$" horiz-adv-x="340" 
d="M202 351q8 9 16 13.5t13.5 5t7 -1t-2.5 -4.5q-3 -2 -7 -6.5t-9 -11.5q13 -7 17 -18.5t-0.5 -22t-16.5 -17t-31 -1.5h-2l-6 -10q34 -17 37.5 -39t-14.5 -42q-14 -15 -34.5 -19t-38.5 -2l-17 -34q-2 -2 -1 7t8 29q-1 0 -1.5 0.5t-1.5 0.5q-15 2 -23 12.5t-7.5 22.5t9.5 23
t26 15q8 2 14.5 1.5t11.5 -3.5q3 8 6.5 15l7.5 15q-17 7 -24 21t3 28q9 13 27 19t33 4zM197 251q-4 12 -18 21q-9 -16 -19 -37q2 -10 -4 -23q2 10 0 16l-19 -40q12 2 24 8t21 14.5t13.5 19t1.5 21.5zM109 192q7 -5 15 -5q7 22 21 54q-7 2 -15 0t-15 -6q-17 -11 -17 -24
t11 -19zM212 333l-23 -41q9 -3 17 1.5t12 12t3.5 15.5t-7.5 12h-2zM191 334q0 1 1 2q-9 -2 -17.5 -7t-13 -12.5t-4 -16t8.5 -15.5q5 12 11.5 24t13.5 25z" />
    <glyph glyph-name="section" unicode="&#xa7;" horiz-adv-x="281" 
d="M163 61q1 10 -2.5 16.5t-9.5 11.5t-13 10t-13 11q-16 18 -11.5 35t20 28t36 13t36.5 -10q-1 0 -1 1q-5 7 -12.5 12.5t-16.5 11.5q-17 13 -18 27.5t8 27t25.5 20t35.5 7.5q27 -1 34 -13.5t1 -27t-22 -24.5t-37 -5q-4 1 -5 5.5t1 2.5q9 -6 20 -3t18.5 10.5t10 16t-5.5 11.5
q-14 6 -28.5 2t-24 -12t-10.5 -19t13 -19q18 -11 25 -25.5t5 -28t-11 -25t-22 -17.5q-20 -9 -38 -6q29 -17 31.5 -41t-19.5 -44q-20 -17 -45 -18.5t-37 8.5q-8 6 -11.5 16.5t-1 21.5t11.5 20.5t27 13.5q23 5 32 -5.5t-6 -33.5q5 13 3 20t-8.5 9t-15 0t-16.5 -6
q-19 -11 -21.5 -23.5t6.5 -19.5q9 -8 22.5 -7.5t26 6.5t22 16.5t11.5 21.5zM139 115q17 -6 37.5 2.5t26.5 25.5q6 15 -9 18.5t-32.5 -1t-27.5 -16.5t5 -29z" />
    <glyph glyph-name="paragraph" unicode="&#xb6;" horiz-adv-x="336" 
d="M147 28q-3 10 7.5 42t27 70t34.5 73.5t31 52.5q-6 2 -13 1.5t-15 1.5q0 -1 -2 -5q-11 -15 -28.5 -48.5t-35 -71t-30.5 -72t-15 -51.5q-1 -9 6.5 -11.5t11.5 -1.5q1 0 -3 -1.5t-9 -1.5t-12.5 5t-9.5 18q-2 11 10 44.5t30 72.5q-14 -9 -24.5 -5.5t-15.5 14.5t-4.5 27.5
t8.5 33.5q6 14 17 24.5t21.5 18t19 11t11.5 4.5q29 8 55 6t46 -4q11 -2 16.5 -6t5.5 -7.5t-4.5 -4.5t-13.5 3q-12 -19 -29.5 -53t-34 -70t-29 -68t-13.5 -48q-2 -9 5.5 -11.5t11.5 -1.5q1 0 -2.5 -1.5t-8.5 -1.5q-6 0 -13.5 5t-9.5 18z" />
    <glyph glyph-name="mu" unicode="&#xb5;" horiz-adv-x="417" 
d="M326 259q-1 -5 -12.5 -26t-24.5 -44.5t-22.5 -43t-6.5 -21.5q6 -5 14.5 1t17.5 16t16 20.5t10 16.5q0 -6 -4.5 -16.5t-12 -21t-19 -17.5t-24.5 -6q-15 1 -16.5 11t3 22.5t12 24.5t11.5 18q-5 -7 -15.5 -21t-23 -27t-26 -22t-24.5 -6q-8 2 -11 4q-14 -31 -23.5 -57.5
t-11.5 -40.5q-2 -10 6 -12.5t12 -1.5q1 0 -3 -1.5t-9 -1.5q-6 0 -13.5 5t-9.5 19q-2 8 4 27.5t16 44.5t23.5 52.5t26.5 52t24 43t18 24.5q9 9 16.5 3.5t0.5 -13.5q-12 -16 -30.5 -50t-36.5 -72q-2 -13 10 -12q7 0 18 8t23 20t25 27.5t25 31.5q15 24 20 36t7 20q0 4 -4 5h4
q25 0 20 -19z" />
    <glyph glyph-name="cent" unicode="&#xa2;" horiz-adv-x="252" 
d="M187 250q3 -8 -3.5 -21.5t-18.5 -26t-29 -21t-35 -6.5l-16 -34q-2 -2 -0.5 7t7.5 28q-15 4 -22 16t-7.5 27.5t5 32.5t14.5 33q8 13 18.5 25.5t22.5 22t24 14t23 3.5l2 -1q8 10 16.5 14.5t14 5.5t7 -0.5t-2.5 -4.5q-3 -2 -8 -7.5t-10 -13.5q11 -7 9.5 -18t-6.5 -20
t-11 -13.5t-4 0.5q8 16 8.5 25.5t-3.5 14.5q-9 -15 -19 -33.5t-20 -39t-19.5 -40t-17.5 -35.5q11 -3 24 4.5t25 18.5t21 23.5t11 19.5zM162 334l1 2q-25 -8 -54 -53q-9 -14 -15 -28t-8.5 -26.5t-0.5 -23t11 -16.5q9 25 25 61.5t41 83.5z" />
    <glyph glyph-name="Euro" unicode="&#x20ac;" horiz-adv-x="274" 
d="M75 287q8 1 15.5 1h14.5q8 13 18.5 25t22 20.5t23.5 13t22 3.5q24 -4 27 -15.5t-2 -23t-12.5 -18.5t-5.5 -1q12 23 8.5 33.5t-13.5 11.5q-26 2 -61 -50q30 -3 39.5 -10t11.5 -9q-9 5 -24.5 7t-32.5 2l-9 -16q21 0 33.5 -3t20 -6.5t10.5 -6.5l4 -4q-11 6 -31.5 8t-41.5 0
q-8 -22 -6.5 -40t19.5 -24q11 -4 24.5 3t26 18.5t21.5 24t11 19.5q3 -8 -3.5 -21.5t-19 -26t-29.5 -21t-35 -6.5q-27 3 -34 24t0 47q-28 -5 -34 -11q-3 -3 -4 0t1 8t8.5 10.5t18.5 6.5q4 0 7.5 0.5t6.5 0.5l7 14q-17 -2 -29.5 -5t-16.5 -7q-3 -3 -4.5 -0.5t1 8t8.5 10.5
t18 6zM183 268h1h-1zM185 241h1h-1z" />
    <glyph glyph-name="sterling" unicode="&#xa3;" horiz-adv-x="276" 
d="M119 264q6 0 11.5 0.5t10.5 0.5l11 23q4 9 11 21.5t16.5 23t21 17t24.5 3.5q20 -5 19.5 -28t-24.5 -45q-6 -6 -0.5 4.5t11 24.5t5 25t-18.5 7q-5 -1 -12.5 -9t-15 -18.5t-13.5 -21t-9 -16.5l-7 -12q11 -1 19 -2.5t13 -3.5q6 -2 10 -4q-23 5 -46 3q-10 -20 -18 -37
t-17 -27q49 -3 72 -18q14 -9 12.5 -9.5t-6.5 1.5q-22 9 -45 10.5t-54 -0.5q-15 -10 -23 -6q-4 -3 -2 6.5t22 14.5h2q9 9 18 25.5t19 36.5q-26 -5 -33 -12q-2 -2 -2 1.5t1.5 8t5.5 8.5t11 4z" />
    <glyph glyph-name="at" unicode="@" horiz-adv-x="408" 
d="M261 59q8 -2 17.5 2.5t17.5 15.5q16 22 23.5 40.5t10.5 34.5t2 28.5t-3 22.5q-6 34 -26 48.5t-45.5 14.5t-53 -12t-50.5 -32q-38 -33 -59.5 -73.5t-24.5 -76.5t14.5 -61t57.5 -28q25 -2 46 2.5t41 13t39 20.5t39 27q-3 -2 -14 -15.5t-31 -28t-50 -25.5t-70 -8
q-51 3 -74.5 33.5t-23.5 73t21 89t60 82.5q22 21 52.5 33.5t60.5 14t55.5 -9.5t39.5 -38q13 -26 14.5 -57.5t-9.5 -60.5q-8 -20 -22 -40t-28 -31q-9 -8 -24 -10t-26 7q-6 6 -8.5 18t5.5 37q-8 -13 -21 -28.5t-24 -23.5q-23 -17 -38 -8.5t-17 21.5q-2 17 3.5 34t15 32
t22.5 26.5t25 17.5q27 13 50 11t35 -10q9 -7 9.5 -21t-18.5 -28q-3 -5 -8.5 -15.5t-9.5 -22.5t-5 -22t7 -14zM253 150q5 5 16 4t13 -6q6 8 4 15t-9.5 10.5t-19.5 2.5t-25 -7q-14 -6 -26 -17.5t-22 -25t-16 -27.5t-6 -26q0 -10 5.5 -12.5t18.5 7.5q9 7 18.5 17.5t18.5 22
t16 22t12 16.5v1z" />
    <glyph glyph-name="copyright" unicode="&#xa9;" horiz-adv-x="413" 
d="M270 326q9 -18 10 -35.5t-3 -33t-11.5 -29t-16.5 -23.5q-11 -13 -36 -28t-54 -13q-30 2 -43.5 19.5t-14 42.5t12 52t35.5 48q13 12 30.5 19.5t35 8t32.5 -6t23 -21.5zM159 174q26 -4 51.5 13.5t39.5 41.5q18 30 17 55.5t-14.5 39.5t-36.5 12.5t-50 -25.5
q-22 -20 -33.5 -42.5t-12 -42.5t9 -34.5t29.5 -17.5zM234 249q2 -6 -3 -15.5t-14 -19t-21.5 -15.5t-25.5 -4q-14 1 -20 9.5t-7 20t3 25t11 25.5q11 20 29.5 34.5t34.5 12.5q18 -3 20 -11.5t-1.5 -16.5t-9.5 -13.5t-4 -1.5q10 17 7 25t-11 9q-18 2 -45 -39q-14 -22 -18 -44
t14 -29q8 -3 18 2.5t19 14t15.5 17.5t8.5 14z" />
    <glyph glyph-name="registered" unicode="&#xae;" horiz-adv-x="515" 
d="M362 326q9 -18 10 -35.5t-3 -33t-11.5 -29t-16.5 -23.5q-3 -4 -6.5 -7t-8.5 -7q7 -6 12 -6q6 -1 5.5 4.5t-2.5 7.5q0 1 2 -2t2 -7q0 -12 -10 -12q-7 0 -17 9q-14 -10 -31.5 -16.5t-35.5 -4.5q-30 2 -43.5 19.5t-14 42.5t12 52t35.5 48q13 12 30.5 19.5t35 8t32.5 -6
t23 -21.5zM305 320q8 5 11 0t3 -6v-1q8 -2 14.5 -10t6.5 -18q0 -17 -13.5 -30t-36.5 -13h-6.5t-5.5 2q5 -8 16.5 -21.5t22.5 -24.5q8 7 14 15t11 16q18 30 17 55.5t-14.5 39.5t-36.5 12.5t-50 -25.5q-22 -20 -33.5 -42.5t-12 -42.5t9 -34.5t29.5 -17.5q14 -2 29 3t29 15
q-11 11 -22 25t-16 27q-4 -8 -6 -16.5t-2 -14.5q0 -4 3 -5q1 -1 3 -1q0 -1 -1 -1h-3q-3 0 -8 2.5t-6 8.5q-1 7 4 19.5t11.5 26t14.5 25.5t13 18q-4 -1 -12 -5t-15.5 -10t-12.5 -14t-4 -16q0 -5 6 -9q-7 0 -13 5t-6 10q0 11 8 19.5t18.5 14t20 9t13.5 5.5zM314 309
q-7 -5 -15 -16.5t-12 -19.5q2 2 6 2.5t6 -0.5q-16 -7 -23 -20q0 -6 9 -7q13 -2 23 7t14.5 20t3 21.5t-11.5 12.5z" />
    <glyph glyph-name="currency" unicode="&#xa4;" horiz-adv-x="336" 
d="M87 329q-11 10 -3.5 18.5t14.5 8.5q1 0 0 -2t-0.5 -6t4 -9.5t12.5 -13.5l1 1q13 12 32.5 19t39 6.5t35.5 -10.5t21 -32q11 6 15.5 11.5t5.5 9.5t0.5 6t1.5 2q3 0 6.5 -3t5.5 -7.5t1 -9t-7 -8.5q-16 -8 -28 -8q6 -29 -4.5 -54.5t-24.5 -42.5q-3 -4 -7.5 -7.5t-9.5 -8.5
q11 -9 18 -11.5t11.5 -2t6 2t2.5 0.5q1 -3 -0.5 -7.5t-4.5 -8t-8 -4.5t-11 3q-7 5 -11.5 12t-7.5 13q-14 -10 -31.5 -17t-36.5 -5q-27 2 -41 17q-12 -7 -16.5 -12.5t-5.5 -9t-0.5 -5.5t-0.5 -2q-3 0 -6.5 3t-5.5 7.5t-1 9t7 8.5q11 5 24 7q-17 25 -8.5 63t37.5 69
q-12 3 -21 10zM125 174q26 -4 51.5 13.5t39.5 41.5q18 30 17 55.5t-14.5 39.5t-36.5 12.5t-50 -25.5q-22 -20 -33.5 -42.5t-12 -42.5t9 -34.5t29.5 -17.5z" />
    <glyph glyph-name="yen" unicode="&#xa5;" horiz-adv-x="377" 
d="M188 252q12 3 28 3q9 16 15 38l1 5q-21 -27 -32.5 -33t-13.5 -6q-14 -3 -20 7q-3 5 -2.5 11.5t3.5 11.5q5 9 10.5 20t8.5 21t3.5 16.5t-3.5 6.5t-1.5 1t6.5 0.5t8.5 -5t4.5 -14.5q1 -9 -2.5 -19.5t-8 -19.5t-8.5 -16t-4 -9v-1q2 -5 15 4.5t25 25.5q8 12 14.5 23t11.5 25
q1 4 4.5 5t7.5 -1t6.5 -6t1.5 -10q-2 -11 -10 -34t-21 -49q17 -3 35 -11q-10 2 -19 2.5t-20 0.5l-5 -11q20 -2 38 -9q-11 2 -20.5 1.5t-23.5 -1.5q-13 -22 -29 -37.5t-34 -17.5q-11 -1 -15.5 0t-4.5 2.5t2 2.5t4 0q6 -2 21.5 10.5t31.5 36.5q-9 -2 -17.5 -6t-12.5 -9
q-2 -2 -2.5 1t1 7.5t5.5 9t10 5.5q13 4 24 5q4 6 5 9q-11 -2 -22 -5.5t-16 -8.5q-2 -2 -2 1t1.5 7.5t5.5 8.5t11 5z" />
    <glyph glyph-name="exclam" unicode="!" horiz-adv-x="392" 
d="M107 53q-2 12 7 42.5t25 69.5t36 82.5t40 81.5t37.5 66t27.5 37q7 7 14 7.5t11.5 -2.5t5.5 -9t-4 -12q-11 -16 -28 -45t-35.5 -64.5t-37.5 -74.5t-34.5 -75t-26 -66t-12.5 -48q-2 -15 10 -18.5t18 -2.5q1 0 -4.5 -2.5t-13.5 -2.5q-10 0 -21 8t-15 28zM87 -6
q4 10 16.5 16.5t13.5 0.5q0 -2 -2 -8.5t-4 -13.5t-2.5 -12.5t4.5 -6.5t-0.5 -2.5t-13 -0.5t-13 7t0.5 20z" />
    <glyph glyph-name="exclamdown" unicode="&#xa1;" horiz-adv-x="379" 
d="M280.982 350.979q2 -11.999 -6.99902 -42.4971q-9 -30.498 -24.999 -69.4961q-15.999 -38.9971 -35.9971 -82.4951q-19.999 -43.4971 -39.998 -81.4951q-19.999 -37.9971 -37.4971 -65.9961q-17.499 -27.998 -27.499 -36.9971q-6.99902 -7 -13.999 -7.5
q-6.99902 -0.5 -11.499 2.5t-5.5 9q-1 5.99902 4 11.999q10.999 15.999 27.998 44.9971t35.498 64.4961t37.498 74.4951q18.998 38.998 34.4971 74.9961q15.5 35.9971 25.999 65.9951q10.499 29.999 12.499 47.9971q2 14.999 -9.99902 18.499q-12 3.5 -17.999 2.5
q-1 0 4.5 2.5q5.49902 2.5 13.499 2.5q9.99902 0 20.998 -8q11 -7.99902 14.999 -27.998zM300.981 409.975q-4 -9.99902 -16.499 -16.499q-12.499 -6.49902 -13.499 -0.5q0 2 2 8.5q2 6.49902 4 13.499t2.5 12.499q0.499023 5.5 -4.5 6.5q-5 1 0.5 2.5
q5.49902 1.5 12.999 0.5t12.999 -7q5.5 -5.99902 -0.5 -19.999z" />
    <glyph glyph-name="question" unicode="?" horiz-adv-x="524" 
d="M418 362q-5 -27 -28 -61.5t-55.5 -70.5t-70.5 -71.5t-72 -64.5q-29 -24 -34 -41t0 -33q0 -1 -5 3.5t-8 15t1.5 26t24.5 36.5q19 20 48 49.5t58.5 62.5t55.5 66.5t39.5 61.5t10.5 48t-31 27q-23 5 -48 -8t-45 -35.5t-29.5 -49.5t-0.5 -50l1 -2q-1 0 -5.5 4t-9 10
t-8.5 13.5t-4 15.5q0 19 15 40.5t37.5 40t49 31t50.5 13.5q16 1 29.5 -2.5t22.5 -12t12 -24t-1 -38.5zM135 -12q4 10 16.5 16.5t13.5 0.5q0 -2 -2 -8.5t-4 -13.5t-2.5 -12.5t4.5 -6.5t-0.5 -2.5t-13 -0.5t-13 7t0.5 20z" />
    <glyph glyph-name="questiondown" unicode="&#xbf;" horiz-adv-x="657" 
d="M138 37q5 27 28 61.5t55.5 70.5t70 71.5t72.5 64.5q29 24 34 41t0 33q0 1 5 -3.5t8 -15t-1.5 -26t-24.5 -36.5q-19 -20 -48 -49.5t-58.5 -62.5t-55.5 -66.5t-39.5 -61.5t-10.5 -48.5t31 -26.5q22 -5 47.5 8t45.5 35.5t29.5 49.5t0.5 50l-1 2q1 0 5.5 -4t9 -10t8.5 -13.5
t4 -15.5q0 -19 -15 -40.5t-37.5 -40t-49 -31t-50.5 -13.5q-16 -1 -29.5 2.5t-22.5 12t-12.5 24t1.5 38.5zM421 411q-4 -10 -16.5 -16.5t-13.5 -0.5q0 2 2 8.5t4 13.5t2 12.5t-4 6.5q-5 1 0.5 2.5t13 0.5t13 -7t-0.5 -20z" />
    <glyph glyph-name="germandbls" unicode="&#xdf;" horiz-adv-x="350" 
d="M103 67q-5 -14 -8 -27.5t2 -28.5q-8 8 -12 25.5t1 30.5q7 24 16.5 49.5t22 50t26.5 47t30 39.5q19 21 36 25t28 -3.5t15.5 -23.5t-1 -34t-21.5 -35.5t-46 -27.5q-2 -1 1 -2q2 -1 4 -1q37 -9 43.5 -29.5t-7 -43t-43 -41.5t-65.5 -25q-8 -2 -11 -1t7 5q9 3 21 8.5
t24.5 13.5t23.5 19.5t19 25.5q33 61 -35 55q-9 -5 -15 -3t-7 7t3 10t13 5q4 0 13 3t18.5 8t18.5 13t15 17q9 15 10 30t-4.5 23t-16.5 6t-26 -20q-29 -38 -51 -78t-42 -92zM98 8q-1 1 -1 3q1 -1 4 -3h-3z" />
    <glyph glyph-name="trademark" unicode="&#x2122;" horiz-adv-x="616" 
d="M214 251q-20 5 -20 22q0 15 12 26.5t30 20t38.5 13t37.5 6.5q1 3 5 6t8 4t7 -0.5t2 -6.5h21q9 0 22 -0.5t25 -3t20.5 -8t8.5 -15.5q0 -8 -5 -14.5t-13 -14.5v3q11 12 11 24q0 11 -14 16t-39 5q-11 0 -22.5 -1t-23.5 -3q-11 -8 -21 -21t-18 -24q-7 -9 -14.5 -22.5t-14 -28
t-10.5 -28t-4 -23.5q0 -9 10 -9h2q0 -3 -9 -3q-5 0 -10.5 4t-5.5 13q0 15 7 34t17.5 38t22.5 36.5t23 29.5q-15 -3 -31 -9t-29 -14t-21.5 -18t-7.5 -22q1 -4 1.5 -7.5t7.5 -5.5q-5 0 -6 1zM303 305q5 2 10 -2.5t5 -9.5q0 -6 -4.5 -13t-11.5 -19q14 19 24 29.5t16.5 16t11 7
t6.5 1.5q9 0 11 -8q0 -3 -3 -10t-7.5 -16t-9.5 -18.5t-9 -16.5q12 17 24.5 29t20.5 12q6 0 10 -4t4 -8q0 -3 -5.5 -13t-12 -22.5t-12 -25t-5.5 -21.5q0 -4 3 -5q4 1 10 6.5t11 13t9.5 14.5t6.5 11q1 -4 -2.5 -12.5t-9.5 -17t-14 -14.5t-16 -4q-9 2 -9 13q0 10 5 22.5
t11.5 24.5t12.5 22t7 15h-1q-5 0 -15.5 -9t-21 -22t-19 -26t-8.5 -20q0 -4 2 -6q-8 0 -10.5 3.5t-2.5 7.5q0 6 2.5 12t4.5 11q1 3 7.5 15t13.5 25t12.5 24t5.5 13q-4 0 -13.5 -8.5t-20 -20.5t-20.5 -24.5t-16 -21.5q-7 -11 -12 -20t-5 -21q0 -7 9 -7q0 -1 -4.5 -2t-6.5 0
q-13 1 -12.5 12.5t6.5 25t13.5 26t9.5 15.5q5 9 12.5 21t1.5 20z" />
    <glyph glyph-name="quotesingle" unicode="'" horiz-adv-x="208" 
d="M131 315q-4 -7 -10.5 -13.5t-12.5 -11t-10.5 -6t-3.5 2.5t5 13.5t6.5 18t0.5 12t-12 -3.5q3 8 11 11t15.5 1t11.5 -8.5t-1 -15.5z" />
    <glyph glyph-name="quotesinglbase" unicode="&#x201a;" horiz-adv-x="213" 
d="M117 42q-5 -6 -12.5 -10t-14 -6t-10.5 -1.5t-2 3.5t9 11t12 15.5t4.5 12.5t-12.5 2q6 6 13.5 5.5t12.5 -5t5.5 -12t-5.5 -15.5z" />
    <glyph glyph-name="quoteright" unicode="&#x2019;" horiz-adv-x="144" 
d="M86 251q-4 -7 -10.5 -13.5t-12.5 -11t-10.5 -6t-3.5 2.5t5 13.5t6.5 18t0.5 12t-12 -3.5q3 8 11 11t15.5 1t11.5 -8.5t-1 -15.5z" />
    <glyph glyph-name="quoteleft" unicode="&#x2018;" horiz-adv-x="137" 
d="M47 248q-5 9 -1 15.5t11.5 8.5t15.5 -1t11 -11q-11 7 -12.5 3.5t1 -12t6.5 -18t5 -13.5t-3.5 -2.5t-10.5 6t-12.5 11t-10.5 13.5z" />
    <glyph glyph-name="quotedblbase" unicode="&#x201e;" horiz-adv-x="235" 
d="M117 42q-5 -6 -12.5 -10t-14 -6t-10.5 -1.5t-2 3.5t9 11t12 15.5t4.5 12.5t-12.5 2q6 6 13.5 5.5t12.5 -5t5.5 -12t-5.5 -15.5zM164 42q-5 -6 -12.5 -10t-14 -6t-10.5 -1.5t-2 3.5t9 11t12 15.5t4.5 12.5t-12.5 2q6 6 13.5 5.5t12.5 -5t5.5 -12t-5.5 -15.5z" />
    <glyph glyph-name="quotedblright" unicode="&#x201d;" horiz-adv-x="488" 
d="M250 251q-4 -7 -10.5 -13.5t-12.5 -11t-10.5 -6t-3.5 2.5t5 13.5t6.5 18t0.5 12t-12 -3.5q3 8 11 11t15.5 1t11.5 -8.5t-1 -15.5zM299 251q-4 -7 -10.5 -13.5t-12.5 -11t-10.5 -6t-3.5 2.5t5 13.5t6.5 18t0.5 12t-12 -3.5q3 8 11 11t15.5 1t11.5 -8.5t-1 -15.5z" />
    <glyph glyph-name="quotedblleft" unicode="&#x201c;" horiz-adv-x="331" 
d="M170 240q-5 9 -1 15.5t11.5 8.5t15.5 -1t11 -11q-11 7 -12.5 3.5t1 -12t6.5 -18t5 -13.5t-3.5 -2.5t-10.5 6t-12.5 11t-10.5 13.5zM121 240q-5 9 -1 15.5t11.5 8.5t15.5 -1t11 -11q-11 7 -12.5 3.5t1 -12t6.5 -18t5 -13.5t-3.5 -2.5t-10.5 6t-12.5 11t-10.5 13.5z" />
    <glyph glyph-name="quotedbl" unicode="&#x22;" horiz-adv-x="452" 
d="M213 251q-4 -7 -10.5 -13.5t-12.5 -11t-10.5 -6t-3.5 2.5t5 13.5t6.5 18t0.5 12t-12 -3.5q3 8 11 11t15.5 1t11.5 -8.5t-1 -15.5zM262 251q-4 -7 -10.5 -13.5t-12.5 -11t-10.5 -6t-3.5 2.5t5 13.5t6.5 18t0.5 12t-12 -3.5q3 8 11 11t15.5 1t11.5 -8.5t-1 -15.5z" />
    <glyph glyph-name="hungarumlaut" unicode="&#x2dd;" horiz-adv-x="178" 
d="M82 549q-6 -5 -14 -9t-15.5 -6t-12 -1.5t-2.5 3.5t10 10.5t14.5 14.5t7 11t-11.5 1q6 6 14 6t13 -4.5t5 -11.5t-8 -14zM120 549q-6 -5 -14 -9t-15.5 -6t-12 -1.5t-2.5 3.5t10 10.5t14.5 14.5t7 11t-11.5 1q6 6 14 6t13 -4.5t5 -11.5t-8 -14z" />
    <glyph glyph-name="dagger" unicode="&#x2020;" horiz-adv-x="330" 
d="M146 262q11 1 20.5 1.5t18.5 0.5q7 38 14 66.5t14 39.5q5 9 11.5 12.5t11.5 2t7.5 -6.5t-0.5 -12q-5 -17 -11 -43.5t-12 -59.5q19 -2 33 -4.5t23 -5.5q11 -4 18 -7q-19 3 -38.5 4t-38.5 0q-8 -41 -14.5 -85.5t-11 -85.5t-5.5 -74t3 -51q1 -7 5.5 -9.5t9.5 -2.5t10 1t8 3
q0 -1 -4.5 -5t-10.5 -7q-10 -4 -22.5 -0.5t-23.5 20.5q-6 10 -6 41t3 72.5t9 88.5t14 90q-24 -5 -41.5 -10.5t-22.5 -10.5q-4 -3 -4 1.5t3.5 12t10.5 15t19 8.5z" />
    <glyph glyph-name="daggerdbl" unicode="&#x2021;" horiz-adv-x="350" 
d="M187 265q5 38 11 66t12 39q10 18 23 14.5t8 -18.5q-4 -17 -9 -43t-9 -58q44 -2 65 -10t20 -8q-22 4 -44 4.5t-44 -1.5q-6 -46 -10.5 -95.5t-6.5 -93.5q45 -2 66.5 -10t20.5 -8q-22 4 -44.5 4.5t-42.5 -1.5q-2 -30 -0.5 -54t6.5 -38q1 -7 5.5 -10t10 -3t10 1.5t7.5 3.5
q-1 -3 -4 -5q-3 -3 -11 -7q-9 -4 -22 -0.5t-24 20.5q-6 8 -8.5 31.5t-1.5 56.5q-23 -5 -38 -10t-20 -10q-3 -3 -3.5 1.5t2.5 12t10 15t19 8.5l30 2q1 42 4.5 90.5t8.5 93.5q-20 -5 -33.5 -9.5t-18.5 -9.5q-4 -3 -4.5 1.5t3 12t10.5 15t19 8.5z" />
    <glyph glyph-name="fi" unicode="&#xfb01;" horiz-adv-x="133" 
d="M26 183q14 28 34.5 62.5t42.5 60.5q7 8 14.5 6t12 -8.5t5 -14.5t-7.5 -13q8 14 4 11.5t-11 -10.5q-18 -24 -32.5 -45.5t-30.5 -49.5q28 4 42 2.5t19 -4.5t3.5 -5.5t-4.5 -1.5t-13 1t-21 -1.5t-20 -3.5t-12 -5t-9 -16t-8 -16q-6 -12 -13.5 -32t-13.5 -40.5t-9.5 -37.5
t-0.5 -22q-13 4 -16.5 17.5t-1 31t9 37.5t13 37t11.5 29t5 15q0 1 -5 1.5t-11.5 0.5t-12.5 0.5t-9 0.5q-4 1 -2 3.5t3 2.5q5 1 20 3t24 3v-1zM66 158q5 7 13 10t15 3t11 -2.5t1 -7.5q-14 -22 -27 -43.5t-20 -40.5q-6 -15 -5.5 -23.5t5 -11t12 0.5t14.5 11q7 7 15 18
t16.5 22.5t15.5 22.5t12 19q-8 -23 -23.5 -49.5t-32.5 -41.5q-14 -11 -28 -10.5t-22 8.5q-11 12 -5 40q4 14 9.5 27t10.5 24q6 12 13 24zM103 234q8 4 17 3t14.5 -5.5t7 -10.5t-5.5 -11q4 12 -0.5 12t-12 -6t-15.5 -13.5t-11 -9.5q-4 -2 -5.5 2.5t-1 12t3.5 15t9 11.5z" />
    <glyph glyph-name="fl" unicode="&#xfb02;" horiz-adv-x="151" 
d="M26 183q14 28 34.5 62.5t42.5 60.5q7 8 14.5 6t12 -8.5t5 -14.5t-7.5 -13q8 14 4 11.5t-11 -10.5q-18 -24 -32.5 -45.5t-30.5 -49.5q27 3 38 2q14 24 29 44.5t30 34.5q18 17 33 20.5t18 -10.5q2 -9 -4.5 -26t-20 -37t-33.5 -40.5t-45 -37.5q0 1 6 7.5t12 12.5
q12 12 24 26t21.5 26.5t15.5 23t6 16.5q0 3 -1 3q-6 0 -16.5 -11t-23 -28t-25 -39t-23 -43t-17 -40t-6.5 -31q0 -11 7 -11q9 0 20.5 10.5t22.5 25t20.5 30.5t14.5 27q-3 -15 -12 -32.5t-21 -33.5t-25.5 -26.5t-26.5 -10.5q-11 0 -19.5 5.5t-7.5 20.5q1 20 12.5 50.5
t28.5 62.5q-12 -2 -23.5 -4t-14.5 -5t-9 -16t-8 -16q-6 -12 -13.5 -32t-13.5 -40.5t-9.5 -37.5t-0.5 -22q-13 4 -16.5 17.5t-1 31t9 37.5t13 37t11.5 29t5 15q0 1 -5 1.5t-11.5 0.5t-12.5 0.5t-9 0.5q-4 1 -2 3.5t3 2.5q5 1 20 3t24 3v-1l1 2v0z" />
    <glyph glyph-name="Lslash" unicode="&#x141;" horiz-adv-x="207" 
d="M320 -13q14 -6 20 -9.5t6.5 -4t-2 0t-6.5 2.5q-18 8 -53 14t-75 9.5t-79 4.5t-66 -1q-14 -8 -25 -11t-16 -1q-4 -2 -5.5 2.5t1.5 11.5t12.5 14t29.5 11h1q12 14 28.5 40t33.5 57q-19 -11 -31.5 -21.5t-14.5 -16.5q-2 -5 -4.5 -0.5t-2.5 13t4 17.5t15 14q14 6 26 11t23 9
q11 20 20 39.5t17 36.5q3 6 12 25t17.5 40t11.5 37.5t-6 16.5q-8 1 -32.5 -11.5t-60.5 -50.5q-20 -20 -39.5 -44.5t-25.5 -44.5q-6 -16 -0.5 -24.5t14.5 -13t18 -6t10 -4.5q-13 0 -26.5 1.5t-24 7.5t-16 17t-1.5 30q6 28 28.5 55.5t50.5 48.5t55.5 34t42.5 12q32 5 33.5 -32
t-36.5 -115l-21 -43q14 3 23.5 4t17.5 1h15q-17 -3 -33 -8t-30 -11q-19 -36 -38.5 -70t-33.5 -50q21 -2 50 -5t59.5 -8.5t59 -13t49.5 -17.5z" />
    <glyph glyph-name="lslash" unicode="&#x142;" horiz-adv-x="75" 
d="M84 263q18 17 33 20.5t18 -10.5q2 -9 -4 -25t-18 -34.5t-30.5 -38.5t-41.5 -37q28 6 44 6h15q-20 -4 -38.5 -10t-35.5 -14q-10 -20 -15.5 -37t-5.5 -28t7 -11q9 0 20.5 10.5t22.5 25t20.5 30.5t14.5 27q-3 -15 -12 -32.5t-21 -33.5t-25.5 -26.5t-26.5 -10.5
q-11 0 -19.5 5.5t-7.5 20.5q2 18 9 40q-18 -11 -30 -21t-15 -16q-2 -5 -4.5 -0.5t-2.5 13t4 17.5t15 14q22 10 42 18q16 38 40 76.5t48 61.5zM36 137q2 3 6 7l8 8q12 12 24 26t21.5 26.5t15.5 23t6 16.5q0 3 -1 3q-6 0 -15.5 -9.5t-21 -25t-24 -35.5t-22.5 -40h3z" />
    <glyph glyph-name="asciicircum" unicode="^" horiz-adv-x="356" 
d="M162 538q-9 -8 -18 -8t-14.5 4.5t-6.5 11t6 12.5q-4 -11 0.5 -12t12 3.5t16 11.5t13.5 10q0 2 2 2t4 -3q3 -4 9 -11t11.5 -12t9.5 -5.5t4 10.5q5 -7 2.5 -13t-8.5 -9t-13.5 -2t-12.5 7q-6 8 -8 17q-3 -8 -9 -14z" />
    <glyph glyph-name="caron" unicode="&#x2c7;" horiz-adv-x="329" 
d="M180 559q9 8 18 8t14.5 -4.5t6.5 -11t-6 -12.5q4 11 -0.5 12t-12 -3.5t-16 -11.5t-13.5 -10q0 -2 -2 -2t-4 3q-3 4 -9 11t-11.5 12t-9.5 5t-4 -10q-5 7 -3 13t8 9t14 2t13 -7q6 -8 8 -17q3 8 9 14z" />
    <glyph glyph-name="Zcaron" unicode="&#x17d;" horiz-adv-x="231" 
d="M311 -13l13 -6.5t8 -4.5l6 -3q-2 0 -9 3q-15 6 -42.5 11.5t-59.5 9t-66.5 5.5t-63.5 2q-32 0 -50.5 -7.5t-28.5 -7.5q-9 0 -9 8t11 19t42 14q14 13 32.5 34.5t39 46.5t40 52t35.5 51q3 5 12.5 18.5t19.5 30t19 33t11 26.5q-1 0 -2 -1l-22 -11t-32 -13.5t-39 -11.5t-43 -5
q-11 0 -26 2t-28 7t-22 15t-9 25q0 9 7 17t14.5 13.5t13.5 8t3 -0.5q-5 -5 -12.5 -11t-7.5 -14q0 -17 25.5 -25.5t60.5 -8.5q27 0 61 9.5t63 20.5q13 0 13 -19q0 -16 -18.5 -53.5t-47 -81t-61.5 -86t-62 -68.5q21 -2 49.5 -5t57.5 -8.5t56.5 -13t47.5 -16.5zM224 431
q9 8 18 8t14.5 -4.5t6.5 -11t-6 -12.5q4 11 -0.5 12t-12 -3.5t-16 -11.5t-13.5 -10q0 -2 -2 -2t-4 3q-3 4 -9 11t-11.5 12t-9.5 5t-4 -10q-5 7 -3 13t8 9t14 2t13 -7q6 -8 8 -17q3 8 9 14z" />
    <glyph glyph-name="zcaron" unicode="&#x17e;" horiz-adv-x="72" 
d="M72 46q22 -8 19.5 -9t-11.5 2q-33 9 -58 7.5t-44 -10.5q-6 -3 -11 4.5t-3 14.5q3 10 11.5 23.5t19 27.5t22.5 28.5t22 26.5q-8 -3 -20 -5t-22 -1t-14.5 6t1.5 17q3 6 4.5 1.5t7 -9.5t18 -6t39.5 13q14 4 20 -6t-5 -22q-5 -6 -16 -17.5t-23 -25t-22.5 -26.5t-14.5 -22
q26 5 48 -1.5t32 -10.5zM54 241q9 8 18 8t14.5 -4.5t6.5 -11t-6 -12.5q4 11 -0.5 12t-12 -3.5t-16 -11.5t-13.5 -10q0 -2 -2 -2t-4 3q-3 4 -9 11t-11.5 12t-9.5 5t-4 -10q-5 7 -3 13t8 9t14 2t13 -7q6 -8 8 -17q3 8 9 14z" />
    <glyph glyph-name="Scaron" unicode="&#x160;" horiz-adv-x="304" 
d="M249 360q31 -4 48 -18t23 -32t1 -37t-18 -33t-34 -20t-47 2q-4 1 -8 4t-6.5 6t-2.5 5t3 0q23 -15 44 -5t33.5 29.5t13 42t-16.5 33.5q-14 8 -27 7.5t-31 -4.5t-39.5 -19.5t-33 -35.5t-6.5 -41t40 -37q43 -20 63 -43t22.5 -46t-9.5 -45t-31 -40q-39 -36 -82 -45.5
t-86 -0.5q-33 7 -47 28t-11 45.5t21 46.5t48 32q23 7 41.5 3.5t30 -15t13 -30t-9.5 -42.5q5 29 -3 43.5t-22.5 19t-32.5 0.5t-33 -13q-20 -12 -29.5 -26t-10 -27t6 -24.5t18.5 -18.5q18 -11 40 -12t44.5 5.5t44.5 20.5t41 35q27 30 29.5 53t-7.5 40.5t-27.5 28.5t-31.5 17
q-20 8 -35 20t-23 26t-7 30.5t13 33.5q21 29 56.5 43.5t69.5 9.5zM259 431q9 8 18 8t14.5 -4.5t6.5 -11t-6 -12.5q4 11 -0.5 12t-12 -3.5t-16 -11.5t-13.5 -10q0 -2 -2 -2t-4 3q-3 4 -9 11t-11.5 12t-9.5 5t-4 -10q-5 7 -3 13t8 9t14 2t13 -7q6 -8 8 -17q3 8 9 14z" />
    <glyph glyph-name="scaron" unicode="&#x161;" horiz-adv-x="86" 
d="M-4 130q1 10 9.5 20t20.5 18t25.5 12.5t25.5 4.5q8 0 13 -9.5t5 -17.5q0 -2 -3 -6.5t-7.5 -9t-9.5 -8t-9 -3.5q-1 0 -1 1v1l4 3t8.5 7.5t8.5 9t4 7.5q0 2 -4 2q-6 0 -17.5 -4t-23.5 -11t-20.5 -15t-8.5 -15q0 -6 5 -11.5t11.5 -10.5t11.5 -11t5 -13q0 -2 -2 -8
q18 14 29.5 33.5t19.5 32.5q-2 -17 -13.5 -34.5t-26.5 -31t-30 -22t-24 -8.5q-10 0 -17 5.5t-7 15.5q0 8 3.5 14.5t5.5 7.5q-2 -2 -3.5 -7t-1.5 -9q0 -9 11 -9q13 0 26 9t13 19q0 5 -6 10.5t-13 12t-12.5 13.5t-4.5 15zM65 242q9 8 18 8t14.5 -4.5t6.5 -11t-6 -12.5
q4 11 -0.5 12t-12 -3.5t-16 -11.5t-13.5 -10q0 -2 -2 -2t-4 3q-3 4 -9 11t-11.5 12t-9.5 5t-4 -10q-5 7 -3 13t8 9t14 2t13 -7q6 -8 8 -17q3 8 9 14z" />
    <glyph glyph-name="bracketleft" unicode="[" horiz-adv-x="268" 
d="M28 -3q-3 10 4.5 34.5t21 57.5t31 70.5t35.5 73.5t34 66.5t26 49.5q8 14 19.5 22t28.5 9q34 2 59.5 -0.5t41.5 -6t23.5 -7l7.5 -3.5q-36 6 -71.5 4t-61.5 -8q-12 -16 -28.5 -45.5t-35 -65t-37 -74t-34 -74.5t-26 -66t-12.5 -47q6 -5 23 -9t39.5 -6t47.5 -1.5t48 4.5
l-8.5 -4.5t-26.5 -9t-45.5 -6t-64.5 4.5q-17 3 -26 13t-13 24z" />
    <glyph glyph-name="bracketright" unicode="]" horiz-adv-x="452" 
d="M322 331q3 -10 -4.5 -34.5t-21 -57.5t-31 -70.5t-35.5 -73.5t-34 -66.5t-26 -49.5q-8 -14 -19.5 -22t-28.5 -9q-35 -2 -60 0.5t-41 6t-23.5 7l-7.5 3.5q36 -6 71.5 -4t61.5 8q11 16 28 45.5t35.5 65t37 74t34 74.5t26 65.5t12.5 47.5q-6 5 -23 9t-39.5 6t-47.5 1.5
t-48 -4.5l8.5 4.5t26.5 9t45.5 6t64.5 -4.5q17 -3 26 -13t13 -24z" />
    <glyph glyph-name="parenleft" unicode="(" horiz-adv-x="257" 
d="M105 -50q2 -4 -6.5 4t-20 25t-22 44t-12 61t9.5 75.5t42 89.5q13 20 37 42.5t54.5 42t66 33t72.5 15.5q5 0 6 -3.5t-4 -3.5q-32 -1 -69 -19.5t-71.5 -49.5t-63 -72t-42.5 -88t-10.5 -97t33.5 -99z" />
    <glyph glyph-name="parenright" unicode=")" horiz-adv-x="339" 
d="M214 368q-2 3 6.5 -4.5t20 -24.5t22 -44t12 -61t-9.5 -76t-42 -89q-13 -20 -37 -42.5t-54.5 -42t-66 -33t-72.5 -15.5q-5 0 -6 3.5t4 3.5q32 1 69 19.5t71.5 49.5t63 72t42.5 88t10 97t-33 99z" />
    <glyph glyph-name="colon" unicode=":" horiz-adv-x="252" 
d="M124 56q-2 -5 -7 -8t-10 -4t-8.5 -0.5t-3.5 3.5q0 2 3 7t6 10.5t5.5 10l2.5 4.5q-1 2 -2.5 4t6.5 -3q5 -3 7.5 -10t0.5 -14zM145 139q-2 -5 -7 -8t-10 -4t-8.5 -0.5t-3.5 3.5q0 2 3 7t6 10.5t5.5 10l2.5 4.5q-1 2 -2.5 4t6.5 -3q5 -3 7.5 -10t0.5 -14z" />
    <glyph glyph-name="braceleft" unicode="{" horiz-adv-x="310" 
d="M299 306q2 17 3.5 33.5t-10.5 23.5t-29 -9q-107 -170 -145 -168q46 -52 -9 -134t-17.5 -92t58.5 30l1 -1q-21 -41 -55 -40t-40.5 26t30.5 92.5t12 120.5l27 22q13 10 28.5 32t31.5 46t29 44.5t20 28.5q34 27 64 9.5t1 -64.5z" />
    <glyph glyph-name="braceright" unicode="}" horiz-adv-x="368" 
d="M62 12q-2 -17 -3.5 -33.5t9 -25t30.5 5.5q18 10 62.5 92.5t82.5 80.5q-46 52 9 134t17.5 92t-58.5 -30l-1 1q21 41 55 40t40.5 -26t-30.5 -92.5t-12 -120.5l-27 -22q-13 -10 -28.5 -32t-31.5 -46t-29 -44.5t-20 -28.5q-34 -27 -64 -9.5t-1 64.5z" />
    <glyph glyph-name="asciitilde" unicode="~" horiz-adv-x="161" 
d="M91 532q-8 1 -11.5 5.5t-6 9.5t-4 9t-4.5 5q-5 2 -16 -3t-11 -13q0 -4 5 -3.5t8 -0.5q-2 -1 -5 -1q-5 -2 -10 0q-6 2 -6.5 7t2.5 10q5 11 16 18t19 4q9 -3 8.5 -11t1.5 -14q1 -5 8 -6t14.5 1.5t12.5 8t2 14.5q-1 5 2 3.5t5 -5.5q5 -7 4 -14.5t-6 -13t-12.5 -8.5t-15.5 -2
z" />
    <glyph glyph-name="ampersand" unicode="&#x26;" horiz-adv-x="303" 
d="M247 64q9 8 20 22.5t15 22.5q-4 -12 -14 -28t-21 -23q-9 -6 -16 -3q-8 5 -9 13t0 14q0 3 1 4q-3 -5 -9 -12t-12 -12q-11 -11 -20 -8t-9 11q-2 -2 -3 -3.5t-3 -2.5q-7 -5 -16.5 -5.5t-11.5 13.5q-1 7 2 15.5t6.5 16t6.5 13t3 7.5v1q-2 0 -10 -7t-16.5 -17t-15 -20.5
t-5.5 -17.5q0 -2 0.5 -3t0.5 -2q-7 1 -11 9l-3 -3q-6 -6 -15 -6q-4 0 -6 0.5t-5 3.5q-4 3 -5.5 9t3.5 20q-4 -7 -11.5 -15t-12.5 -12q-12 -10 -20.5 -5.5t-8.5 11.5q-2 18 9.5 35t25.5 24q14 6 26.5 5t18.5 -5q5 -4 5 -11t-10 -15q-1 -3 -4 -8.5t-5.5 -11.5t-3 -11.5
t3.5 -7.5q8 -3 18 9v1v5q0 2 2.5 11t6.5 18.5t9.5 17.5t12.5 8q6 0 6 -5q0 -2 -7 -15t-11 -20q16 21 29 30.5t14 9.5q6 0 10 -3.5t4 -8.5q0 1 -3.5 -5.5t-8 -15t-8 -18t-3.5 -14.5t2 -5q7 0 17 13q2 17 12.5 31.5t22.5 20.5q20 8 36 3q3 5 8 13t9.5 15.5t9.5 14t8 9.5
q11 11 16 7t-2 -12q-11 -12 -19 -25t-16 -27q2 -5 0 -12.5t-13 -12.5q-13 -25 -10 -33q1 -6 6 -4t7 4zM68 17q-9 0 -15 4.5t-8 10t-2 9.5t3 2q9 -6 32 -9t51.5 -4t57.5 1.5t49 7.5q-23 -9 -50 -15q-23 -5 -53.5 -8.5t-64.5 1.5zM80 148q-9 0 -15 4.5t-8 10t-2 9.5t3 2
q9 -6 32 -9t51.5 -4t57.5 1.5t49 7.5q-23 -9 -50 -15q-23 -5 -53.5 -8.5t-64.5 1.5zM78 107q3 2 8.5 1.5t7.5 -2.5q5 8 -4 13t-23 -2t-25 -22.5t-12 -28.5q0 -12 13 -2q10 8 19.5 21t14.5 19v1zM198 64q10 8 17 18.5t15 18.5q2 6 5 11t6 11q-5 1 -16 -4q-14 -7 -25.5 -23.5
t-13.5 -30.5q-1 -5 2.5 -6.5t9.5 5.5zM246 102q9 7 7 13z" />
    <glyph glyph-name="plusminus" unicode="&#xb1;" horiz-adv-x="312" 
d="M159 161q3 11 11.5 16t16.5 6.5t12.5 0t0.5 -3.5q-7 -5 -16.5 -21.5t-18.5 -41.5q46 -2 68.5 -10t21.5 -8q-24 5 -48.5 4.5t-46.5 -2.5q-7 -20 -11 -43t-4 -46q-1 -1 -4.5 21.5t3.5 65.5q-25 -4 -42.5 -10t-22.5 -11q-3 -3 -4 1.5t2 12t10 15t19 8.5q11 1 21.5 1.5
t19.5 0.5q2 11 5 21.5t7 22.5zM106 2q38 4 66 2t46.5 -6t27.5 -8l9 -4q-29 5 -58 4.5t-53.5 -4.5t-42 -10t-22.5 -11q-3 -3 -4 1.5t2 12t10 15t19 8.5z" />
    <glyph glyph-name="Ccedilla" unicode="&#xc7;" horiz-adv-x="269" 
d="M99 -60q-8 -5 -17 -3.5t-14.5 6t-7 10.5t5.5 11q-3 -9 1 -10.5t11.5 2.5t15.5 12t14 18q3 6 4.5 11.5t3.5 6.5q3 2 3.5 -5.5t-1.5 -15.5q-2 -11 -7 -24.5t-12 -18.5zM284 148q-9 -35 -28.5 -67t-46 -55t-57.5 -33.5t-62 -3.5q-38 9 -55 33.5t-18 57t11.5 70t34.5 72.5
q18 28 42 54t50 45.5t53 30t50 8.5q33 -3 47 -15t15.5 -26.5t-5.5 -30.5t-15.5 -27t-14.5 -15.5t-2 3.5q13 25 16.5 43.5t1.5 30.5t-9.5 18.5t-17.5 7.5q-12 1 -32.5 -7.5t-44 -25.5t-48 -41.5t-45.5 -54.5q-21 -31 -35 -64t-17 -62t6 -51t34 -32q31 -12 61 -2t55.5 32.5
t45 51.5t30.5 55z" />
    <glyph glyph-name="cedilla" unicode="&#xb8;" horiz-adv-x="223" 
d="M99 -60q-8 -5 -17 -3.5t-14.5 6t-7 10.5t5.5 11q-3 -9 1 -10.5t11.5 2.5t15.5 12t14 18q3 6 4.5 11.5t3.5 6.5q3 2 3.5 -5.5t-1.5 -15.5q-2 -11 -7 -24.5t-12 -18.5z" />
    <glyph glyph-name="ccedilla" unicode="&#xe7;" horiz-adv-x="111" 
d="M7 -27q-8 -5 -17 -3.5t-14.5 6t-7 10.5t5.5 11q-3 -9 1 -10.5t11.5 2.5t15.5 12t14 18q2 3 2.5 6t1.5 5q-14 2 -25 8.5t-16 20.5q-5 17 0.5 34.5t15.5 32t21.5 25.5t18.5 16q19 13 40 13t29 -8q8 -9 1 -26t-28 -31q0 1 6.5 10.5t8.5 12.5q11 16 4 22.5t-26 -5.5
q-11 -6 -24 -17.5t-23.5 -25.5t-16 -28.5t-0.5 -27.5q5 -15 21 -17t32 5q9 4 17.5 12.5t15.5 19t12.5 21t9.5 18.5q0 -3 -3.5 -13.5t-10 -22.5t-16.5 -24t-23 -18q-16 -7 -34 -7v-6.5t-1 -7.5q-2 -11 -7 -24.5t-12 -18.5z" />
    <glyph glyph-name="A" unicode="A" horiz-adv-x="308" 
d="M215 -10q-11 2 -19.5 13.5t-6.5 32.5q2 36 15.5 69t27.5 60q-20 -3 -35.5 -5.5t-33.5 -7.5q-10 -11 -33.5 -36t-50.5 -51.5t-53 -47.5t-39 -25q-6 -2 -11.5 -3t-10.5 -1q-20 0 -27 17t-5 48q1 -5 1.5 -11.5t2 -13t4.5 -12t10 -6.5q9 -2 22 5t28 18.5t31 26t31 28.5
q-11 0 -25 6.5t-13 18.5q3 31 41.5 45.5t93.5 22.5l71 64l-3 -2q44 37 73 59t47.5 34t28.5 15.5t16 3.5q9 0 13.5 -4.5t4.5 -10.5q-3 -7 -8 -9q-18 -9 -36.5 -28.5t-35 -41t-29 -41t-18.5 -29.5q17 1 31 1h25q46 0 62.5 -2t16.5 -4q0 -1 -12.5 -2t-32.5 -3t-46.5 -4.5
t-54.5 -6.5q-9 -16 -19 -34.5t-18.5 -37.5t-15 -38t-7.5 -36q0 -8 1.5 -14t7.5 -11q13 -3 27.5 13t28 38.5t24.5 45.5t16 34q-1 -10 -8 -29t-17.5 -39.5t-22.5 -38.5t-21 -25q-4 -3 -13 -7t-21 -2v1zM315 294q-29 -23 -60.5 -51.5t-63.5 -57.5q13 2 26.5 2.5t26.5 1.5
q14 19 31 49t40 56zM47 104q-1 -6 8 -8t15 -2q12 11 26.5 23.5t26.5 24.5q-29 -8 -51.5 -18t-24.5 -20z" />
    </font>
</defs>
</svg>
